<?xml version="1.0" standalone="no"?>
<!DOCTYPE svg PUBLIC "-//W3C//DTD SVG 1.1//EN" "http://www.w3.org/Graphics/SVG/1.1/DTD/svg11.dtd" >
<svg>
<metadata>
Created by FontForge 20090622 at Tue Feb 13 21:34:10 2018
 By deploy user
Copyright &#194;&#169; 2010 Dalton Maag Ltd. All rights reserved. This font may not be altered in any way without prior permission of Dalton Maag Ltd.
</metadata>
<defs>
<font id="AktivGroteskCorp-Bold" horiz-adv-x="592" >
  <font-face 
    font-family="Aktiv Grotesk Corp"
    font-weight="700"
    font-stretch="normal"
    units-per-em="1000"
    panose-1="2 11 8 4 2 2 2 2 2 4"
    ascent="800"
    descent="-200"
    x-height="522"
    cap-height="714"
    bbox="-185 -227 1354 975"
    underline-thickness="92"
    underline-position="-133"
    unicode-range="U+0008-U+FB04"
  />
<missing-glyph horiz-adv-x="500" 
d="M50 0v750h400v-750h-400zM400 50v650h-300v-650h300z" />
    <glyph glyph-name="f_f" unicode="ff" horiz-adv-x="757" 
d="M96 413h-82v109h82v17q0 48 14 83t38.5 57t57.5 32.5t72 10.5q25 0 52.5 -3t56.5 -12l-19 -102q-32 8 -61 8q-27 0 -49 -15.5t-22 -55.5v-20h121v-109h-121v-413h-140v413zM475 413h-82v109h82v17q0 48 14 83t38.5 57t57.5 32.5t72 10.5q25 0 52.5 -3t56.5 -12l-19 -102
q-32 8 -61 8q-27 0 -49 -15.5t-22 -55.5v-20h121v-109h-121v-413h-140v413z" />
    <glyph glyph-name="f_i" unicode="fi" horiz-adv-x="645" 
d="M96 413h-82v109h82v17q0 48 14 83t38.5 57t57.5 32.5t72 10.5q25 0 52.5 -3t56.5 -12l-19 -102q-32 8 -61 8q-27 0 -49 -15.5t-22 -55.5v-20h121v-109h-121v-413h-140v413zM442 522h140v-522h-140v522zM440 714h144v-126h-144v126z" />
    <glyph glyph-name="f_l" unicode="fl" horiz-adv-x="645" 
d="M96 413h-82v109h82v17q0 48 14 83t38.5 57t57.5 32.5t72 10.5q25 0 52.5 -3t56.5 -12l-19 -102q-32 8 -61 8q-27 0 -49 -15.5t-22 -55.5v-20h121v-109h-121v-413h-140v413zM442 714h140v-714h-140v714z" />
    <glyph glyph-name="f_f_i" unicode="ffi" horiz-adv-x="1023" 
d="M96 413h-82v109h82v17q0 48 14 83t38.5 57t57.5 32.5t72 10.5q25 0 52.5 -3t56.5 -12l-19 -102q-32 8 -61 8q-27 0 -49 -15.5t-22 -55.5v-20h121v-109h-121v-413h-140v413zM475 413h-82v109h82v17q0 48 14 83t38.5 57t57.5 32.5t72 10.5q25 0 52.5 -3t56.5 -12l-19 -102
q-32 8 -61 8q-27 0 -49 -15.5t-22 -55.5v-20h121v-109h-121v-413h-140v413zM820 522h140v-522h-140v522zM818 714h144v-126h-144v126z" />
    <glyph glyph-name="f_f_l" unicode="ffl" horiz-adv-x="1023" 
d="M96 413h-82v109h82v17q0 48 14 83t38.5 57t57.5 32.5t72 10.5q25 0 52.5 -3t56.5 -12l-19 -102q-32 8 -61 8q-27 0 -49 -15.5t-22 -55.5v-20h121v-109h-121v-413h-140v413zM475 413h-82v109h82v17q0 48 14 83t38.5 57t57.5 32.5t72 10.5q25 0 52.5 -3t56.5 -12l-19 -102
q-32 8 -61 8q-27 0 -49 -15.5t-22 -55.5v-20h121v-109h-121v-413h-140v413zM820 714h140v-714h-140v714z" />
    <glyph glyph-name=".notdef" horiz-adv-x="500" 
d="M50 0v750h400v-750h-400zM400 50v650h-300v-650h300z" />
    <glyph glyph-name=".null" horiz-adv-x="0" 
 />
    <glyph glyph-name=".null" horiz-adv-x="0" 
 />
    <glyph glyph-name=".null" horiz-adv-x="0" 
 />
    <glyph glyph-name="nonmarkingreturn" unicode="&#x9;" horiz-adv-x="222" 
 />
    <glyph glyph-name="nonmarkingreturn" unicode="&#xd;" horiz-adv-x="222" 
 />
    <glyph glyph-name="space" unicode=" " horiz-adv-x="222" 
 />
    <glyph glyph-name="exclam" unicode="!" horiz-adv-x="274" 
d="M62 714h150l-10 -488h-130zM68 159h138v-159h-138v159z" />
    <glyph glyph-name="quotedbl" unicode="&#x22;" horiz-adv-x="384" 
d="M34 711h130l-8 -271h-115zM222 711h128l-7 -271h-114z" />
    <glyph glyph-name="numbersign" unicode="#" 
d="M98 159h-79v103h96l25 154h-90v102h108l26 160h119l-26 -160h107l26 160h119l-26 -160h67v-102h-83l-25 -154h74v-103h-93l-25 -159h-119l25 159h-107l-25 -159h-119zM341 262l27 154h-107l-27 -154h107z" />
    <glyph glyph-name="dollar" unicode="$" 
d="M260 -15q-62 6 -104.5 25.5t-70 50t-40.5 71.5t-15 89h140q2 -56 23.5 -85t66.5 -37v192q-108 20 -164.5 69.5t-56.5 147.5q0 39 13.5 73.5t41 61.5t69 44t97.5 21v91h65v-92q63 -5 103 -24.5t64.5 -48.5t35.5 -63.5t15 -68.5l-134 -17q-8 55 -27 81.5t-57 32.5v-184
l30 -6q102 -22 150 -71.5t48 -143.5q0 -37 -12.5 -73t-40 -65.5t-71 -49t-104.5 -22.5v-103h-65v104zM325 97q49 5 67 31t18 61q0 26 -18 52t-67 37v-181zM260 600q-25 -3 -41 -11.5t-25.5 -19.5t-13 -24t-3.5 -26q0 -38 20.5 -58.5t62.5 -31.5v171z" />
    <glyph glyph-name="percent" unicode="%" horiz-adv-x="971" 
d="M215 271q-39 0 -73 12.5t-59 38.5t-39 67.5t-14 98.5t14.5 98.5t39.5 68.5t58.5 40t72.5 13q40 0 74 -13t58.5 -40t38.5 -68.5t14 -98.5t-13.5 -98.5t-38.5 -67.5t-59 -38.5t-74 -12.5zM215 369q33 0 51.5 25.5t18.5 93.5t-18.5 94.5t-51.5 26.5q-32 0 -50.5 -26.5
t-18.5 -94.5t18.5 -93.5t50.5 -25.5zM378 0h-135l348 691h135zM755 -16q-39 0 -73 12.5t-59 38.5t-39 67.5t-14 98.5t14.5 98.5t39.5 68.5t58.5 40t72.5 13q40 0 74 -13t58.5 -40t38.5 -68.5t14 -98.5t-13.5 -98.5t-38.5 -67.5t-59 -38.5t-74 -12.5zM755 82q33 0 51.5 25.5
t18.5 93.5t-18.5 94.5t-51.5 26.5q-32 0 -50.5 -26.5t-18.5 -94.5t18.5 -93.5t50.5 -25.5z" />
    <glyph glyph-name="ampersand" unicode="&#x26;" horiz-adv-x="670" 
d="M473 44q-32 -25 -76 -42.5t-104 -17.5q-75 0 -125.5 18t-81 47.5t-43.5 67t-13 76.5q0 38 12 68t32.5 54t47.5 43.5t57 36.5q-27 31 -49 71t-22 86q0 37 13.5 68t38 53.5t59 35.5t76.5 13q46 0 81 -12.5t59 -34t36 -51.5t12 -65q0 -31 -10.5 -57.5t-28.5 -49t-42.5 -41
t-51.5 -34.5l130 -152q13 32 17.5 66.5t4.5 68.5h124q0 -64 -17.5 -121.5t-50.5 -106.5l112 -132h-160zM241 315q-29 -17 -50 -42.5t-21 -61.5q0 -25 7 -46.5t22.5 -37t41 -24.5t63.5 -9q35 0 59 9t40 21zM290 446q30 18 51 44t21 64q0 33 -16.5 50.5t-46.5 17.5
q-31 0 -48.5 -18t-17.5 -55q0 -15 7 -31t16 -30t18.5 -25t15.5 -17z" />
    <glyph glyph-name="quotesingle" unicode="'" horiz-adv-x="206" 
d="M34 711h138l-7 -271h-124z" />
    <glyph glyph-name="parenleft" unicode="(" horiz-adv-x="298" 
d="M160 -124q-28 43 -50.5 93.5t-38 105.5t-23.5 113t-8 117t8 117t23.5 113t38 105.5t50.5 93.5h133q-58 -103 -83.5 -208.5t-25.5 -220.5t25.5 -220.5t83.5 -208.5h-133z" />
    <glyph glyph-name="parenright" unicode=")" horiz-adv-x="298" 
d="M5 -124q58 103 83.5 208.5t25.5 220.5t-25.5 220.5t-83.5 208.5h133q28 -43 50.5 -93.5t38 -105.5t23.5 -113t8 -117t-8 -117t-23.5 -113t-38 -105.5t-50.5 -93.5h-133z" />
    <glyph glyph-name="asterisk" unicode="*" horiz-adv-x="416" 
d="M144 514l-124 28l46 109l103 -60l-25 123h128l-25 -123l103 60l46 -109l-124 -28l100 -99l-98 -70l-66 111l-66 -111l-98 70z" />
    <glyph glyph-name="plus" unicode="+" 
d="M233 280h-175v121h175v190h126v-190h175v-121h-175v-190h-126v190z" />
    <glyph glyph-name="comma" unicode="," horiz-adv-x="246" 
d="M64 161h136l-62 -255h-107z" />
    <glyph glyph-name="hyphen" unicode="-" horiz-adv-x="389" 
d="M45 368h299v-138h-299v138z" />
    <glyph glyph-name="period" unicode="." horiz-adv-x="246" 
d="M52 161h143v-161h-143v161z" />
    <glyph glyph-name="slash" unicode="/" horiz-adv-x="383" 
d="M145 0h-139l232 734h139z" />
    <glyph glyph-name="zero" unicode="0" 
d="M294 -18q-124 0 -192.5 88t-68.5 276q0 94 18.5 162.5t53 113.5t83.5 66.5t110 21.5q124 0 192.5 -88.5t68.5 -275.5q0 -188 -69.5 -276t-195.5 -88zM295 104q33 0 55.5 16.5t36.5 48t20 76t6 101.5t-6 101.5t-20 76t-36.5 48t-55.5 16.5t-55 -16.5t-35.5 -48t-19.5 -76
t-6 -101.5t6 -101.5t19.5 -76t35.5 -48t55 -16.5z" />
    <glyph glyph-name="one" unicode="1" 
d="M275 529l-135 -81l-62 103l221 140h119v-691h-143v529z" />
    <glyph glyph-name="two" unicode="2" 
d="M48 105l85 72.5l85 72.5l73.5 67t52.5 58t31.5 55.5t10.5 60.5q0 43 -24.5 70.5t-66.5 27.5q-50 0 -78.5 -22.5t-42.5 -85.5l-136 16q9 43 26 81.5t46.5 68t74.5 46.5t111 17q116 0 176 -57t60 -155q0 -42 -10.5 -77.5t-31.5 -69.5t-53.5 -68.5t-77.5 -74.5l-48.5 -40
t-52.5 -46h284l-15 -122h-479v105z" />
    <glyph glyph-name="three" unicode="3" 
d="M179 219q5 -65 33 -91t82 -26q48 0 78.5 22.5t30.5 74.5q0 51 -25.5 73.5t-84.5 22.5h-70v123h78q89 0 89 89q0 17 -5 32.5t-16 27t-29 18t-45 6.5q-48 0 -77 -22t-42 -78l-134 18q9 43 26.5 80t48 64t74.5 42t105 15q59 0 103 -14.5t73.5 -39.5t44 -59.5t14.5 -73.5
q0 -51 -22.5 -90.5t-70.5 -65.5q60 -25 84.5 -68.5t24.5 -94.5q0 -49 -14 -90t-44.5 -70t-77.5 -45.5t-113 -16.5q-75 0 -124.5 21.5t-79.5 55.5t-43 76.5t-15 83.5h143z" />
    <glyph glyph-name="four" unicode="4" 
d="M26 250l316 441h128v-424h88l-15 -112h-73v-155h-133v155h-311v95zM337 267v241l-168 -241h168z" />
    <glyph glyph-name="five" unicode="5" 
d="M193 201q5 -48 28 -73t78 -25q48 0 75.5 28.5t27.5 94.5q0 59 -26 86.5t-81 27.5q-37 0 -63 -12t-46 -35h-118l34 398h398v-121h-281l-13 -147q24 16 57 23.5t61 7.5q57 0 98 -18.5t67.5 -49.5t39 -72t12.5 -87q0 -60 -17 -106t-48 -77t-74.5 -46.5t-96.5 -15.5
q-117 0 -181.5 53.5t-70.5 165.5h140z" />
    <glyph glyph-name="six" unicode="6" 
d="M412 518q-5 17 -11 31t-16 24t-26 15.5t-41 5.5q-65 0 -96.5 -55t-35.5 -149q29 31 67 45.5t86 15.5q102 0 156 -58.5t54 -170.5q0 -54 -17.5 -98.5t-49.5 -76t-78 -48.5t-104 -17q-74 0 -122.5 28.5t-77 74t-40 102.5t-11.5 114q0 115 21.5 193.5t58.5 126.5t86.5 68.5
t104.5 20.5q103 0 155.5 -43t66.5 -133zM301 94q48 0 80.5 31t32.5 94q0 54 -25 87t-84 33q-21 0 -42 -6t-37 -20t-25.5 -37t-7.5 -58q1 -26 8 -49t20 -39.5t33 -26t47 -9.5z" />
    <glyph glyph-name="seven" unicode="7" 
d="M145 0q48 156 104.5 298t122.5 272h-329v121h488v-108q-75 -139 -131.5 -281t-99.5 -302h-155z" />
    <glyph glyph-name="eight" unicode="8" 
d="M137 357q-87 49 -87 158q0 42 15.5 77.5t46 61.5t76.5 41t106 15q64 0 110.5 -14.5t76.5 -40.5t44 -62t14 -79q0 -107 -87 -156q48 -23 77 -64t29 -98q0 -99 -66 -156.5t-198 -57.5q-131 0 -196 57.5t-65 156.5q0 54 29.5 96t74.5 65zM182 505q0 -48 26.5 -71.5
t86.5 -23.5t85.5 24.5t25.5 72.5q0 39 -24.5 67t-86.5 28q-31 0 -52.5 -8t-35 -21.5t-19.5 -31t-6 -36.5zM170 196q0 -47 29.5 -75t96.5 -28t96.5 29t29.5 76q0 44 -27.5 71.5t-98.5 27.5q-36 0 -60 -7.5t-38.5 -21t-21 -32t-6.5 -40.5z" />
    <glyph glyph-name="nine" unicode="9" 
d="M185 175q5 -37 26 -57.5t73 -20.5q66 0 93 52.5t28 153.5q-29 -31 -67.5 -47.5t-87.5 -16.5q-100 0 -156 59.5t-56 171.5q0 54 17.5 98t50.5 75.5t79.5 49t105.5 17.5q74 0 122.5 -29t77 -76t40 -105.5t11.5 -117.5q0 -124 -19 -202t-52.5 -122t-80.5 -60t-102 -16
q-112 0 -170 47t-66 146h133zM286 350q21 0 42 6.5t37 21.5t25.5 38.5t8.5 57.5q-1 25 -8 48t-20 39.5t-33 26.5t-48 10q-48 0 -81 -31.5t-33 -93.5q0 -52 25.5 -87.5t84.5 -35.5z" />
    <glyph glyph-name="colon" unicode=":" horiz-adv-x="246" 
d="M52 161h143v-161h-143v161zM52 522h143v-161h-143v161z" />
    <glyph glyph-name="semicolon" unicode=";" horiz-adv-x="246" 
d="M64 161h136l-62 -255h-107zM52 522h143v-161h-143v161z" />
    <glyph glyph-name="less" unicode="&#x3c;" 
d="M73 394l458 200v-129l-296 -125l296 -125v-131l-458 200v110z" />
    <glyph glyph-name="equal" unicode="=" 
d="M77 291h438v-121h-438v121zM77 512h438v-121h-438v121z" />
    <glyph glyph-name="greater" unicode="&#x3e;" 
d="M61 213l296 124l-296 126v131l458 -200v-110l-458 -200v129z" />
    <glyph glyph-name="question" unicode="?" horiz-adv-x="513" 
d="M182 249q0 28 8 50.5t21.5 42t30 36.5l34.5 34l24.5 24.5t20.5 25t14 29.5t5 37q0 38 -22.5 59.5t-60.5 21.5q-51 0 -78.5 -23t-39.5 -81l-129 16q8 43 25 80.5t46.5 65t73 43.5t103.5 16q107 0 167.5 -49t60.5 -133q0 -32 -6.5 -56t-17.5 -42.5t-25 -33.5l-29 -30
l-34 -34t-28 -32.5t-19 -34t-7 -38.5v-17h-138v23zM181 159h138v-159h-138v159z" />
    <glyph glyph-name="at" unicode="@" horiz-adv-x="1004" 
d="M830 -46q-16 -34 -46 -65.5t-73.5 -56t-100 -39t-125.5 -14.5q-104 0 -185 31.5t-136.5 87.5t-84.5 134.5t-29 172.5q0 86 22 155.5t59 124t85.5 94t102.5 65t109 38t104 12.5q94 0 172 -25t134 -73.5t87.5 -120.5t31.5 -165q0 -82 -21 -141.5t-55 -97.5t-77 -56.5
t-87 -18.5q-54 0 -87.5 17t-44.5 61q-31 -48 -68 -66.5t-80 -18.5q-42 0 -73.5 15t-53 41.5t-32 61.5t-10.5 76q0 63 17.5 116t48 91.5t73 60t92.5 21.5q33 0 64 -15t53 -50l9 54h125l-56 -325q-1 -5 -1 -13q0 -35 31 -35q24 0 47 13t41 40.5t29 70t11 100.5q0 74 -22.5 128
t-64 89t-100.5 52t-133 17q-75 0 -142 -27.5t-117.5 -78t-80.5 -122.5t-30 -161q0 -72 20 -133t61 -106t102.5 -70t144.5 -25q80 0 131 22.5t80 56.5h129zM582 250q4 24 3.5 46t-8 38.5t-23 26.5t-40.5 10q-22 0 -42.5 -11t-36 -32.5t-25 -54.5t-9.5 -77q0 -51 18.5 -75
t47.5 -24q27 0 46 10t32 26.5t20.5 38.5t11.5 46z" />
    <glyph glyph-name="A" unicode="A" horiz-adv-x="698" 
d="M278 714h142l268 -714h-160l-57 165h-250l-57 -165h-154zM432 288l-87 256l-86 -256h173z" />
    <glyph glyph-name="B" unicode="B" horiz-adv-x="647" 
d="M73 714h257q79 0 130.5 -15t81.5 -41t41.5 -61t11.5 -76q0 -42 -18 -79t-68 -63q32 -17 52.5 -35.5t32 -39.5t16 -43t4.5 -44q0 -45 -13.5 -85t-45 -69t-82.5 -46t-126 -17h-274v714zM347 431q59 0 81 22t22 63q0 44 -28.5 62.5t-96.5 18.5h-108v-166h130zM342 117
q37 0 61.5 7t39.5 20.5t21 31.5t6 41q0 46 -25 70t-88 24h-140v-194h125z" />
    <glyph glyph-name="C" unicode="C" horiz-adv-x="713" 
d="M683 247q-5 -57 -26.5 -105.5t-59 -84t-92 -55.5t-126.5 -20q-81 0 -142.5 27t-103 76t-62.5 118.5t-21 153.5q0 87 23 156t66 118t104 75t138 26q68 0 118.5 -17t85 -49t55.5 -77t31 -101l-148 -19q-11 63 -42.5 99t-99.5 36q-86 0 -130.5 -64.5t-44.5 -182.5
q0 -119 47.5 -183t127.5 -64q69 0 101.5 35.5t40.5 101.5h160z" />
    <glyph glyph-name="D" unicode="D" horiz-adv-x="737" 
d="M73 714h267q164 0 255.5 -89t91.5 -264q0 -89 -25.5 -156t-73.5 -113t-117 -69t-156 -23h-242v714zM318 127q58 0 99 16.5t66.5 47.5t37.5 73.5t12 95.5q0 52 -10.5 94.5t-33.5 71.5t-59.5 45t-89.5 16h-118v-460h96z" />
    <glyph glyph-name="E" unicode="E" horiz-adv-x="604" 
d="M73 714h487v-127h-338v-156h318v-128h-318v-176h359l-15 -127h-493v714z" />
    <glyph glyph-name="F" unicode="F" horiz-adv-x="584" 
d="M73 714h469v-128h-320v-168h301v-128h-301v-290h-149v714z" />
    <glyph glyph-name="G" unicode="G" horiz-adv-x="726" 
d="M402 391h274v-302q-55 -51 -131 -79t-157 -28q-85 0 -148.5 27t-105.5 76t-63 118.5t-21 153.5q0 87 23 156t65.5 118t103.5 75t136 26q69 0 118.5 -17t84 -47t55 -70t29.5 -86l-148 -19q-6 27 -14.5 47.5t-24.5 35t-40 22t-60 7.5q-87 0 -130 -65t-43 -183
q0 -119 43.5 -183.5t141.5 -64.5q47 0 81.5 9.5t66.5 29.5v119h-136v124z" />
    <glyph glyph-name="H" unicode="H" horiz-adv-x="727" 
d="M73 714h149v-276h283v276h149v-714h-149v300h-283v-300h-149v714z" />
    <glyph glyph-name="I" unicode="I" horiz-adv-x="295" 
d="M73 714h149v-714h-149v714z" />
    <glyph glyph-name="J" unicode="J" horiz-adv-x="636" 
d="M179 246q3 -32 10 -57.5t21.5 -43t37 -26.5t56.5 -9q62 0 90 37.5t28 106.5v460h149v-469q0 -65 -19 -114.5t-53.5 -82.5t-83.5 -49.5t-109 -16.5q-132 0 -201 64t-75 200h149z" />
    <glyph glyph-name="K" unicode="K" horiz-adv-x="675" 
d="M73 714h150v-286l263 286h163l-237 -268l263 -446h-166l-201 349l-85 -87v-262h-150v714z" />
    <glyph glyph-name="L" unicode="L" horiz-adv-x="584" 
d="M73 714h149v-586h338l-16 -128h-471v714z" />
    <glyph glyph-name="M" unicode="M" horiz-adv-x="860" 
d="M73 714h179l178 -533l183 533h174v-714h-137v476l-163 -476h-116l-164 475v-475h-134v714z" />
    <glyph glyph-name="N" unicode="N" horiz-adv-x="719" 
d="M73 714h134l294 -468v468h145v-714h-133l-295 464v-464h-145v714z" />
    <glyph glyph-name="O" unicode="O" horiz-adv-x="780" 
d="M391 -18q-80 0 -143 26t-107 75t-67.5 118t-23.5 156t23.5 156t68 118t107.5 75t142 26q80 0 143 -26t106.5 -75t66.5 -118t23 -156t-22.5 -156t-66 -118t-106.5 -75t-144 -26zM390 110q94 0 140 64t46 183q0 118 -46 182.5t-140 64.5t-140 -64.5t-46 -182.5
q0 -119 46 -183t140 -64z" />
    <glyph glyph-name="P" unicode="P" horiz-adv-x="640" 
d="M73 714h255q82 0 135.5 -18.5t85 -49t44 -71t12.5 -84.5q0 -47 -12.5 -90t-44 -75.5t-84 -51.5t-132.5 -19h-112v-255h-147v714zM327 379q39 0 64.5 8t40.5 22t20.5 34.5t5.5 44.5q0 25 -6 44t-21 32t-40.5 20t-64.5 7h-106v-212h107z" />
    <glyph glyph-name="Q" unicode="Q" horiz-adv-x="781" 
d="M545 13q-68 -31 -154 -31q-80 0 -143 26t-107 75t-67.5 118t-23.5 156t23.5 156t68 118t107.5 75t142 26q80 0 143 -26t106.5 -75t66.5 -118t23 -156q0 -88 -23 -156.5t-68 -116.5l87 -107l-90 -76zM375 225l90 76l81 -102q30 57 30 158q0 118 -45.5 182.5t-139.5 64.5
t-140.5 -64.5t-46.5 -182.5q0 -119 46.5 -184.5t140.5 -65.5q19 0 37 2.5t34 8.5z" />
    <glyph glyph-name="R" unicode="R" horiz-adv-x="653" 
d="M73 714h253q84 0 138.5 -19.5t85.5 -51t43 -70t12 -75.5q0 -69 -25 -116t-84 -79l145 -303h-161l-120 268h-140v-268h-147v714zM336 392q35 0 58 7.5t36.5 21t18.5 32.5t5 42q0 19 -6 36.5t-20.5 31t-40 21t-64.5 7.5h-103v-199h116z" />
    <glyph glyph-name="S" unicode="S" horiz-adv-x="645" 
d="M179 233q5 -66 42.5 -96t110.5 -30q35 0 59 7.5t39 20t21.5 29.5t6.5 37q0 28 -21 52.5t-77 35.5l-93 17q-55 10 -97 26t-70.5 41.5t-43.5 62.5t-15 88t20.5 90t57 65t87.5 39.5t112 13.5q78 0 130 -18t84 -47.5t47.5 -68.5t20.5 -81l-141 -18q-11 59 -42.5 85t-95.5 26
q-38 0 -62.5 -6.5t-39.5 -17t-21 -24.5t-6 -29q0 -40 22.5 -60t76.5 -31l98 -19q116 -23 170 -74.5t54 -148.5q0 -47 -17.5 -86.5t-52 -69t-86.5 -46t-122 -16.5q-146 0 -223.5 62.5t-83.5 188.5h151z" />
    <glyph glyph-name="T" unicode="T" horiz-adv-x="620" 
d="M235 585h-215v129h580v-129h-215v-585h-150v585z" />
    <glyph glyph-name="U" unicode="U" horiz-adv-x="693" 
d="M59 714h149v-425q0 -91 32 -135t107 -44t106.5 44t31.5 135v425h149v-425q0 -81 -20 -139t-57 -95.5t-90.5 -55t-120.5 -17.5q-68 0 -121.5 18t-90.5 55.5t-56 96.5t-19 140v422z" />
    <glyph glyph-name="V" unicode="V" horiz-adv-x="697" 
d="M10 714h166l173 -505l178 505h160l-268 -714h-141z" />
    <glyph glyph-name="W" unicode="W" horiz-adv-x="968" 
d="M10 714h168l115 -496l117 492h158l122 -492l108 496h160l-194 -714h-145l-133 528l-129 -528h-141z" />
    <glyph glyph-name="X" unicode="X" horiz-adv-x="684" 
d="M255 376l-232 338h170l147 -228l150 228h160l-228 -342l256 -372h-170l-173 260l-166 -260h-163z" />
    <glyph glyph-name="Y" unicode="Y" horiz-adv-x="657" 
d="M257 291l-247 423h166l154 -289l159 289h158l-241 -423v-291h-149v291z" />
    <glyph glyph-name="Z" unicode="Z" horiz-adv-x="587" 
d="M23 109l357 477h-350v128h528v-110l-356 -476h372l-15 -128h-536v109z" />
    <glyph glyph-name="bracketleft" unicode="[" horiz-adv-x="334" 
d="M72 734h252v-120h-111v-618h111v-120h-252v858z" />
    <glyph glyph-name="backslash" unicode="\" horiz-adv-x="383" 
d="M143 734l234 -734h-137l-234 734h137z" />
    <glyph glyph-name="bracketright" unicode="]" horiz-adv-x="334" 
d="M10 -4h111v618h-111v120h252v-858h-252v120z" />
    <glyph glyph-name="asciicircum" unicode="^" 
d="M239 714h113l203 -418h-146l-114 251l-114 -251h-145z" />
    <glyph glyph-name="underscore" unicode="_" horiz-adv-x="500" 
d="M0 -123h500v-52h-500v52z" />
    <glyph glyph-name="grave" unicode="`" horiz-adv-x="414" 
d="M67 749h159l120 -155h-129z" />
    <glyph glyph-name="a" unicode="a" horiz-adv-x="561" 
d="M372 66q-31 -35 -69.5 -57t-99.5 -22q-35 0 -66.5 9t-55 28t-37.5 48.5t-14 70.5q0 54 24 88t63 53t87.5 27t98.5 10l67 3v26q0 48 -26.5 66t-62.5 18q-83 0 -95 -63l-128 12q14 82 72 118.5t156 36.5q60 0 102 -14.5t67.5 -41.5t37 -65.5t11.5 -86.5v-330h-132v66z
M369 233l-62 -3q-44 -2 -71 -9t-41.5 -17.5t-19.5 -24.5t-5 -31q0 -26 18 -41t50 -15q54 0 88 25q19 14 31 35.5t12 53.5v27z" />
    <glyph glyph-name="b" unicode="b" horiz-adv-x="623" 
d="M62 714h140v-255q59 79 160 79q109 0 163 -74t54 -203q0 -62 -15.5 -113t-45 -87.5t-71.5 -56.5t-95 -20q-42 0 -81 16t-73 58v-58h-136v714zM201 257q0 -51 8.5 -81.5t27.5 -49.5q20 -18 40.5 -23.5t41.5 -5.5q23 0 44 9t36.5 28.5t24.5 50.5t9 75q0 46 -8.5 77
t-23.5 50.5t-35.5 28t-43.5 8.5q-26 0 -45 -7t-37 -22q-20 -19 -29.5 -48t-9.5 -74v-16z" />
    <glyph glyph-name="c" unicode="c" horiz-adv-x="569" 
d="M531 189q-8 -94 -64.5 -149.5t-169.5 -55.5q-66 0 -114 20t-78.5 56t-45.5 87t-15 113t17.5 113.5t50.5 88t81 56.5t110 20q53 0 92.5 -13.5t66.5 -37.5t42 -57.5t20 -73.5l-141 -19q-5 40 -23 64.5t-62 24.5q-32 0 -53 -13.5t-33.5 -36.5t-17.5 -52.5t-5 -61.5
q0 -33 5 -63t17 -53t33 -36.5t53 -13.5q42 0 65 24t27 69h142z" />
    <glyph glyph-name="d" unicode="d" horiz-adv-x="622" 
d="M424 69q-60 -85 -162 -85q-110 0 -164 74t-54 205q0 61 15.5 111.5t44.5 87t71 56.5t95 20q39 0 77.5 -14t72.5 -54v244h140v-714h-136v69zM421 267q0 50 -8.5 80t-27.5 49q-18 18 -39.5 23.5t-42.5 5.5q-23 0 -43.5 -9t-36 -28t-24.5 -50t-9 -74q0 -47 8.5 -78.5
t23.5 -51t35 -28t43 -8.5q50 0 82 29q20 20 29.5 48.5t9.5 73.5v18z" />
    <glyph glyph-name="e" unicode="e" horiz-adv-x="589" 
d="M540 163q-14 -88 -70.5 -133.5t-164.5 -45.5q-130 0 -195.5 72t-65.5 204q0 66 19 117.5t53.5 87.5t82.5 54.5t106 18.5q120 0 180.5 -69t60.5 -186v-56h-362q2 -63 32 -98.5t90 -35.5q83 0 98 70h136zM411 319q0 54 -26.5 84t-82.5 30q-28 0 -49 -9t-35.5 -24.5
t-22.5 -36t-9 -44.5h225z" />
    <glyph glyph-name="f" unicode="f" horiz-adv-x="379" 
d="M96 413h-82v109h82v17q0 48 14 83t38.5 57t57.5 32.5t72 10.5q25 0 52.5 -3t56.5 -12l-19 -102q-32 8 -61 8q-27 0 -49 -15.5t-22 -55.5v-20h121v-109h-121v-413h-140v413z" />
    <glyph glyph-name="g" unicode="g" horiz-adv-x="623" 
d="M208 -33q4 -20 11.5 -32t20 -19t30 -9.5t42.5 -2.5q39 0 61 14.5t32.5 38.5t13 55t2.5 64v16q-26 -38 -66.5 -57.5t-91.5 -19.5q-110 0 -164.5 71t-54.5 191q0 57 15.5 105t44.5 82.5t71.5 54t95.5 19.5q42 0 81.5 -16t72.5 -59v59h136v-449q0 -66 -13.5 -117.5
t-43 -87.5t-77 -54.5t-115.5 -18.5q-63 0 -107.5 10.5t-73.5 32t-44.5 54t-20.5 75.5h142zM422 279q0 47 -10.5 76t-27.5 44.5t-38 20.5t-42 5q-23 0 -43.5 -8t-36 -26t-24.5 -46t-9 -67q0 -83 31.5 -117.5t78.5 -34.5q26 0 48.5 7.5t38.5 24t25 43t9 64.5v14z" />
    <glyph glyph-name="h" unicode="h" 
d="M62 714h140v-258q31 42 72 62t86 20q89 0 132 -46.5t43 -146.5v-345h-140v326q0 55 -21 75t-56 20q-27 0 -46.5 -8t-36.5 -23q-14 -14 -23.5 -33.5t-9.5 -42.5v-314h-140v714z" />
    <glyph glyph-name="i" unicode="i" horiz-adv-x="266" 
d="M63 522h140v-522h-140v522zM61 714h144v-126h-144v126z" />
    <glyph glyph-name="j" unicode="j" horiz-adv-x="266" 
d="M61 714h144v-126h-144v126zM-56 -63q32 -8 59 -8t43.5 12.5t16.5 53.5v527h140v-524q0 -96 -43.5 -139.5t-128.5 -43.5q-25 0 -51.5 4t-55.5 13z" />
    <glyph glyph-name="k" unicode="k" horiz-adv-x="577" 
d="M62 714h137v-374l201 182h162l-190 -180l205 -342h-151l-154 264l-73 -66v-198h-137v714z" />
    <glyph glyph-name="l" unicode="l" horiz-adv-x="266" 
d="M63 714h140v-714h-140v714z" />
    <glyph glyph-name="m" unicode="m" horiz-adv-x="875" 
d="M62 522h136v-70q29 44 68 65t82 21q57 0 93 -23t51 -67q36 48 76 69t88 21q81 0 121.5 -44.5t40.5 -144.5v-349h-140v330q0 28 -5 45.5t-13.5 27.5t-20.5 14t-25 4q-21 0 -38.5 -7t-34.5 -24q-14 -14 -22.5 -32t-8.5 -38v-320h-140v330q0 28 -5 45.5t-13.5 27.5t-20.5 14
t-25 4q-21 0 -38.5 -7t-34.5 -24q-14 -14 -22.5 -33.5t-8.5 -42.5v-314h-140v522z" />
    <glyph glyph-name="n" unicode="n" 
d="M62 522h136v-72q31 46 73.5 67t88.5 21q89 0 132 -46.5t43 -146.5v-345h-140v326q0 55 -21 75t-56 20q-27 0 -46.5 -8t-36.5 -23q-14 -14 -23.5 -33.5t-9.5 -42.5v-314h-140v522z" />
    <glyph glyph-name="o" unicode="o" horiz-adv-x="616" 
d="M308 -16q-126 0 -195 72t-69 206q0 64 18.5 115.5t53 87t83.5 54.5t109 19q61 0 110 -19t83.5 -54.5t52.5 -87t18 -115.5q0 -65 -18.5 -116.5t-53 -87.5t-83.5 -55t-109 -19zM308 96q60 0 89.5 43t29.5 123t-29.5 122t-89.5 42t-89.5 -42t-29.5 -122q0 -81 29 -123.5
t90 -42.5z" />
    <glyph glyph-name="p" unicode="p" horiz-adv-x="623" 
d="M62 522h136v-69q60 85 164 85q109 0 163 -74t54 -203q0 -62 -15.5 -113t-45 -87.5t-71.5 -56.5t-95 -20q-39 0 -77.5 14t-72.5 56v-248h-140v716zM201 257q0 -51 8.5 -81.5t27.5 -49.5q20 -18 40.5 -23.5t41.5 -5.5q23 0 44 9t36.5 28.5t24.5 50.5t9 75q0 46 -8.5 77
t-23.5 50.5t-35.5 28t-43.5 8.5q-26 0 -45 -7t-37 -22q-20 -19 -29.5 -48t-9.5 -74v-16z" />
    <glyph glyph-name="q" unicode="q" horiz-adv-x="623" 
d="M421 65q-27 -40 -70 -60.5t-88 -20.5q-111 0 -165 74t-54 205q0 61 15.5 111.5t44.5 87t71.5 56.5t95.5 20q42 0 81.5 -16t72.5 -59v59h136v-716h-140v259zM422 267q0 50 -8.5 80t-27.5 49q-18 18 -39.5 23.5t-42.5 5.5q-23 0 -43.5 -9t-36 -28t-24.5 -50t-9 -74
q0 -47 8.5 -78.5t23.5 -51t35 -28t43 -8.5q50 0 82 29q20 20 29.5 48.5t9.5 73.5v18z" />
    <glyph glyph-name="r" unicode="r" horiz-adv-x="419" 
d="M62 522h136v-73q26 41 63 61.5t78 20.5q20 0 33 -1.5t23 -3.5l-17 -127q-24 6 -59 6q-23 0 -44 -5.5t-38 -20.5q-18 -16 -26.5 -36t-8.5 -41v-302h-140v522z" />
    <glyph glyph-name="s" unicode="s" horiz-adv-x="537" 
d="M163 166q7 -46 37 -60t72 -14q50 0 71.5 12.5t21.5 40.5q0 20 -13.5 35t-51.5 21l-72 12q-95 15 -141.5 51.5t-46.5 110.5q0 38 16.5 68t46.5 51t71.5 32.5t91.5 11.5q62 0 104 -12.5t68.5 -33.5t40 -50t19.5 -62l-125 -16q-9 36 -31.5 53t-72.5 17q-28 0 -46.5 -4.5
t-29 -11.5t-15 -16t-4.5 -17q0 -25 15.5 -36.5t60.5 -19.5l66 -11q55 -9 91 -23t57.5 -34.5t30 -48.5t8.5 -65q0 -74 -56 -118.5t-173 -44.5q-47 0 -89.5 8.5t-76 29.5t-55 56t-24.5 88h134z" />
    <glyph glyph-name="t" unicode="t" horiz-adv-x="379" 
d="M94 413h-82v109h82v139h140v-139h120v-109h-120v-241q0 -41 17 -55.5t44 -14.5q14 0 28.5 1.5t28.5 5.5l20 -103q-29 -9 -56.5 -12.5t-52.5 -3.5q-86 0 -127.5 41t-41.5 138v244z" />
    <glyph glyph-name="u" unicode="u" horiz-adv-x="587" 
d="M57 522h140v-326q0 -56 20 -75.5t55 -19.5q27 0 44.5 8t33.5 23q16 14 25.5 33.5t9.5 42.5v314h140v-522h-136v72q-32 -46 -72.5 -67t-86.5 -21q-89 0 -131 46.5t-42 146.5v345z" />
    <glyph glyph-name="v" unicode="v" horiz-adv-x="567" 
d="M8 522h162l117 -363l117 363h155l-206 -522h-140z" />
    <glyph glyph-name="w" unicode="w" horiz-adv-x="773" 
d="M6 522h152l73 -346l100 342h122l95 -342l73 346h146l-152 -522h-136l-93 344l-94 -344h-134z" />
    <glyph glyph-name="x" unicode="x" horiz-adv-x="547" 
d="M197 268l-171 254h165l89 -149l100 149h146l-169 -246l182 -276h-162l-106 170l-111 -170h-152z" />
    <glyph glyph-name="y" unicode="y" horiz-adv-x="567" 
d="M76 -74q29 -8 59 -8q28 0 45 13.5t29 47.5l16 44l-217 499h162l122 -343l114 343h153l-211 -537q-18 -45 -34 -78.5t-36.5 -56t-49 -33.5t-70.5 -11q-26 0 -51.5 3.5t-53.5 12.5z" />
    <glyph glyph-name="z" unicode="z" horiz-adv-x="500" 
d="M37 95l254 318h-249v109h427v-95l-253 -318h265l-13 -109h-431v95z" />
    <glyph glyph-name="braceleft" unicode="{" horiz-adv-x="333" 
d="M94 177q0 32 -15.5 51t-47.5 19h-9v116h9q32 0 47.5 19t15.5 51v153q0 75 40 111.5t104 36.5h90v-117h-45q-26 0 -42 -11t-16 -36v-168q0 -28 -13 -55.5t-50 -41.5q37 -14 50 -41.5t13 -55.5v-168q0 -25 16 -36t42 -11h45v-117h-90q-64 0 -104 36.5t-40 111.5v153z" />
    <glyph glyph-name="bar" unicode="|" horiz-adv-x="276" 
d="M72 734h132v-858h-132v858z" />
    <glyph glyph-name="braceright" unicode="}" horiz-adv-x="333" 
d="M5 -7h45q26 0 42 11t16 36v168q0 28 13 55.5t52 41.5q-39 14 -52 41.5t-13 55.5v168q0 25 -16 36t-42 11h-45v117h90q65 0 104.5 -36.5t39.5 -111.5v-153q0 -32 16.5 -51t46.5 -19h9v-116h-9q-30 0 -46.5 -19t-16.5 -51v-153q0 -75 -39.5 -111.5t-104.5 -36.5h-90v117z
" />
    <glyph glyph-name="asciitilde" unicode="~" 
d="M30 226q0 110 39 160t124 50q32 0 58 -11.5t48.5 -25l42 -24.5t39.5 -11q55 0 55 70h125q0 -109 -38.5 -159.5t-123.5 -50.5q-32 0 -58 11.5t-48.5 25.5l-42.5 25.5t-39 11.5q-55 0 -55 -72h-126z" />
    <glyph glyph-name="uni00A0" unicode="&#xa0;" horiz-adv-x="222" 
 />
    <glyph glyph-name="exclamdown" unicode="&#xa1;" horiz-adv-x="274" 
d="M72 296h130l10 -490h-150zM68 522h138v-159h-138v159z" />
    <glyph glyph-name="cent" unicode="&#xa2;" 
d="M275 85q-57 5 -97.5 27t-67 57t-39 82t-12.5 102q0 56 14.5 103t42 82t67.5 57.5t92 28.5v95h65v-93q47 -3 82.5 -17t60 -38t38.5 -56t19 -70l-139 -21q-4 32 -18 55.5t-43 31.5v-313q58 13 64 90h142q-8 -88 -57 -142.5t-149 -61.5v-94h-65v95zM275 509q-22 -7 -36 -22
t-22.5 -35.5t-12 -45t-3.5 -50.5t3.5 -51t11.5 -46t22.5 -36.5t36.5 -22.5v309z" />
    <glyph glyph-name="sterling" unicode="&#xa3;" 
d="M76 99q30 35 43.5 69.5t13.5 79.5q0 11 -0.5 21.5t-2.5 24.5h-77v109h63q-3 17 -6 36.5t-3 45.5q0 59 18 101.5t48.5 70t70.5 40.5t84 13q62 0 102 -14.5t64 -39t36 -56.5t17 -66l-119 -18q-9 37 -28 58t-65 21q-50 0 -74 -28.5t-24 -76.5q0 -36 3.5 -52.5t5.5 -34.5h210
v-109h-195q1 -9 1 -18.5v-18.5q0 -36 -10 -72t-31 -65h342l-16 -120h-472z" />
    <glyph glyph-name="currency" unicode="&#xa4;" 
d="M102 194q-18 30 -28 66t-10 74q0 41 10 76.5t28 66.5l-60 60l84 81l62 -68q24 13 51 20.5t59 7.5q29 0 55.5 -7.5t50.5 -20.5l62 68l83 -81l-59 -60q18 -31 28 -66.5t10 -74.5q0 -40 -10 -76t-28 -66l59 -61l-83 -80l-62 67q-24 -12 -50.5 -19.5t-55.5 -7.5
q-32 0 -59 7.5t-51 19.5l-62 -67l-84 80zM296 189q32 0 54.5 11t36.5 30.5t20.5 46t6.5 58.5t-6.5 59t-20.5 46.5t-36.5 30.5t-54.5 11t-54.5 -11t-36.5 -30.5t-20.5 -46.5t-6.5 -59t6.5 -58.5t20.5 -46t36.5 -30.5t54.5 -11z" />
    <glyph glyph-name="yen" unicode="&#xa5;" 
d="M61 232h168v69h-168v97h108l-158 293h147l141 -286l143 286h139l-157 -293h110v-97h-168v-69h168v-97h-168v-135h-137v135h-168v97z" />
    <glyph glyph-name="brokenbar" unicode="&#xa6;" horiz-adv-x="276" 
d="M72 734h132v-336h-132v336zM72 229h132v-353h-132v353z" />
    <glyph glyph-name="section" unicode="&#xa7;" horiz-adv-x="558" 
d="M174 85q4 -29 13 -47.5t22.5 -29t32.5 -14.5t44 -4q52 0 73 16t21 42q0 20 -12 38.5t-57 29.5l-98 23q-47 12 -79 27.5t-51.5 36.5t-27.5 48.5t-8 62.5q0 43 22 72.5t62 50.5q-38 19 -60 51t-22 84q0 37 16.5 66.5t47.5 50.5t74 32t96 11q63 0 105 -13.5t69 -36t41 -51
t21 -57.5l-126 -30q-7 21 -15.5 35.5t-21.5 23.5t-30.5 13.5t-42.5 4.5q-54 0 -75 -16.5t-21 -39.5q0 -9 2 -18t9 -17t20.5 -14.5t36.5 -12.5l107 -27q84 -22 120.5 -59t36.5 -93q0 -49 -19 -83.5t-67 -59.5q39 -21 60.5 -52t21.5 -82q0 -42 -16 -73.5t-45.5 -52.5
t-71 -31.5t-91.5 -10.5q-54 0 -98 10t-77 33.5t-53.5 63t-26.5 99.5h138zM279 230q8 -2 18 -3t20 -1q16 0 31 3.5t27 12t19 22t7 33.5q0 11 -2.5 22.5t-10.5 22t-23 20t-40 15.5l-51 13q-8 2 -16.5 3t-16.5 1q-32 0 -54.5 -17.5t-22.5 -56.5q0 -11 2.5 -23t10 -22.5
t22.5 -20t41 -15.5z" />
    <glyph glyph-name="dieresis" unicode="&#xa8;" horiz-adv-x="414" 
d="M41 733h130v-125h-130v125zM243 733h130v-125h-130v125z" />
    <glyph glyph-name="copyright" unicode="&#xa9;" horiz-adv-x="777" 
d="M389 0q-76 0 -139.5 25.5t-109 72t-70.5 112.5t-25 147t27 147t73.5 112.5t109 72t134.5 25.5q76 0 139 -25.5t108 -72t70 -112.5t25 -147t-26.5 -147t-73 -112.5t-108.5 -72t-134 -25.5zM389 72q57 0 105 20t83 57t54.5 90t19.5 118t-19.5 117.5t-54.5 89.5t-83 57
t-105 20q-58 0 -106.5 -20t-83.5 -57t-54.5 -89.5t-19.5 -117.5t19.5 -118t54.5 -90t83.5 -57t106.5 -20zM568 308q-6 -71 -49 -112.5t-128 -41.5q-49 0 -84.5 15t-59 42t-34.5 64t-11 81q0 45 13 82.5t38 64.5t61 42t82 15q79 0 119.5 -38t47.5 -98l-105 -17q-5 29 -20 49
t-46 20q-24 0 -40 -10t-25.5 -26.5t-13.5 -38t-4 -43.5q0 -24 4 -45.5t13 -38t25 -26.5t40 -10q63 0 69 70h108z" />
    <glyph glyph-name="ordfeminine" unicode="&#xaa;" horiz-adv-x="426" 
d="M282 385q-23 -26 -51 -41.5t-73 -15.5q-27 0 -50.5 7t-41 21.5t-27.5 36t-10 51.5q0 40 18 65t47 40t65.5 21t74.5 8l46 2v12q0 35 -18.5 48t-46.5 13q-35 0 -50 -13t-19 -32l-97 9q12 60 54 87.5t116 27.5q46 0 77 -10.5t50 -30t27.5 -47.5t8.5 -63v-243h-100v47z
M280 510l-43 -2q-34 -2 -54 -6.5t-31 -12.5t-14.5 -18.5t-3.5 -23.5q0 -39 50 -39q40 0 64 18q32 22 32 65v19z" />
    <glyph glyph-name="guillemotleft" unicode="&#xab;" horiz-adv-x="547" 
d="M35 258l128 224h140l-116 -223l116 -229h-142zM260 258l127 224h140l-116 -223l116 -229h-142z" />
    <glyph glyph-name="logicalnot" unicode="&#xac;" 
d="M72 441h438v-270h-125v149h-313v121z" />
    <glyph glyph-name="uni00AD" unicode="&#xad;" horiz-adv-x="389" 
d="M45 368h299v-138h-299v138z" />
    <glyph glyph-name="registered" unicode="&#xae;" horiz-adv-x="489" 
d="M158 622h82q29 0 47.5 -5.5t29 -14.5t14 -20.5t3.5 -23.5q0 -23 -7.5 -36.5t-26.5 -24.5l45 -87h-60l-36 75h-38v-75h-53v212zM245 528q21 0 27.5 7.5t6.5 19.5t-8.5 18.5t-31.5 6.5h-28v-52h34zM244 292q-48 0 -87.5 15t-67.5 43.5t-43.5 69.5t-15.5 92t16.5 91.5
t45.5 69t68 44t84 15.5q49 0 88.5 -15.5t67.5 -44t43.5 -69t15.5 -91.5t-16.5 -92t-45.5 -69.5t-68.5 -43.5t-84.5 -15zM244 341q71 0 114.5 44t43.5 127t-43.5 127t-114.5 44t-114 -44t-43 -127t43 -127t114 -44z" />
    <glyph glyph-name="macron" unicode="&#xaf;" horiz-adv-x="414" 
d="M61 719h292v-107h-292v107z" />
    <glyph glyph-name="degree" unicode="&#xb0;" horiz-adv-x="352" 
d="M30 566q0 30 11 56.5t30.5 46t46.5 30.5t59 11q31 0 58 -11t46 -30.5t30 -46t11 -56.5q0 -31 -11 -58t-30 -46.5t-46 -30.5t-58 -11q-32 0 -59 11t-46.5 30.5t-30.5 46.5t-11 58zM177 501q27 0 43.5 17.5t16.5 47.5q0 29 -16.5 46.5t-43.5 17.5q-29 0 -45.5 -17.5
t-16.5 -46.5q0 -30 16.5 -47.5t45.5 -17.5z" />
    <glyph glyph-name="plusminus" unicode="&#xb1;" 
d="M77 121h156v159h-175v121h175v190h126v-190h175v-121h-175v-159h156v-121h-438v121z" />
    <glyph glyph-name="twosuperior" unicode="&#xb2;" horiz-adv-x="412" 
d="M55 362q13 12 36 29.5t67 55.5l41.5 36.5t29 30t17 29t5.5 32.5q0 20 -11.5 32.5t-34.5 12.5q-26 0 -41.5 -13.5t-22.5 -52.5l-102 13q6 28 17.5 54t31.5 45t50 30.5t73 11.5q72 0 110 -34.5t38 -94.5q0 -20 -4.5 -37.5t-14.5 -34t-24.5 -34t-33.5 -36.5
q-14 -14 -33 -28.5t-39 -31.5h154l-11 -89h-298v74z" />
    <glyph glyph-name="threesuperior" unicode="&#xb3;" horiz-adv-x="412" 
d="M146 421q4 -38 21.5 -54t46.5 -16q28 0 46 11.5t18 43.5q0 24 -17.5 36t-45.5 12h-42v80h43q27 0 41 13.5t14 34.5q0 23 -13.5 34.5t-43.5 11.5q-26 0 -43 -12.5t-23 -47.5l-94 13q11 56 48.5 91.5t114.5 35.5q78 0 114 -33.5t36 -84.5q0 -29 -14.5 -51t-40.5 -39
q32 -13 48 -39t16 -54q0 -61 -37 -98.5t-122 -37.5q-47 0 -78 13.5t-50 34.5t-27.5 48t-9.5 54h94z" />
    <glyph glyph-name="acute" unicode="&#xb4;" horiz-adv-x="414" 
d="M187 749h159l-150 -155h-129z" />
    <glyph glyph-name="mu" unicode="&#xb5;" 
d="M62 522h140v-326q0 -56 20 -75.5t55 -19.5q27 0 44.5 8t33.5 23q16 14 25.5 33.5t9.5 42.5v314h140v-522h-136v72q-23 -40 -53.5 -62t-71.5 -22q-18 0 -35.5 4.5t-31.5 20.5v-207h-140v716z" />
    <glyph glyph-name="paragraph" unicode="&#xb6;" horiz-adv-x="655" 
d="M240 262q-62 5 -105 25t-69.5 50.5t-38.5 69t-12 80.5q0 46 15 87.5t50 72.5t93 49t144 18h273v-853h-132v739h-86v-739h-132v401z" />
    <glyph glyph-name="periodcentered" unicode="&#xb7;" horiz-adv-x="246" 
d="M52 453h143v-161h-143v161z" />
    <glyph glyph-name="cedilla" unicode="&#xb8;" horiz-adv-x="414" 
d="M101 -142q26 -4 42.5 -5t29.5 -1q44 0 44 28q0 14 -12 21t-44 7h-36l39 100h77l-20 -55q27 -4 45 -12t28 -19.5t14 -25t4 -27.5q0 -46 -37.5 -66t-100.5 -20q-14 0 -31.5 1t-41.5 5v69z" />
    <glyph glyph-name="onesuperior" unicode="&#xb9;" horiz-adv-x="412" 
d="M175 589l-93 -50l-40 73l141 79h98v-403h-106v301z" />
    <glyph glyph-name="ordmasculine" unicode="&#xba;" horiz-adv-x="421" 
d="M210 321q-92 0 -144.5 53.5t-52.5 152.5q0 97 54 151t143 54q91 0 144.5 -54t53.5 -151q0 -48 -14.5 -86.5t-40.5 -65t-62.5 -40.5t-80.5 -14zM210 411q44 0 65.5 30.5t21.5 85.5t-21 85t-66 30q-43 0 -64.5 -30t-21.5 -85q0 -56 20.5 -86t65.5 -30z" />
    <glyph glyph-name="guillemotright" unicode="&#xbb;" horiz-adv-x="547" 
d="M361 254l-117 228h143l125 -227l-127 -225h-141zM136 254l-116 228h143l125 -227l-127 -225h-141z" />
    <glyph glyph-name="onequarter" unicode="&#xbc;" horiz-adv-x="937" 
d="M146 589l-93 -50l-40 73l141 79h98v-403h-106v301zM342 0h-135l348 691h135zM550 145l195 259h92v-242h52l-10 -80h-42v-81h-95v81h-192v63zM742 162v124l-92 -124h92z" />
    <glyph glyph-name="onehalf" unicode="&#xbd;" horiz-adv-x="937" 
d="M146 589l-93 -50l-40 73l141 79h98v-403h-106v301zM313 0h-135l348 691h135zM570 75q13 12 36 29.5t67 55.5l41.5 36.5t29 30t17 29t5.5 32.5q0 20 -11.5 32.5t-34.5 12.5q-26 0 -41.5 -13.5t-22.5 -52.5l-102 13q6 28 17.5 54t31.5 45t50 30.5t73 11.5q72 0 110 -34.5
t38 -94.5q0 -20 -4.5 -37.5t-14.5 -34t-24.5 -34t-33.5 -36.5q-14 -14 -33 -28.5t-39 -31.5h154l-11 -89h-298v74z" />
    <glyph glyph-name="threequarters" unicode="&#xbe;" horiz-adv-x="937" 
d="M146 421q4 -38 21.5 -54t46.5 -16q28 0 46 11.5t18 43.5q0 24 -17.5 36t-45.5 12h-42v80h43q27 0 41 13.5t14 34.5q0 23 -13.5 34.5t-43.5 11.5q-26 0 -43 -12.5t-23 -47.5l-94 13q11 56 48.5 91.5t114.5 35.5q78 0 114 -33.5t36 -84.5q0 -29 -14.5 -51t-40.5 -39
q32 -13 48 -39t16 -54q0 -61 -37 -98.5t-122 -37.5q-47 0 -78 13.5t-50 34.5t-27.5 48t-9.5 54h94zM390 0h-135l348 691h135zM550 145l195 259h92v-242h52l-10 -80h-42v-81h-95v81h-192v63zM742 162v124l-92 -124h92z" />
    <glyph glyph-name="questiondown" unicode="&#xbf;" horiz-adv-x="499" 
d="M478 1q-8 -43 -25 -80.5t-46.5 -65t-73 -43.5t-103.5 -16q-107 0 -167.5 49t-60.5 133q0 32 6.5 56t17.5 42.5t25 33.5l29 30l34 34t28 32.5t19 34t7 38.5v17h138v-23q0 -28 -8 -50.5t-21.5 -42t-30 -36.5l-34.5 -34l-24.5 -24.5t-20.5 -25t-14 -29.5t-5 -37
q0 -38 22.5 -59.5t60.5 -21.5q51 0 78.5 23t39.5 81zM169 522h138v-159h-138v159z" />
    <glyph glyph-name="Agrave" unicode="&#xc0;" horiz-adv-x="698" 
d="M278 714h142l268 -714h-160l-57 165h-250l-57 -165h-154zM432 288l-87 256l-86 -256h173zM315 917l128 -145h-131l-159 145h162z" />
    <glyph glyph-name="Aacute" unicode="&#xc1;" horiz-adv-x="698" 
d="M278 714h142l268 -714h-160l-57 165h-250l-57 -165h-154zM432 288l-87 256l-86 -256h173zM382 917h162l-159 -145h-131z" />
    <glyph glyph-name="Acircumflex" unicode="&#xc2;" horiz-adv-x="698" 
d="M278 714h142l268 -714h-160l-57 165h-250l-57 -165h-154zM432 288l-87 256l-86 -256h173zM277 917h141l121 -145h-120l-72 72l-71 -72h-120z" />
    <glyph glyph-name="Atilde" unicode="&#xc3;" horiz-adv-x="698" 
d="M278 714h142l268 -714h-160l-57 165h-250l-57 -165h-154zM432 288l-87 256l-86 -256h173zM151 773q0 75 33.5 108.5t90.5 33.5q21 0 38.5 -7t33 -15l30 -15t28.5 -7q19 0 29.5 8t10.5 32h99q0 -75 -33 -108t-90 -33q-21 0 -39 7t-33 15.5t-29 15.5t-28 7q-20 0 -31 -8.5
t-11 -33.5h-99z" />
    <glyph glyph-name="Adieresis" unicode="&#xc4;" horiz-adv-x="698" 
d="M278 714h142l268 -714h-160l-57 165h-250l-57 -165h-154zM432 288l-87 256l-86 -256h173zM177 911h134v-129h-134v129zM385 911h134v-129h-134v129z" />
    <glyph glyph-name="Aring" unicode="&#xc5;" horiz-adv-x="698" 
d="M272 699q-20 14 -32.5 38t-12.5 58q0 30 9.5 52.5t26 37t38.5 22t46 7.5t46 -7.5t38.5 -22t26.5 -37t10 -52.5q0 -33 -12 -56.5t-32 -37.5l264 -701h-160l-57 165h-250l-57 -165h-154zM432 288l-87 256l-86 -256h173zM347 748q46 0 46 47q0 26 -12 37.5t-34 11.5
q-21 0 -33 -11.5t-12 -37.5q0 -25 12 -36t33 -11z" />
    <glyph glyph-name="AE" unicode="&#xc6;" horiz-adv-x="1052" 
d="M415 714h593v-127h-317v-156h298v-128h-298v-176h338l-15 -127h-467v214h-262l-118 -214h-167zM547 337v250h-56l-138 -250h194z" />
    <glyph glyph-name="Ccedilla" unicode="&#xc7;" horiz-adv-x="713" 
d="M270 -147q27 -5 44 -6t30 -1q25 0 35.5 8t10.5 22t-12.5 21t-45.5 7h-37l32 81q-68 8 -120 38.5t-87 78.5t-52.5 113t-17.5 142q0 87 23 156t66 118t104 75t138 26q68 0 118.5 -17t85 -49t55.5 -77t31 -101l-148 -19q-11 63 -42.5 99t-99.5 36q-86 0 -130.5 -64.5
t-44.5 -182.5q0 -119 47.5 -183t127.5 -64q69 0 101.5 35.5t40.5 101.5h160q-5 -54 -25 -101t-54.5 -82t-84 -56t-114.5 -25l-12 -34q29 -3 47.5 -11.5t29.5 -20t15 -25t4 -28.5q0 -47 -39 -67t-105 -20q-14 0 -31.5 1t-43.5 5v70z" />
    <glyph glyph-name="Egrave" unicode="&#xc8;" horiz-adv-x="604" 
d="M73 714h487v-127h-338v-156h318v-128h-318v-176h359l-15 -127h-493v714zM299 917l128 -145h-131l-159 145h162z" />
    <glyph glyph-name="Eacute" unicode="&#xc9;" horiz-adv-x="604" 
d="M73 714h487v-127h-338v-156h318v-128h-318v-176h359l-15 -127h-493v714zM346 917h162l-159 -145h-131z" />
    <glyph glyph-name="Ecircumflex" unicode="&#xca;" horiz-adv-x="604" 
d="M73 714h487v-127h-338v-156h318v-128h-318v-176h359l-15 -127h-493v714zM247 917h141l121 -145h-120l-72 72l-71 -72h-120z" />
    <glyph glyph-name="Edieresis" unicode="&#xcb;" horiz-adv-x="604" 
d="M73 714h487v-127h-338v-156h318v-128h-318v-176h359l-15 -127h-493v714zM147 911h134v-129h-134v129zM355 911h134v-129h-134v129z" />
    <glyph glyph-name="Igrave" unicode="&#xcc;" horiz-adv-x="295" 
d="M73 714h149v-714h-149v714zM121 917l128 -145h-131l-159 145h162z" />
    <glyph glyph-name="Iacute" unicode="&#xcd;" horiz-adv-x="295" 
d="M73 714h149v-714h-149v714zM178 917h162l-159 -145h-131z" />
    <glyph glyph-name="Icircumflex" unicode="&#xce;" horiz-adv-x="295" 
d="M73 714h149v-714h-149v714zM78 917h141l121 -145h-120l-72 72l-71 -72h-120z" />
    <glyph glyph-name="Idieresis" unicode="&#xcf;" horiz-adv-x="295" 
d="M73 714h149v-714h-149v714zM-22 911h134v-129h-134v129zM186 911h134v-129h-134v129z" />
    <glyph glyph-name="Eth" unicode="&#xd0;" horiz-adv-x="755" 
d="M91 307h-81v123h81v284h267q164 0 255.5 -89t91.5 -264q0 -89 -25.5 -156t-73.5 -113t-117 -69t-156 -23h-242v307zM336 127q58 0 99 16.5t66.5 47.5t37.5 73.5t12 95.5q0 52 -10.5 94.5t-33.5 71.5t-59.5 45t-89.5 16h-118v-157h152v-123h-152v-180h96z" />
    <glyph glyph-name="Ntilde" unicode="&#xd1;" horiz-adv-x="719" 
d="M73 714h134l294 -468v468h145v-714h-133l-295 464v-464h-145v714zM159 773q0 75 33.5 108.5t90.5 33.5q21 0 38.5 -7t33 -15l30 -15t28.5 -7q19 0 29.5 8t10.5 32h99q0 -75 -33 -108t-90 -33q-21 0 -39 7t-33 15.5t-29 15.5t-28 7q-20 0 -31 -8.5t-11 -33.5h-99z" />
    <glyph glyph-name="Ograve" unicode="&#xd2;" horiz-adv-x="780" 
d="M391 -18q-80 0 -143 26t-107 75t-67.5 118t-23.5 156t23.5 156t68 118t107.5 75t142 26q80 0 143 -26t106.5 -75t66.5 -118t23 -156t-22.5 -156t-66 -118t-106.5 -75t-144 -26zM390 110q94 0 140 64t46 183q0 118 -46 182.5t-140 64.5t-140 -64.5t-46 -182.5
q0 -119 46 -183t140 -64zM377 917l128 -145h-131l-159 145h162z" />
    <glyph glyph-name="Oacute" unicode="&#xd3;" horiz-adv-x="780" 
d="M391 -18q-80 0 -143 26t-107 75t-67.5 118t-23.5 156t23.5 156t68 118t107.5 75t142 26q80 0 143 -26t106.5 -75t66.5 -118t23 -156t-22.5 -156t-66 -118t-106.5 -75t-144 -26zM390 110q94 0 140 64t46 183q0 118 -46 182.5t-140 64.5t-140 -64.5t-46 -182.5
q0 -119 46 -183t140 -64zM413 917h162l-159 -145h-131z" />
    <glyph glyph-name="Ocircumflex" unicode="&#xd4;" horiz-adv-x="780" 
d="M391 -18q-80 0 -143 26t-107 75t-67.5 118t-23.5 156t23.5 156t68 118t107.5 75t142 26q80 0 143 -26t106.5 -75t66.5 -118t23 -156t-22.5 -156t-66 -118t-106.5 -75t-144 -26zM390 110q94 0 140 64t46 183q0 118 -46 182.5t-140 64.5t-140 -64.5t-46 -182.5
q0 -119 46 -183t140 -64zM319 917h141l121 -145h-120l-72 72l-71 -72h-120z" />
    <glyph glyph-name="Otilde" unicode="&#xd5;" horiz-adv-x="780" 
d="M391 -18q-80 0 -143 26t-107 75t-67.5 118t-23.5 156t23.5 156t68 118t107.5 75t142 26q80 0 143 -26t106.5 -75t66.5 -118t23 -156t-22.5 -156t-66 -118t-106.5 -75t-144 -26zM390 110q94 0 140 64t46 183q0 118 -46 182.5t-140 64.5t-140 -64.5t-46 -182.5
q0 -119 46 -183t140 -64zM193 773q0 75 33.5 108.5t90.5 33.5q21 0 38.5 -7t33 -15l30 -15t28.5 -7q19 0 29.5 8t10.5 32h99q0 -75 -33 -108t-90 -33q-21 0 -39 7t-33 15.5t-29 15.5t-28 7q-20 0 -31 -8.5t-11 -33.5h-99z" />
    <glyph glyph-name="Odieresis" unicode="&#xd6;" horiz-adv-x="780" 
d="M391 -18q-80 0 -143 26t-107 75t-67.5 118t-23.5 156t23.5 156t68 118t107.5 75t142 26q80 0 143 -26t106.5 -75t66.5 -118t23 -156t-22.5 -156t-66 -118t-106.5 -75t-144 -26zM390 110q94 0 140 64t46 183q0 118 -46 182.5t-140 64.5t-140 -64.5t-46 -182.5
q0 -119 46 -183t140 -64zM219 911h134v-129h-134v129zM427 911h134v-129h-134v129z" />
    <glyph glyph-name="multiply" unicode="&#xd7;" 
d="M210 340l-139 141l85 85l140 -140l140 140l85 -85l-139 -141l139 -140l-85 -85l-140 140l-140 -140l-85 85z" />
    <glyph glyph-name="Oslash" unicode="&#xd8;" horiz-adv-x="780" 
d="M146 76q-47 49 -71.5 119.5t-24.5 161.5q0 87 23.5 156t68 118t107.5 75t142 26q93 0 164 -37l51 77l67 -44l-52 -78q53 -49 81 -123t28 -170q0 -87 -22.5 -156t-66 -118t-106.5 -75t-144 -26q-53 0 -98 11.5t-83 32.5l-56 -84l-67 44zM285 140q42 -30 105 -30
q94 0 140 64t46 183q0 106 -37 168zM481 582q-41 22 -91 22q-94 0 -140 -64.5t-46 -182.5q0 -93 28 -152z" />
    <glyph glyph-name="Ugrave" unicode="&#xd9;" horiz-adv-x="693" 
d="M59 714h149v-425q0 -91 32 -135t107 -44t106.5 44t31.5 135v425h149v-425q0 -81 -20 -139t-57 -95.5t-90.5 -55t-120.5 -17.5q-68 0 -121.5 18t-90.5 55.5t-56 96.5t-19 140v422zM323 917l128 -145h-131l-159 145h162z" />
    <glyph glyph-name="Uacute" unicode="&#xda;" horiz-adv-x="693" 
d="M59 714h149v-425q0 -91 32 -135t107 -44t106.5 44t31.5 135v425h149v-425q0 -81 -20 -139t-57 -95.5t-90.5 -55t-120.5 -17.5q-68 0 -121.5 18t-90.5 55.5t-56 96.5t-19 140v422zM380 917h162l-159 -145h-131z" />
    <glyph glyph-name="Ucircumflex" unicode="&#xdb;" horiz-adv-x="693" 
d="M59 714h149v-425q0 -91 32 -135t107 -44t106.5 44t31.5 135v425h149v-425q0 -81 -20 -139t-57 -95.5t-90.5 -55t-120.5 -17.5q-68 0 -121.5 18t-90.5 55.5t-56 96.5t-19 140v422zM275 917h141l121 -145h-120l-72 72l-71 -72h-120z" />
    <glyph glyph-name="Udieresis" unicode="&#xdc;" horiz-adv-x="693" 
d="M59 714h149v-425q0 -91 32 -135t107 -44t106.5 44t31.5 135v425h149v-425q0 -81 -20 -139t-57 -95.5t-90.5 -55t-120.5 -17.5q-68 0 -121.5 18t-90.5 55.5t-56 96.5t-19 140v422zM175 911h134v-129h-134v129zM383 911h134v-129h-134v129z" />
    <glyph glyph-name="Yacute" unicode="&#xdd;" horiz-adv-x="657" 
d="M257 291l-247 423h166l154 -289l159 289h158l-241 -423v-291h-149v291zM366 917h162l-159 -145h-131z" />
    <glyph glyph-name="Thorn" unicode="&#xde;" horiz-adv-x="640" 
d="M73 714h147v-123h108q82 0 135.5 -18.5t85 -49t44 -71t12.5 -84.5q0 -48 -12.5 -90.5t-44 -75t-84 -51.5t-132.5 -19h-112v-132h-147v714zM327 256q39 0 64.5 8t40.5 22t20.5 34.5t5.5 44.5q0 25 -6 44t-21 32t-40.5 20t-64.5 7h-106v-212h107z" />
    <glyph glyph-name="germandbls" unicode="&#xdf;" horiz-adv-x="604" 
d="M62 501q0 52 16.5 93t46.5 69.5t72.5 43.5t94.5 15q104 0 165.5 -44.5t61.5 -135.5q0 -50 -19.5 -84.5t-61.5 -60.5q69 -21 101 -68.5t32 -124.5q0 -42 -11.5 -81t-37.5 -68t-67 -46.5t-100 -17.5q-25 0 -51.5 3t-55.5 12l20 103q15 -4 33 -6.5t32 -2.5q57 0 79.5 28
t22.5 85q0 62 -35 85t-107 23h-30v107h32q43 0 66 23.5t23 75.5q0 40 -20.5 64.5t-68.5 24.5q-100 0 -100 -129v-487h-133v501z" />
    <glyph glyph-name="agrave" unicode="&#xe0;" horiz-adv-x="561" 
d="M372 66q-31 -35 -69.5 -57t-99.5 -22q-35 0 -66.5 9t-55 28t-37.5 48.5t-14 70.5q0 54 24 88t63 53t87.5 27t98.5 10l67 3v26q0 48 -26.5 66t-62.5 18q-83 0 -95 -63l-128 12q14 82 72 118.5t156 36.5q60 0 102 -14.5t67.5 -41.5t37 -65.5t11.5 -86.5v-330h-132v66z
M369 233l-62 -3q-44 -2 -71 -9t-41.5 -17.5t-19.5 -24.5t-5 -31q0 -26 18 -41t50 -15q54 0 88 25q19 14 31 35.5t12 53.5v27zM112 749h159l120 -155h-129z" />
    <glyph glyph-name="aacute" unicode="&#xe1;" horiz-adv-x="561" 
d="M372 66q-31 -35 -69.5 -57t-99.5 -22q-35 0 -66.5 9t-55 28t-37.5 48.5t-14 70.5q0 54 24 88t63 53t87.5 27t98.5 10l67 3v26q0 48 -26.5 66t-62.5 18q-83 0 -95 -63l-128 12q14 82 72 118.5t156 36.5q60 0 102 -14.5t67.5 -41.5t37 -65.5t11.5 -86.5v-330h-132v66z
M369 233l-62 -3q-44 -2 -71 -9t-41.5 -17.5t-19.5 -24.5t-5 -31q0 -26 18 -41t50 -15q54 0 88 25q19 14 31 35.5t12 53.5v27zM308 749h159l-150 -155h-129z" />
    <glyph glyph-name="acircumflex" unicode="&#xe2;" horiz-adv-x="561" 
d="M372 66q-31 -35 -69.5 -57t-99.5 -22q-35 0 -66.5 9t-55 28t-37.5 48.5t-14 70.5q0 54 24 88t63 53t87.5 27t98.5 10l67 3v26q0 48 -26.5 66t-62.5 18q-83 0 -95 -63l-128 12q14 82 72 118.5t156 36.5q60 0 102 -14.5t67.5 -41.5t37 -65.5t11.5 -86.5v-330h-132v66z
M369 233l-62 -3q-44 -2 -71 -9t-41.5 -17.5t-19.5 -24.5t-5 -31q0 -26 18 -41t50 -15q54 0 88 25q19 14 31 35.5t12 53.5v27zM207 749h141l120 -155h-120l-71 83l-70 -83h-120z" />
    <glyph glyph-name="atilde" unicode="&#xe3;" horiz-adv-x="561" 
d="M372 66q-31 -35 -69.5 -57t-99.5 -22q-35 0 -66.5 9t-55 28t-37.5 48.5t-14 70.5q0 54 24 88t63 53t87.5 27t98.5 10l67 3v26q0 48 -26.5 66t-62.5 18q-83 0 -95 -63l-128 12q14 82 72 118.5t156 36.5q60 0 102 -14.5t67.5 -41.5t37 -65.5t11.5 -86.5v-330h-132v66z
M369 233l-62 -3q-44 -2 -71 -9t-41.5 -17.5t-19.5 -24.5t-5 -31q0 -26 18 -41t50 -15q54 0 88 25q19 14 31 35.5t12 53.5v27zM89 602q0 75 32 108.5t87 33.5q19 0 37 -7t33.5 -15l30 -15t28.5 -7q18 0 28.5 8t10.5 32h94q0 -75 -32 -108t-86 -33q-20 0 -37.5 7t-33.5 15.5
l-30 15.5t-27 7q-19 0 -30 -8.5t-11 -33.5h-94z" />
    <glyph glyph-name="adieresis" unicode="&#xe4;" horiz-adv-x="561" 
d="M372 66q-31 -35 -69.5 -57t-99.5 -22q-35 0 -66.5 9t-55 28t-37.5 48.5t-14 70.5q0 54 24 88t63 53t87.5 27t98.5 10l67 3v26q0 48 -26.5 66t-62.5 18q-83 0 -95 -63l-128 12q14 82 72 118.5t156 36.5q60 0 102 -14.5t67.5 -41.5t37 -65.5t11.5 -86.5v-330h-132v66z
M369 233l-62 -3q-44 -2 -71 -9t-41.5 -17.5t-19.5 -24.5t-5 -31q0 -26 18 -41t50 -15q54 0 88 25q19 14 31 35.5t12 53.5v27zM114 733h130v-125h-130v125zM316 733h130v-125h-130v125z" />
    <glyph glyph-name="aring" unicode="&#xe5;" horiz-adv-x="561" 
d="M372 66q-31 -35 -69.5 -57t-99.5 -22q-35 0 -66.5 9t-55 28t-37.5 48.5t-14 70.5q0 54 24 88t63 53t87.5 27t98.5 10l67 3v26q0 48 -26.5 66t-62.5 18q-83 0 -95 -63l-128 12q14 82 72 118.5t156 36.5q60 0 102 -14.5t67.5 -41.5t37 -65.5t11.5 -86.5v-330h-132v66z
M369 233l-62 -3q-44 -2 -71 -9t-41.5 -17.5t-19.5 -24.5t-5 -31q0 -26 18 -41t50 -15q54 0 88 25q19 14 31 35.5t12 53.5v27zM164 701q0 28 9.5 49.5t25 35.5t36.5 21t44 7t44 -7t37 -21t25.5 -35.5t9.5 -49.5q0 -29 -9.5 -50t-25.5 -34.5t-37 -20.5t-44 -7t-44 7
t-36.5 20.5t-25 34.5t-9.5 50zM279 655q20 0 32 11.5t12 34.5q0 24 -12 35t-32 11t-31.5 -11t-11.5 -35q0 -23 11.5 -34.5t31.5 -11.5z" />
    <glyph glyph-name="ae" unicode="&#xe6;" horiz-adv-x="897" 
d="M58 383q14 82 71.5 118.5t153.5 36.5q56 0 96.5 -18t69.5 -64q36 47 78 64.5t89 17.5q118 0 178 -69t60 -186v-56h-356q2 -63 31.5 -98.5t87.5 -35.5q80 0 95 70h136q-14 -88 -70 -133.5t-162 -45.5q-59 0 -113 22t-85 79q-30 -42 -76 -70t-122 -28q-42 0 -77 9t-60 28
t-39 48.5t-14 70.5q0 54 23.5 88t61.5 53t86 27t96 10l67 3v26q0 24 -7 40t-19 26t-27.5 14t-32.5 4q-80 0 -92 -63zM363 233l-62 -3q-43 -2 -69 -9t-39.5 -17.5t-18 -24.5t-4.5 -31q0 -26 17.5 -41t47.5 -15q27 0 47.5 6.5t37.5 18.5q19 14 31 35.5t12 53.5v27zM719 319
q0 54 -26 84t-80 30t-82 -33t-31 -81h219z" />
    <glyph glyph-name="ccedilla" unicode="&#xe7;" horiz-adv-x="569" 
d="M187 -142q26 -4 42.5 -5t29.5 -1q44 0 44 28q0 14 -12 21t-44 7h-36l31 80q-103 16 -150.5 88.5t-47.5 183.5q0 62 17.5 113.5t50.5 88t81 56.5t110 20q53 0 92.5 -13.5t66.5 -37.5t42 -57.5t20 -73.5l-141 -19q-5 40 -23 64.5t-62 24.5q-32 0 -53 -13.5t-33.5 -36.5
t-17.5 -52.5t-5 -61.5q0 -33 5 -63t17 -53t33 -36.5t53 -13.5q42 0 65 24t27 69h142q-8 -89 -59 -144t-154 -60l-11 -32q27 -4 45 -12t28 -19.5t14 -25t4 -27.5q0 -46 -37.5 -66t-100.5 -20q-14 0 -31.5 1t-41.5 5v69z" />
    <glyph glyph-name="egrave" unicode="&#xe8;" horiz-adv-x="589" 
d="M540 163q-14 -88 -70.5 -133.5t-164.5 -45.5q-130 0 -195.5 72t-65.5 204q0 66 19 117.5t53.5 87.5t82.5 54.5t106 18.5q120 0 180.5 -69t60.5 -186v-56h-362q2 -63 32 -98.5t90 -35.5q83 0 98 70h136zM411 319q0 54 -26.5 84t-82.5 30q-28 0 -49 -9t-35.5 -24.5
t-22.5 -36t-9 -44.5h225zM128 749h159l120 -155h-129z" />
    <glyph glyph-name="eacute" unicode="&#xe9;" horiz-adv-x="589" 
d="M540 163q-14 -88 -70.5 -133.5t-164.5 -45.5q-130 0 -195.5 72t-65.5 204q0 66 19 117.5t53.5 87.5t82.5 54.5t106 18.5q120 0 180.5 -69t60.5 -186v-56h-362q2 -63 32 -98.5t90 -35.5q83 0 98 70h136zM411 319q0 54 -26.5 84t-82.5 30q-28 0 -49 -9t-35.5 -24.5
t-22.5 -36t-9 -44.5h225zM325 749h159l-150 -155h-129z" />
    <glyph glyph-name="ecircumflex" unicode="&#xea;" horiz-adv-x="589" 
d="M540 163q-14 -88 -70.5 -133.5t-164.5 -45.5q-130 0 -195.5 72t-65.5 204q0 66 19 117.5t53.5 87.5t82.5 54.5t106 18.5q120 0 180.5 -69t60.5 -186v-56h-362q2 -63 32 -98.5t90 -35.5q83 0 98 70h136zM411 319q0 54 -26.5 84t-82.5 30q-28 0 -49 -9t-35.5 -24.5
t-22.5 -36t-9 -44.5h225zM233 749h141l120 -155h-120l-71 83l-70 -83h-120z" />
    <glyph glyph-name="edieresis" unicode="&#xeb;" horiz-adv-x="589" 
d="M540 163q-14 -88 -70.5 -133.5t-164.5 -45.5q-130 0 -195.5 72t-65.5 204q0 66 19 117.5t53.5 87.5t82.5 54.5t106 18.5q120 0 180.5 -69t60.5 -186v-56h-362q2 -63 32 -98.5t90 -35.5q83 0 98 70h136zM411 319q0 54 -26.5 84t-82.5 30q-28 0 -49 -9t-35.5 -24.5
t-22.5 -36t-9 -44.5h225zM138 733h130v-125h-130v125zM340 733h130v-125h-130v125z" />
    <glyph glyph-name="igrave" unicode="&#xec;" horiz-adv-x="266" 
d="M63 522h140v-522h-140v522zM-57 749h159l120 -155h-129z" />
    <glyph glyph-name="iacute" unicode="&#xed;" horiz-adv-x="266" 
d="M63 522h140v-522h-140v522zM169 749h159l-150 -155h-129z" />
    <glyph glyph-name="icircumflex" unicode="&#xee;" horiz-adv-x="266" 
d="M63 522h140v-522h-140v522zM62 749h141l120 -155h-120l-71 83l-70 -83h-120z" />
    <glyph glyph-name="idieresis" unicode="&#xef;" horiz-adv-x="266" 
d="M63 522h140v-522h-140v522zM-33 733h130v-125h-130v125zM169 733h130v-125h-130v125z" />
    <glyph glyph-name="eth" unicode="&#xf0;" horiz-adv-x="616" 
d="M176 578l43 43q-39 9 -88 12l20 107q44 -5 83 -12t74 -18l60 59l52 -55l-36 -36q91 -48 139.5 -142t48.5 -251q0 -75 -20 -131.5t-55 -94t-83.5 -56.5t-105.5 -19q-59 0 -108 17t-83.5 49.5t-53.5 80t-19 107.5q0 59 19 106t51.5 80t76 50.5t91.5 17.5q101 0 152 -69
q-11 55 -41 99.5t-93 72.5l-72 -72zM427 242q0 38 -8.5 63.5t-24.5 42.5q-17 19 -39 25.5t-53 6.5q-48 0 -80.5 -36.5t-32.5 -105.5t32.5 -105.5t86.5 -36.5q51 0 85 37t34 102v7z" />
    <glyph glyph-name="ntilde" unicode="&#xf1;" 
d="M62 522h136v-72q31 46 73.5 67t88.5 21q89 0 132 -46.5t43 -146.5v-345h-140v326q0 55 -21 75t-56 20q-27 0 -46.5 -8t-36.5 -23q-14 -14 -23.5 -33.5t-9.5 -42.5v-314h-140v522zM105 602q0 75 32 108.5t87 33.5q19 0 37 -7t33.5 -15l30 -15t28.5 -7q18 0 28.5 8t10.5 32
h94q0 -75 -32 -108t-86 -33q-20 0 -37.5 7t-33.5 15.5l-30 15.5t-27 7q-19 0 -30 -8.5t-11 -33.5h-94z" />
    <glyph glyph-name="ograve" unicode="&#xf2;" horiz-adv-x="616" 
d="M308 -16q-126 0 -195 72t-69 206q0 64 18.5 115.5t53 87t83.5 54.5t109 19q61 0 110 -19t83.5 -54.5t52.5 -87t18 -115.5q0 -65 -18.5 -116.5t-53 -87.5t-83.5 -55t-109 -19zM308 96q60 0 89.5 43t29.5 123t-29.5 122t-89.5 42t-89.5 -42t-29.5 -122q0 -81 29 -123.5
t90 -42.5zM138 749h159l120 -155h-129z" />
    <glyph glyph-name="oacute" unicode="&#xf3;" horiz-adv-x="616" 
d="M308 -16q-126 0 -195 72t-69 206q0 64 18.5 115.5t53 87t83.5 54.5t109 19q61 0 110 -19t83.5 -54.5t52.5 -87t18 -115.5q0 -65 -18.5 -116.5t-53 -87.5t-83.5 -55t-109 -19zM308 96q60 0 89.5 43t29.5 123t-29.5 122t-89.5 42t-89.5 -42t-29.5 -122q0 -81 29 -123.5
t90 -42.5zM328 749h159l-150 -155h-129z" />
    <glyph glyph-name="ocircumflex" unicode="&#xf4;" horiz-adv-x="616" 
d="M308 -16q-126 0 -195 72t-69 206q0 64 18.5 115.5t53 87t83.5 54.5t109 19q61 0 110 -19t83.5 -54.5t52.5 -87t18 -115.5q0 -65 -18.5 -116.5t-53 -87.5t-83.5 -55t-109 -19zM308 96q60 0 89.5 43t29.5 123t-29.5 122t-89.5 42t-89.5 -42t-29.5 -122q0 -81 29 -123.5
t90 -42.5zM237 749h141l120 -155h-120l-71 83l-70 -83h-120z" />
    <glyph glyph-name="otilde" unicode="&#xf5;" horiz-adv-x="616" 
d="M308 -16q-126 0 -195 72t-69 206q0 64 18.5 115.5t53 87t83.5 54.5t109 19q61 0 110 -19t83.5 -54.5t52.5 -87t18 -115.5q0 -65 -18.5 -116.5t-53 -87.5t-83.5 -55t-109 -19zM308 96q60 0 89.5 43t29.5 123t-29.5 122t-89.5 42t-89.5 -42t-29.5 -122q0 -81 29 -123.5
t90 -42.5zM117 602q0 75 32 108.5t87 33.5q19 0 37 -7t33.5 -15l30 -15t28.5 -7q18 0 28.5 8t10.5 32h94q0 -75 -32 -108t-86 -33q-20 0 -37.5 7t-33.5 15.5l-30 15.5t-27 7q-19 0 -30 -8.5t-11 -33.5h-94z" />
    <glyph glyph-name="odieresis" unicode="&#xf6;" horiz-adv-x="616" 
d="M308 -16q-126 0 -195 72t-69 206q0 64 18.5 115.5t53 87t83.5 54.5t109 19q61 0 110 -19t83.5 -54.5t52.5 -87t18 -115.5q0 -65 -18.5 -116.5t-53 -87.5t-83.5 -55t-109 -19zM308 96q60 0 89.5 43t29.5 123t-29.5 122t-89.5 42t-89.5 -42t-29.5 -122q0 -81 29 -123.5
t90 -42.5zM142 733h130v-125h-130v125zM344 733h130v-125h-130v125z" />
    <glyph glyph-name="divide" unicode="&#xf7;" 
d="M232 591h126v-135h-126v135zM232 218h126v-135h-126v135zM77 401h438v-121h-438v121z" />
    <glyph glyph-name="oslash" unicode="&#xf8;" horiz-adv-x="616" 
d="M118 51q-36 36 -55 89t-19 122q0 64 18.5 115.5t53 87t83.5 54.5t109 19q68 0 124 -25l43 64l63 -43l-43 -63q37 -36 57 -88.5t20 -120.5q0 -65 -18.5 -116.5t-53 -87.5t-83.5 -55t-109 -19q-71 0 -127 25l-49 -73l-63 43zM250 109q23 -13 58 -13q60 0 89.5 43t29.5 123
q0 26 -3.5 48.5t-9.5 40.5zM364 413q-23 13 -56 13q-60 0 -89.5 -42t-29.5 -122q0 -26 2.5 -48.5t9.5 -40.5z" />
    <glyph glyph-name="ugrave" unicode="&#xf9;" horiz-adv-x="587" 
d="M57 522h140v-326q0 -56 20 -75.5t55 -19.5q27 0 44.5 8t33.5 23q16 14 25.5 33.5t9.5 42.5v314h140v-522h-136v72q-32 -46 -72.5 -67t-86.5 -21q-89 0 -131 46.5t-42 146.5v345zM124 749h159l120 -155h-129z" />
    <glyph glyph-name="uacute" unicode="&#xfa;" horiz-adv-x="587" 
d="M57 522h140v-326q0 -56 20 -75.5t55 -19.5q27 0 44.5 8t33.5 23q16 14 25.5 33.5t9.5 42.5v314h140v-522h-136v72q-32 -46 -72.5 -67t-86.5 -21q-89 0 -131 46.5t-42 146.5v345zM311 749h159l-150 -155h-129z" />
    <glyph glyph-name="ucircumflex" unicode="&#xfb;" horiz-adv-x="587" 
d="M57 522h140v-326q0 -56 20 -75.5t55 -19.5q27 0 44.5 8t33.5 23q16 14 25.5 33.5t9.5 42.5v314h140v-522h-136v72q-32 -46 -72.5 -67t-86.5 -21q-89 0 -131 46.5t-42 146.5v345zM222 749h141l120 -155h-120l-71 83l-70 -83h-120z" />
    <glyph glyph-name="udieresis" unicode="&#xfc;" horiz-adv-x="587" 
d="M57 522h140v-326q0 -56 20 -75.5t55 -19.5q27 0 44.5 8t33.5 23q16 14 25.5 33.5t9.5 42.5v314h140v-522h-136v72q-32 -46 -72.5 -67t-86.5 -21q-89 0 -131 46.5t-42 146.5v345zM127 733h130v-125h-130v125zM329 733h130v-125h-130v125z" />
    <glyph glyph-name="yacute" unicode="&#xfd;" horiz-adv-x="567" 
d="M76 -74q29 -8 59 -8q28 0 45 13.5t29 47.5l16 44l-217 499h162l122 -343l114 343h153l-211 -537q-18 -45 -34 -78.5t-36.5 -56t-49 -33.5t-70.5 -11q-26 0 -51.5 3.5t-53.5 12.5zM304 749h159l-150 -155h-129z" />
    <glyph glyph-name="thorn" unicode="&#xfe;" horiz-adv-x="623" 
d="M62 714h140v-255q29 40 70.5 59.5t89.5 19.5q109 0 163 -74t54 -203q0 -62 -15.5 -113t-45 -87.5t-71.5 -56.5t-95 -20q-39 0 -77.5 14t-72.5 56v-248h-140v908zM201 257q0 -51 8.5 -81.5t27.5 -49.5q20 -18 40.5 -23.5t41.5 -5.5q23 0 44 9t36.5 28.5t24.5 50.5t9 75
q0 46 -8.5 77t-23.5 50.5t-35.5 28t-43.5 8.5q-26 0 -45 -7t-37 -22q-20 -19 -29.5 -48t-9.5 -74v-16z" />
    <glyph glyph-name="ydieresis" unicode="&#xff;" horiz-adv-x="567" 
d="M76 -74q29 -8 59 -8q28 0 45 13.5t29 47.5l16 44l-217 499h162l122 -343l114 343h153l-211 -537q-18 -45 -34 -78.5t-36.5 -56t-49 -33.5t-70.5 -11q-26 0 -51.5 3.5t-53.5 12.5zM118 733h130v-125h-130v125zM320 733h130v-125h-130v125z" />
    <glyph glyph-name="Amacron" unicode="&#x100;" horiz-adv-x="698" 
d="M278 714h142l268 -714h-160l-57 165h-250l-57 -165h-154zM432 288l-87 256l-86 -256h173zM193 901h310v-111h-310v111z" />
    <glyph glyph-name="amacron" unicode="&#x101;" horiz-adv-x="561" 
d="M372 66q-31 -35 -69.5 -57t-99.5 -22q-35 0 -66.5 9t-55 28t-37.5 48.5t-14 70.5q0 54 24 88t63 53t87.5 27t98.5 10l67 3v26q0 48 -26.5 66t-62.5 18q-83 0 -95 -63l-128 12q14 82 72 118.5t156 36.5q60 0 102 -14.5t67.5 -41.5t37 -65.5t11.5 -86.5v-330h-132v66z
M369 233l-62 -3q-44 -2 -71 -9t-41.5 -17.5t-19.5 -24.5t-5 -31q0 -26 18 -41t50 -15q54 0 88 25q19 14 31 35.5t12 53.5v27zM129 719h292v-107h-292v107z" />
    <glyph glyph-name="Abreve" unicode="&#x102;" horiz-adv-x="698" 
d="M278 714h142l268 -714h-160l-57 165h-250l-57 -165h-154zM432 288l-87 256l-86 -256h173zM289 927q0 -38 18 -53.5t41 -15.5t40.5 15.5t17.5 53.5h103q0 -78 -44 -116.5t-117 -38.5q-74 0 -117.5 38.5t-43.5 116.5h102z" />
    <glyph glyph-name="abreve" unicode="&#x103;" horiz-adv-x="561" 
d="M372 66q-31 -35 -69.5 -57t-99.5 -22q-35 0 -66.5 9t-55 28t-37.5 48.5t-14 70.5q0 54 24 88t63 53t87.5 27t98.5 10l67 3v26q0 48 -26.5 66t-62.5 18q-83 0 -95 -63l-128 12q14 82 72 118.5t156 36.5q60 0 102 -14.5t67.5 -41.5t37 -65.5t11.5 -86.5v-330h-132v66z
M369 233l-62 -3q-44 -2 -71 -9t-41.5 -17.5t-19.5 -24.5t-5 -31q0 -26 18 -41t50 -15q54 0 88 25q19 14 31 35.5t12 53.5v27zM221 746q0 -38 17 -53t40 -15q22 0 39 15t17 53h100q0 -78 -42.5 -116.5t-113.5 -38.5q-72 0 -113.5 38.5t-41.5 116.5h98z" />
    <glyph glyph-name="Aogonek" unicode="&#x104;" horiz-adv-x="698" 
d="M278 714h142l268 -714q-32 -18 -53 -38.5t-21 -42.5q0 -20 11.5 -26.5t24.5 -6.5q10 0 17 0.5t18 2.5v-87q-15 -2 -30 -2.5t-38 -0.5q-35 0 -58.5 7.5t-37.5 19.5t-19.5 28t-5.5 33q0 33 21 60t60 53h-49l-57 165h-250l-57 -165h-154zM432 288l-87 256l-86 -256h173z" />
    <glyph glyph-name="aogonek" unicode="&#x105;" horiz-adv-x="561" 
d="M372 66q-31 -35 -69.5 -57t-99.5 -22q-35 0 -66.5 9t-55 28t-37.5 48.5t-14 70.5q0 54 24 88t63 53t87.5 27t98.5 10l67 3v26q0 48 -26.5 66t-62.5 18q-83 0 -95 -63l-128 12q14 82 72 118.5t156 36.5q60 0 102 -14.5t67.5 -41.5t37 -65.5t11.5 -86.5v-330
q-30 -17 -50 -36.5t-20 -41.5q0 -20 11 -26t23 -6q10 0 17 0.5t16 1.5v-84q-14 -2 -28.5 -2.5t-35.5 -0.5q-34 0 -56 7t-35 19t-18.5 27.5t-5.5 32.5q0 32 19.5 58t56.5 51h-26v66zM369 233l-62 -3q-44 -2 -71 -9t-41.5 -17.5t-19.5 -24.5t-5 -31q0 -26 18 -41t50 -15
q54 0 88 25q19 14 31 35.5t12 53.5v27z" />
    <glyph glyph-name="Cacute" unicode="&#x106;" horiz-adv-x="713" 
d="M683 247q-5 -57 -26.5 -105.5t-59 -84t-92 -55.5t-126.5 -20q-81 0 -142.5 27t-103 76t-62.5 118.5t-21 153.5q0 87 23 156t66 118t104 75t138 26q68 0 118.5 -17t85 -49t55.5 -77t31 -101l-148 -19q-11 63 -42.5 99t-99.5 36q-86 0 -130.5 -64.5t-44.5 -182.5
q0 -119 47.5 -183t127.5 -64q69 0 101.5 35.5t40.5 101.5h160zM411 917h162l-159 -145h-131z" />
    <glyph glyph-name="cacute" unicode="&#x107;" horiz-adv-x="569" 
d="M531 189q-8 -94 -64.5 -149.5t-169.5 -55.5q-66 0 -114 20t-78.5 56t-45.5 87t-15 113t17.5 113.5t50.5 88t81 56.5t110 20q53 0 92.5 -13.5t66.5 -37.5t42 -57.5t20 -73.5l-141 -19q-5 40 -23 64.5t-62 24.5q-32 0 -53 -13.5t-33.5 -36.5t-17.5 -52.5t-5 -61.5
q0 -33 5 -63t17 -53t33 -36.5t53 -13.5q42 0 65 24t27 69h142zM315 749h159l-150 -155h-129z" />
    <glyph glyph-name="Ccircumflex" unicode="&#x108;" horiz-adv-x="713" 
d="M683 247q-5 -57 -26.5 -105.5t-59 -84t-92 -55.5t-126.5 -20q-81 0 -142.5 27t-103 76t-62.5 118.5t-21 153.5q0 87 23 156t66 118t104 75t138 26q68 0 118.5 -17t85 -49t55.5 -77t31 -101l-148 -19q-11 63 -42.5 99t-99.5 36q-86 0 -130.5 -64.5t-44.5 -182.5
q0 -119 47.5 -183t127.5 -64q69 0 101.5 35.5t40.5 101.5h160zM306 917h141l121 -145h-120l-72 72l-71 -72h-120z" />
    <glyph glyph-name="ccircumflex" unicode="&#x109;" horiz-adv-x="569" 
d="M531 189q-8 -94 -64.5 -149.5t-169.5 -55.5q-66 0 -114 20t-78.5 56t-45.5 87t-15 113t17.5 113.5t50.5 88t81 56.5t110 20q53 0 92.5 -13.5t66.5 -37.5t42 -57.5t20 -73.5l-141 -19q-5 40 -23 64.5t-62 24.5q-32 0 -53 -13.5t-33.5 -36.5t-17.5 -52.5t-5 -61.5
q0 -33 5 -63t17 -53t33 -36.5t53 -13.5q42 0 65 24t27 69h142zM226 749h141l120 -155h-120l-71 83l-70 -83h-120z" />
    <glyph glyph-name="Cdotaccent" unicode="&#x10a;" horiz-adv-x="713" 
d="M683 247q-5 -57 -26.5 -105.5t-59 -84t-92 -55.5t-126.5 -20q-81 0 -142.5 27t-103 76t-62.5 118.5t-21 153.5q0 87 23 156t66 118t104 75t138 26q68 0 118.5 -17t85 -49t55.5 -77t31 -101l-148 -19q-11 63 -42.5 99t-99.5 36q-86 0 -130.5 -64.5t-44.5 -182.5
q0 -119 47.5 -183t127.5 -64q69 0 101.5 35.5t40.5 101.5h160zM307 914h140v-135h-140v135z" />
    <glyph glyph-name="cdotaccent" unicode="&#x10b;" horiz-adv-x="569" 
d="M531 189q-8 -94 -64.5 -149.5t-169.5 -55.5q-66 0 -114 20t-78.5 56t-45.5 87t-15 113t17.5 113.5t50.5 88t81 56.5t110 20q53 0 92.5 -13.5t66.5 -37.5t42 -57.5t20 -73.5l-141 -19q-5 40 -23 64.5t-62 24.5q-32 0 -53 -13.5t-33.5 -36.5t-17.5 -52.5t-5 -61.5
q0 -33 5 -63t17 -53t33 -36.5t53 -13.5q42 0 65 24t27 69h142zM231 734h132v-127h-132v127z" />
    <glyph glyph-name="Ccaron" unicode="&#x10c;" horiz-adv-x="713" 
d="M683 247q-5 -57 -26.5 -105.5t-59 -84t-92 -55.5t-126.5 -20q-81 0 -142.5 27t-103 76t-62.5 118.5t-21 153.5q0 87 23 156t66 118t104 75t138 26q68 0 118.5 -17t85 -49t55.5 -77t31 -101l-148 -19q-11 63 -42.5 99t-99.5 36q-86 0 -130.5 -64.5t-44.5 -182.5
q0 -119 47.5 -183t127.5 -64q69 0 101.5 35.5t40.5 101.5h160zM185 921h120l72 -73l71 73h120l-121 -145h-141z" />
    <glyph glyph-name="ccaron" unicode="&#x10d;" horiz-adv-x="569" 
d="M531 189q-8 -94 -64.5 -149.5t-169.5 -55.5q-66 0 -114 20t-78.5 56t-45.5 87t-15 113t17.5 113.5t50.5 88t81 56.5t110 20q53 0 92.5 -13.5t66.5 -37.5t42 -57.5t20 -73.5l-141 -19q-5 40 -23 64.5t-62 24.5q-32 0 -53 -13.5t-33.5 -36.5t-17.5 -52.5t-5 -61.5
q0 -33 5 -63t17 -53t33 -36.5t53 -13.5q42 0 65 24t27 69h142zM367 594h-141l-120 155h120l71 -83l70 83h120z" />
    <glyph glyph-name="Dcaron" unicode="&#x10e;" horiz-adv-x="737" 
d="M73 714h267q164 0 255.5 -89t91.5 -264q0 -89 -25.5 -156t-73.5 -113t-117 -69t-156 -23h-242v714zM318 127q58 0 99 16.5t66.5 47.5t37.5 73.5t12 95.5q0 52 -10.5 94.5t-33.5 71.5t-59.5 45t-89.5 16h-118v-460h96zM125 921h120l72 -73l71 73h120l-121 -145h-141z" />
    <glyph glyph-name="dcaron" unicode="&#x10f;" horiz-adv-x="622" 
d="M424 69q-60 -85 -162 -85q-110 0 -164 74t-54 205q0 61 15.5 111.5t44.5 87t71 56.5t95 20q39 0 77.5 -14t72.5 -54v244h140v-714h-136v69zM421 267q0 50 -8.5 80t-27.5 49q-18 18 -39.5 23.5t-42.5 5.5q-23 0 -43.5 -9t-36 -28t-24.5 -50t-9 -74q0 -47 8.5 -78.5
t23.5 -51t35 -28t43 -8.5q50 0 82 29q20 20 29.5 48.5t9.5 73.5v18zM658 714h131l-60 -244h-103z" />
    <glyph glyph-name="Dcroat" unicode="&#x110;" horiz-adv-x="755" 
d="M91 307h-81v123h81v284h267q164 0 255.5 -89t91.5 -264q0 -89 -25.5 -156t-73.5 -113t-117 -69t-156 -23h-242v307zM336 127q58 0 99 16.5t66.5 47.5t37.5 73.5t12 95.5q0 52 -10.5 94.5t-33.5 71.5t-59.5 45t-89.5 16h-118v-157h152v-123h-152v-180h96z" />
    <glyph glyph-name="dcroat" unicode="&#x111;" horiz-adv-x="628" 
d="M425 69q-60 -85 -162 -85q-55 0 -96 19.5t-68.5 54t-41 83t-13.5 106.5q0 55 15.5 102.5t44.5 82.5t71.5 55.5t95.5 20.5q39 0 77.5 -14t72.5 -55v121h-156v86h156v68h140v-68h67v-86h-67v-560h-136v69zM422 251q0 78 -36 115q-18 18 -39.5 23.5t-42.5 5.5q-23 0 -44 -9
t-36.5 -27.5t-24.5 -46t-9 -64.5q0 -79 32 -114.5t79 -35.5q50 0 82 29q39 38 39 107v17z" />
    <glyph glyph-name="Emacron" unicode="&#x112;" horiz-adv-x="604" 
d="M73 714h487v-127h-338v-156h318v-128h-318v-176h359l-15 -127h-493v714zM167 901h310v-111h-310v111z" />
    <glyph glyph-name="emacron" unicode="&#x113;" horiz-adv-x="589" 
d="M540 163q-14 -88 -70.5 -133.5t-164.5 -45.5q-130 0 -195.5 72t-65.5 204q0 66 19 117.5t53.5 87.5t82.5 54.5t106 18.5q120 0 180.5 -69t60.5 -186v-56h-362q2 -63 32 -98.5t90 -35.5q83 0 98 70h136zM411 319q0 54 -26.5 84t-82.5 30q-28 0 -49 -9t-35.5 -24.5
t-22.5 -36t-9 -44.5h225zM159 719h292v-107h-292v107z" />
    <glyph glyph-name="Ebreve" unicode="&#x114;" horiz-adv-x="604" 
d="M73 714h487v-127h-338v-156h318v-128h-318v-176h359l-15 -127h-493v714zM263 927q0 -38 18 -53.5t41 -15.5t40.5 15.5t17.5 53.5h103q0 -78 -44 -116.5t-117 -38.5q-74 0 -117.5 38.5t-43.5 116.5h102z" />
    <glyph glyph-name="ebreve" unicode="&#x115;" horiz-adv-x="589" 
d="M540 163q-14 -88 -70.5 -133.5t-164.5 -45.5q-130 0 -195.5 72t-65.5 204q0 66 19 117.5t53.5 87.5t82.5 54.5t106 18.5q120 0 180.5 -69t60.5 -186v-56h-362q2 -63 32 -98.5t90 -35.5q83 0 98 70h136zM411 319q0 54 -26.5 84t-82.5 30q-28 0 -49 -9t-35.5 -24.5
t-22.5 -36t-9 -44.5h225zM248 746q0 -38 17 -53t40 -15q22 0 39 15t17 53h100q0 -78 -42.5 -116.5t-113.5 -38.5q-72 0 -113.5 38.5t-41.5 116.5h98z" />
    <glyph glyph-name="Edotaccent" unicode="&#x116;" horiz-adv-x="604" 
d="M73 714h487v-127h-338v-156h318v-128h-318v-176h359l-15 -127h-493v714zM252 914h140v-135h-140v135z" />
    <glyph glyph-name="edotaccent" unicode="&#x117;" horiz-adv-x="589" 
d="M540 163q-14 -88 -70.5 -133.5t-164.5 -45.5q-130 0 -195.5 72t-65.5 204q0 66 19 117.5t53.5 87.5t82.5 54.5t106 18.5q120 0 180.5 -69t60.5 -186v-56h-362q2 -63 32 -98.5t90 -35.5q83 0 98 70h136zM411 319q0 54 -26.5 84t-82.5 30q-28 0 -49 -9t-35.5 -24.5
t-22.5 -36t-9 -44.5h225zM239 734h132v-127h-132v127z" />
    <glyph glyph-name="Eogonek" unicode="&#x118;" horiz-adv-x="604" 
d="M73 714h487v-127h-338v-156h318v-128h-318v-176h359l-15 -127q-32 -18 -53 -38.5t-21 -42.5q0 -20 11.5 -26.5t24.5 -6.5q10 0 17 0.5t18 2.5v-87q-15 -2 -30 -2.5t-38 -0.5q-35 0 -58.5 7.5t-37.5 19.5t-19.5 28t-5.5 33q0 33 21 60t60 53h-382v714z" />
    <glyph glyph-name="eogonek" unicode="&#x119;" horiz-adv-x="589" 
d="M410 -192q-14 -2 -28.5 -2.5t-35.5 -0.5q-34 0 -56 7t-35 19t-18.5 27.5t-5.5 32.5q0 27 14 49.5t41 44.5q-121 5 -181.5 76t-60.5 199q0 66 19 117.5t53.5 87.5t82.5 54.5t106 18.5q120 0 180.5 -69t60.5 -186v-56h-362q2 -63 32 -98.5t90 -35.5q83 0 98 70h136
q-11 -63 -42 -104t-86 -59q-30 -17 -49.5 -36.5t-19.5 -41.5q0 -20 11 -26t23 -6q10 0 17 0.5t16 1.5v-84zM411 319q0 54 -26.5 84t-82.5 30q-28 0 -49 -9t-35.5 -24.5t-22.5 -36t-9 -44.5h225z" />
    <glyph glyph-name="Ecaron" unicode="&#x11a;" horiz-adv-x="604" 
d="M73 714h487v-127h-338v-156h318v-128h-318v-176h359l-15 -127h-493v714zM130 921h120l72 -73l71 73h120l-121 -145h-141z" />
    <glyph glyph-name="ecaron" unicode="&#x11b;" horiz-adv-x="589" 
d="M540 163q-14 -88 -70.5 -133.5t-164.5 -45.5q-130 0 -195.5 72t-65.5 204q0 66 19 117.5t53.5 87.5t82.5 54.5t106 18.5q120 0 180.5 -69t60.5 -186v-56h-362q2 -63 32 -98.5t90 -35.5q83 0 98 70h136zM411 319q0 54 -26.5 84t-82.5 30q-28 0 -49 -9t-35.5 -24.5
t-22.5 -36t-9 -44.5h225zM375 594h-141l-120 155h120l71 -83l70 83h120z" />
    <glyph glyph-name="Gcircumflex" unicode="&#x11c;" horiz-adv-x="726" 
d="M402 391h274v-302q-55 -51 -131 -79t-157 -28q-85 0 -148.5 27t-105.5 76t-63 118.5t-21 153.5q0 87 23 156t65.5 118t103.5 75t136 26q69 0 118.5 -17t84 -47t55 -70t29.5 -86l-148 -19q-6 27 -14.5 47.5t-24.5 35t-40 22t-60 7.5q-87 0 -130 -65t-43 -183
q0 -119 43.5 -183.5t141.5 -64.5q47 0 81.5 9.5t66.5 29.5v119h-136v124zM312 917h141l121 -145h-120l-72 72l-71 -72h-120z" />
    <glyph glyph-name="gcircumflex" unicode="&#x11d;" horiz-adv-x="623" 
d="M208 -33q4 -20 11.5 -32t20 -19t30 -9.5t42.5 -2.5q39 0 61 14.5t32.5 38.5t13 55t2.5 64v16q-26 -38 -66.5 -57.5t-91.5 -19.5q-110 0 -164.5 71t-54.5 191q0 57 15.5 105t44.5 82.5t71.5 54t95.5 19.5q42 0 81.5 -16t72.5 -59v59h136v-449q0 -66 -13.5 -117.5
t-43 -87.5t-77 -54.5t-115.5 -18.5q-63 0 -107.5 10.5t-73.5 32t-44.5 54t-20.5 75.5h142zM422 279q0 47 -10.5 76t-27.5 44.5t-38 20.5t-42 5q-23 0 -43.5 -8t-36 -26t-24.5 -46t-9 -67q0 -83 31.5 -117.5t78.5 -34.5q26 0 48.5 7.5t38.5 24t25 43t9 64.5v14zM250 749h141
l120 -155h-120l-71 83l-70 -83h-120z" />
    <glyph glyph-name="Gbreve" unicode="&#x11e;" horiz-adv-x="726" 
d="M402 391h274v-302q-55 -51 -131 -79t-157 -28q-85 0 -148.5 27t-105.5 76t-63 118.5t-21 153.5q0 87 23 156t65.5 118t103.5 75t136 26q69 0 118.5 -17t84 -47t55 -70t29.5 -86l-148 -19q-6 27 -14.5 47.5t-24.5 35t-40 22t-60 7.5q-87 0 -130 -65t-43 -183
q0 -119 43.5 -183.5t141.5 -64.5q47 0 81.5 9.5t66.5 29.5v119h-136v124zM324 927q0 -38 18 -53.5t41 -15.5t40.5 15.5t17.5 53.5h103q0 -78 -44 -116.5t-117 -38.5q-74 0 -117.5 38.5t-43.5 116.5h102z" />
    <glyph glyph-name="gbreve" unicode="&#x11f;" horiz-adv-x="623" 
d="M208 -33q4 -20 11.5 -32t20 -19t30 -9.5t42.5 -2.5q39 0 61 14.5t32.5 38.5t13 55t2.5 64v16q-26 -38 -66.5 -57.5t-91.5 -19.5q-110 0 -164.5 71t-54.5 191q0 57 15.5 105t44.5 82.5t71.5 54t95.5 19.5q42 0 81.5 -16t72.5 -59v59h136v-449q0 -66 -13.5 -117.5
t-43 -87.5t-77 -54.5t-115.5 -18.5q-63 0 -107.5 10.5t-73.5 32t-44.5 54t-20.5 75.5h142zM422 279q0 47 -10.5 76t-27.5 44.5t-38 20.5t-42 5q-23 0 -43.5 -8t-36 -26t-24.5 -46t-9 -67q0 -83 31.5 -117.5t78.5 -34.5q26 0 48.5 7.5t38.5 24t25 43t9 64.5v14zM264 746
q0 -38 17 -53t40 -15q22 0 39 15t17 53h100q0 -78 -42.5 -116.5t-113.5 -38.5q-72 0 -113.5 38.5t-41.5 116.5h98z" />
    <glyph glyph-name="Gdotaccent" unicode="&#x120;" horiz-adv-x="726" 
d="M402 391h274v-302q-55 -51 -131 -79t-157 -28q-85 0 -148.5 27t-105.5 76t-63 118.5t-21 153.5q0 87 23 156t65.5 118t103.5 75t136 26q69 0 118.5 -17t84 -47t55 -70t29.5 -86l-148 -19q-6 27 -14.5 47.5t-24.5 35t-40 22t-60 7.5q-87 0 -130 -65t-43 -183
q0 -119 43.5 -183.5t141.5 -64.5q47 0 81.5 9.5t66.5 29.5v119h-136v124zM313 914h140v-135h-140v135z" />
    <glyph glyph-name="gdotaccent" unicode="&#x121;" horiz-adv-x="623" 
d="M208 -33q4 -20 11.5 -32t20 -19t30 -9.5t42.5 -2.5q39 0 61 14.5t32.5 38.5t13 55t2.5 64v16q-26 -38 -66.5 -57.5t-91.5 -19.5q-110 0 -164.5 71t-54.5 191q0 57 15.5 105t44.5 82.5t71.5 54t95.5 19.5q42 0 81.5 -16t72.5 -59v59h136v-449q0 -66 -13.5 -117.5
t-43 -87.5t-77 -54.5t-115.5 -18.5q-63 0 -107.5 10.5t-73.5 32t-44.5 54t-20.5 75.5h142zM422 279q0 47 -10.5 76t-27.5 44.5t-38 20.5t-42 5q-23 0 -43.5 -8t-36 -26t-24.5 -46t-9 -67q0 -83 31.5 -117.5t78.5 -34.5q26 0 48.5 7.5t38.5 24t25 43t9 64.5v14zM245 734h132
v-127h-132v127z" />
    <glyph glyph-name="Gcommaaccent" unicode="&#x122;" horiz-adv-x="726" 
d="M402 391h274v-302q-55 -51 -131 -79t-157 -28q-85 0 -148.5 27t-105.5 76t-63 118.5t-21 153.5q0 87 23 156t65.5 118t103.5 75t136 26q69 0 118.5 -17t84 -47t55 -70t29.5 -86l-148 -19q-6 27 -14.5 47.5t-24.5 35t-40 22t-60 7.5q-87 0 -130 -65t-43 -183
q0 -119 43.5 -183.5t141.5 -64.5q47 0 81.5 9.5t66.5 29.5v119h-136v124zM314 -66h155l-110 -161h-126z" />
    <glyph glyph-name="gcommaaccent" unicode="&#x123;" horiz-adv-x="623" 
d="M208 -33q4 -20 11.5 -32t20 -19t30 -9.5t42.5 -2.5q39 0 61 14.5t32.5 38.5t13 55t2.5 64v16q-26 -38 -66.5 -57.5t-91.5 -19.5q-110 0 -164.5 71t-54.5 191q0 57 15.5 105t44.5 82.5t71.5 54t95.5 19.5q42 0 81.5 -16t72.5 -59v59h136v-449q0 -66 -13.5 -117.5
t-43 -87.5t-77 -54.5t-115.5 -18.5q-63 0 -107.5 10.5t-73.5 32t-44.5 54t-20.5 75.5h142zM422 279q0 47 -10.5 76t-27.5 44.5t-38 20.5t-42 5q-23 0 -43.5 -8t-36 -26t-24.5 -46t-9 -67q0 -83 31.5 -117.5t78.5 -34.5q26 0 48.5 7.5t38.5 24t25 43t9 64.5v14zM332 749h121
l-78 -155h-148z" />
    <glyph glyph-name="Hcircumflex" unicode="&#x124;" horiz-adv-x="727" 
d="M73 714h149v-276h283v276h149v-714h-149v300h-283v-300h-149v714zM293 917h141l121 -145h-120l-72 72l-71 -72h-120z" />
    <glyph glyph-name="hcircumflex" unicode="&#x125;" 
d="M62 714h140v-258q31 42 72 62t86 20q89 0 132 -46.5t43 -146.5v-345h-140v326q0 55 -21 75t-56 20q-27 0 -46.5 -8t-36.5 -23q-14 -14 -23.5 -33.5t-9.5 -42.5v-314h-140v714zM191 917h141l121 -145h-120l-72 72l-71 -72h-120z" />
    <glyph glyph-name="Hbar" unicode="&#x126;" horiz-adv-x="763" 
d="M91 514h-81v113h81v87h149v-87h283v87h150v-87h80v-113h-80v-514h-150v285h-283v-285h-149v514zM523 423v91h-283v-91h283z" />
    <glyph glyph-name="hbar" unicode="&#x127;" horiz-adv-x="596" 
d="M66 560h-66v86h66v68h140v-68h158v-86h-158v-135q31 43 72 63t86 20q89 0 132 -47t43 -146v-315h-140v296q0 55 -21 75t-56 20q-27 0 -46.5 -8t-36.5 -23q-14 -15 -23.5 -34t-9.5 -42v-284h-140v560z" />
    <glyph glyph-name="Itilde" unicode="&#x128;" horiz-adv-x="295" 
d="M73 714h149v-714h-149v714zM-48 773q0 75 33.5 108.5t90.5 33.5q21 0 38.5 -7t33 -15l30 -15t28.5 -7q19 0 29.5 8t10.5 32h99q0 -75 -33 -108t-90 -33q-21 0 -39 7t-33 15.5t-29 15.5t-28 7q-20 0 -31 -8.5t-11 -33.5h-99z" />
    <glyph glyph-name="itilde" unicode="&#x129;" horiz-adv-x="266" 
d="M63 522h140v-522h-140v522zM-58 602q0 75 32 108.5t87 33.5q19 0 37 -7t33.5 -15l30 -15t28.5 -7q18 0 28.5 8t10.5 32h94q0 -75 -32 -108t-86 -33q-20 0 -37.5 7t-33.5 15.5l-30 15.5t-27 7q-19 0 -30 -8.5t-11 -33.5h-94z" />
    <glyph glyph-name="Imacron" unicode="&#x12a;" horiz-adv-x="295" 
d="M73 714h149v-714h-149v714zM-6 901h310v-111h-310v111z" />
    <glyph glyph-name="imacron" unicode="&#x12b;" horiz-adv-x="266" 
d="M63 522h140v-522h-140v522zM-13 719h292v-107h-292v107z" />
    <glyph glyph-name="Ibreve" unicode="&#x12c;" horiz-adv-x="295" 
d="M73 714h149v-714h-149v714zM90 927q0 -38 18 -53.5t41 -15.5t40.5 15.5t17.5 53.5h103q0 -78 -44 -116.5t-117 -38.5q-74 0 -117.5 38.5t-43.5 116.5h102z" />
    <glyph glyph-name="ibreve" unicode="&#x12d;" horiz-adv-x="266" 
d="M63 522h140v-522h-140v522zM76 746q0 -38 17 -53t40 -15q22 0 39 15t17 53h100q0 -78 -42.5 -116.5t-113.5 -38.5q-72 0 -113.5 38.5t-41.5 116.5h98z" />
    <glyph glyph-name="Iogonek" unicode="&#x12e;" horiz-adv-x="295" 
d="M73 714h149v-714q-32 -18 -53 -38.5t-21 -42.5q0 -20 11.5 -26.5t24.5 -6.5q10 0 17 0.5t18 2.5v-87q-15 -2 -30 -2.5t-38 -0.5q-35 0 -58.5 7.5t-37.5 19.5t-19.5 28t-5.5 33q0 33 21 60t60 53h-38v714z" />
    <glyph glyph-name="iogonek" unicode="&#x12f;" horiz-adv-x="266" 
d="M63 522h140v-522q-30 -17 -50 -36.5t-20 -41.5q0 -20 11 -26t23 -6q10 0 17 0.5t16 1.5v-84q-14 -2 -28.5 -2.5t-35.5 -0.5q-34 0 -56 7t-35 19t-18.5 27.5t-5.5 32.5q0 32 19.5 58t56.5 51h-34v522zM61 714h144v-126h-144v126z" />
    <glyph glyph-name="Idotaccent" unicode="&#x130;" horiz-adv-x="295" 
d="M73 714h149v-714h-149v714zM79 914h140v-135h-140v135z" />
    <glyph glyph-name="dotlessi" unicode="&#x131;" horiz-adv-x="266" 
d="M63 522h140v-522h-140v522z" />
    <glyph glyph-name="IJ" unicode="&#x132;" horiz-adv-x="934" 
d="M73 714h149v-714h-149v714zM477 246q3 -32 10 -57.5t21.5 -43t37 -26.5t56.5 -9q62 0 90 37.5t28 106.5v460h149v-469q0 -65 -19 -114.5t-53.5 -82.5t-83.5 -49.5t-109 -16.5q-132 0 -201 64t-75 200h149z" />
    <glyph glyph-name="ij" unicode="&#x133;" horiz-adv-x="532" 
d="M63 522h140v-522h-140v522zM61 714h144v-126h-144v126zM327 714h144v-126h-144v126zM210 -63q32 -8 59 -8t43.5 12.5t16.5 53.5v527h140v-524q0 -96 -43.5 -139.5t-128.5 -43.5q-25 0 -51.5 4t-55.5 13z" />
    <glyph glyph-name="Jcircumflex" unicode="&#x134;" horiz-adv-x="636" 
d="M179 246q3 -32 10 -57.5t21.5 -43t37 -26.5t56.5 -9q62 0 90 37.5t28 106.5v460h149v-469q0 -65 -19 -114.5t-53.5 -82.5t-83.5 -49.5t-109 -16.5q-132 0 -201 64t-75 200h149zM426 917h141l121 -145h-120l-72 72l-71 -72h-120z" />
    <glyph glyph-name="jcircumflex" unicode="&#x135;" horiz-adv-x="266" 
d="M-56 -63q32 -8 59 -8t43.5 12.5t16.5 53.5v527h140v-524q0 -96 -43.5 -139.5t-128.5 -43.5q-25 0 -51.5 4t-55.5 13zM62 749h141l120 -155h-120l-71 83l-70 -83h-120z" />
    <glyph glyph-name="Kcommaaccent" unicode="&#x136;" horiz-adv-x="675" 
d="M73 714h150v-286l263 286h163l-237 -268l263 -446h-166l-201 349l-85 -87v-262h-150v714zM283 -66h155l-110 -161h-126z" />
    <glyph glyph-name="kcommaaccent" unicode="&#x137;" horiz-adv-x="577" 
d="M62 714h137v-374l201 182h162l-190 -180l205 -342h-151l-154 264l-73 -66v-198h-137v714zM235 -66h148l-105 -155h-121z" />
    <glyph glyph-name="kgreenlandic" unicode="&#x138;" horiz-adv-x="577" 
d="M62 522h137v-204l203 204h160l-187 -193l202 -329h-151l-148 248l-79 -76v-172h-137v522z" />
    <glyph glyph-name="Lacute" unicode="&#x139;" horiz-adv-x="584" 
d="M73 714h149v-586h338l-16 -128h-471v714zM190 917h162l-159 -145h-131z" />
    <glyph glyph-name="lacute" unicode="&#x13a;" horiz-adv-x="266" 
d="M63 714h140v-714h-140v714zM177 917h162l-159 -145h-131z" />
    <glyph glyph-name="Lcommaaccent" unicode="&#x13b;" horiz-adv-x="584" 
d="M73 714h149v-586h338l-16 -128h-471v714zM242 -66h155l-110 -161h-126z" />
    <glyph glyph-name="lcommaaccent" unicode="&#x13c;" horiz-adv-x="266" 
d="M63 714h140v-714h-140v714zM61 -66h148l-105 -155h-121z" />
    <glyph glyph-name="Lcaron" unicode="&#x13d;" horiz-adv-x="584" 
d="M73 714h149v-586h338l-16 -128h-471v714zM376 714h131l-60 -244h-103z" />
    <glyph glyph-name="lcaron" unicode="&#x13e;" horiz-adv-x="266" 
d="M63 714h140v-714h-140v714zM299 714h131l-60 -244h-103z" />
    <glyph glyph-name="Ldot" unicode="&#x13f;" horiz-adv-x="584" 
d="M73 714h149v-586h338l-16 -128h-471v714zM357 483h143v-161h-143v161z" />
    <glyph glyph-name="ldot" unicode="&#x140;" horiz-adv-x="436" 
d="M63 714h140v-714h-140v714zM283 453h143v-161h-143v161z" />
    <glyph glyph-name="Lslash" unicode="&#x141;" horiz-adv-x="602" 
d="M91 222l-81 -54v130l81 54v362h149v-263l161 108v-129l-161 -108v-194h338l-16 -128h-471v222z" />
    <glyph glyph-name="lslash" unicode="&#x142;" horiz-adv-x="321" 
d="M91 292l-91 -55v114l91 54v309h140v-228l90 54v-113l-90 -55v-372h-140v292z" />
    <glyph glyph-name="Nacute" unicode="&#x143;" horiz-adv-x="719" 
d="M73 714h134l294 -468v468h145v-714h-133l-295 464v-464h-145v714zM383 917h162l-159 -145h-131z" />
    <glyph glyph-name="nacute" unicode="&#x144;" 
d="M62 522h136v-72q31 46 73.5 67t88.5 21q89 0 132 -46.5t43 -146.5v-345h-140v326q0 55 -21 75t-56 20q-27 0 -46.5 -8t-36.5 -23q-14 -14 -23.5 -33.5t-9.5 -42.5v-314h-140v522zM312 749h159l-150 -155h-129z" />
    <glyph glyph-name="Ncommaaccent" unicode="&#x145;" horiz-adv-x="719" 
d="M73 714h134l294 -468v468h145v-714h-133l-295 464v-464h-145v714zM300 -66h155l-110 -161h-126z" />
    <glyph glyph-name="ncommaaccent" unicode="&#x146;" 
d="M62 522h136v-72q31 46 73.5 67t88.5 21q89 0 132 -46.5t43 -146.5v-345h-140v326q0 55 -21 75t-56 20q-27 0 -46.5 -8t-36.5 -23q-14 -14 -23.5 -33.5t-9.5 -42.5v-314h-140v522zM234 -66h148l-105 -155h-121z" />
    <glyph glyph-name="Ncaron" unicode="&#x147;" horiz-adv-x="719" 
d="M73 714h134l294 -468v468h145v-714h-133l-295 464v-464h-145v714zM158 921h120l72 -73l71 73h120l-121 -145h-141z" />
    <glyph glyph-name="ncaron" unicode="&#x148;" 
d="M62 522h136v-72q31 46 73.5 67t88.5 21q89 0 132 -46.5t43 -146.5v-345h-140v326q0 55 -21 75t-56 20q-27 0 -46.5 -8t-36.5 -23q-14 -14 -23.5 -33.5t-9.5 -42.5v-314h-140v522zM366 594h-141l-120 155h120l71 -83l70 83h120z" />
    <glyph glyph-name="napostrophe" unicode="&#x149;" horiz-adv-x="710" 
d="M180 522h136v-72q31 46 73.5 67t88.5 21q89 0 132 -46.5t43 -146.5v-345h-140v326q0 55 -21 75t-56 20q-27 0 -46.5 -8t-36.5 -23q-14 -14 -23.5 -33.5t-9.5 -42.5v-314h-140v522zM34 714h136l-62 -254h-107z" />
    <glyph glyph-name="Eng" unicode="&#x14a;" horiz-adv-x="719" 
d="M73 714h134l294 -468v468h145v-679q0 -68 -19 -114t-52.5 -74t-79 -40t-98.5 -12q-32 0 -64.5 3.5t-62.5 14.5l30 123q20 -6 41 -9.5t50 -3.5q22 0 41 5t32.5 17.5t21.5 33t8 51.5l-276 434v-464h-145v714z" />
    <glyph glyph-name="eng" unicode="&#x14b;" 
d="M62 522h136v-72q31 46 73.5 67t88.5 21q89 0 132 -46.5t43 -146.5v-351q0 -94 -44 -136.5t-127 -42.5q-26 0 -52 4t-55 13l20 105q30 -8 58 -8t44 13t16 53v331q0 55 -21 75t-56 20q-24 0 -45 -8t-37 -22.5t-25 -34t-9 -42.5v-314h-140v522z" />
    <glyph glyph-name="Omacron" unicode="&#x14c;" horiz-adv-x="780" 
d="M391 -18q-80 0 -143 26t-107 75t-67.5 118t-23.5 156t23.5 156t68 118t107.5 75t142 26q80 0 143 -26t106.5 -75t66.5 -118t23 -156t-22.5 -156t-66 -118t-106.5 -75t-144 -26zM390 110q94 0 140 64t46 183q0 118 -46 182.5t-140 64.5t-140 -64.5t-46 -182.5
q0 -119 46 -183t140 -64zM235 901h310v-111h-310v111z" />
    <glyph glyph-name="omacron" unicode="&#x14d;" horiz-adv-x="616" 
d="M308 -16q-126 0 -195 72t-69 206q0 64 18.5 115.5t53 87t83.5 54.5t109 19q61 0 110 -19t83.5 -54.5t52.5 -87t18 -115.5q0 -65 -18.5 -116.5t-53 -87.5t-83.5 -55t-109 -19zM308 96q60 0 89.5 43t29.5 123t-29.5 122t-89.5 42t-89.5 -42t-29.5 -122q0 -81 29 -123.5
t90 -42.5zM162 719h292v-107h-292v107z" />
    <glyph glyph-name="Obreve" unicode="&#x14e;" horiz-adv-x="780" 
d="M391 -18q-80 0 -143 26t-107 75t-67.5 118t-23.5 156t23.5 156t68 118t107.5 75t142 26q80 0 143 -26t106.5 -75t66.5 -118t23 -156t-22.5 -156t-66 -118t-106.5 -75t-144 -26zM390 110q94 0 140 64t46 183q0 118 -46 182.5t-140 64.5t-140 -64.5t-46 -182.5
q0 -119 46 -183t140 -64zM331 927q0 -38 18 -53.5t41 -15.5t40.5 15.5t17.5 53.5h103q0 -78 -44 -116.5t-117 -38.5q-74 0 -117.5 38.5t-43.5 116.5h102z" />
    <glyph glyph-name="obreve" unicode="&#x14f;" horiz-adv-x="616" 
d="M308 -16q-126 0 -195 72t-69 206q0 64 18.5 115.5t53 87t83.5 54.5t109 19q61 0 110 -19t83.5 -54.5t52.5 -87t18 -115.5q0 -65 -18.5 -116.5t-53 -87.5t-83.5 -55t-109 -19zM308 96q60 0 89.5 43t29.5 123t-29.5 122t-89.5 42t-89.5 -42t-29.5 -122q0 -81 29 -123.5
t90 -42.5zM251 746q0 -38 17 -53t40 -15q22 0 39 15t17 53h100q0 -78 -42.5 -116.5t-113.5 -38.5q-72 0 -113.5 38.5t-41.5 116.5h98z" />
    <glyph glyph-name="Ohungarumlaut" unicode="&#x150;" horiz-adv-x="780" 
d="M391 -18q-80 0 -143 26t-107 75t-67.5 118t-23.5 156t23.5 156t68 118t107.5 75t142 26q80 0 143 -26t106.5 -75t66.5 -118t23 -156t-22.5 -156t-66 -118t-106.5 -75t-144 -26zM390 110q94 0 140 64t46 183q0 118 -46 182.5t-140 64.5t-140 -64.5t-46 -182.5
q0 -119 46 -183t140 -64zM551 917h154l-156 -145h-123zM339 917h154l-156 -145h-123z" />
    <glyph glyph-name="ohungarumlaut" unicode="&#x151;" horiz-adv-x="616" 
d="M308 -16q-126 0 -195 72t-69 206q0 64 18.5 115.5t53 87t83.5 54.5t109 19q61 0 110 -19t83.5 -54.5t52.5 -87t18 -115.5q0 -65 -18.5 -116.5t-53 -87.5t-83.5 -55t-109 -19zM308 96q60 0 89.5 43t29.5 123t-29.5 122t-89.5 42t-89.5 -42t-29.5 -122q0 -81 29 -123.5
t90 -42.5zM242 749h144l-133 -155h-114zM439 749h144l-133 -155h-114z" />
    <glyph glyph-name="OE" unicode="&#x152;" horiz-adv-x="1062" 
d="M557 66q-14 -18 -31.5 -33t-40 -26.5t-50.5 -18t-64 -6.5q-72 0 -131.5 26t-101.5 75t-65 118t-23 156t23.5 156t66 118t101.5 75t130 26q66 0 109.5 -22.5t76.5 -63.5v68h461v-127h-317v-156h297v-128h-297v-176h338l-15 -127h-467v66zM557 368q-3 112 -44 174t-132 62
q-86 0 -131 -64.5t-45 -182.5q0 -119 45 -183t131 -64q91 0 132 60.5t44 173.5v24z" />
    <glyph glyph-name="oe" unicode="&#x153;" horiz-adv-x="960" 
d="M911 163q-14 -88 -70 -133.5t-162 -45.5q-70 0 -114.5 25.5t-76.5 74.5q-33 -49 -75.5 -74.5t-107.5 -25.5q-124 0 -192.5 72t-68.5 206q0 64 18.5 115.5t52.5 87t82.5 54.5t107.5 19q68 0 111.5 -25.5t74.5 -76.5q34 51 78.5 76.5t109.5 25.5q117 0 177.5 -69t60.5 -186
v-56h-356q2 -63 31.5 -98.5t87.5 -35.5q38 0 62.5 17t32.5 53h136zM421 262q0 80 -28 122t-88 42q-57 0 -86.5 -42t-29.5 -122q0 -81 28.5 -123.5t87.5 -42.5q57 0 86 42.5t30 121.5v2zM782 319q0 54 -26.5 84t-79.5 30q-54 0 -82 -33t-31 -81h219z" />
    <glyph glyph-name="Racute" unicode="&#x154;" horiz-adv-x="653" 
d="M73 714h253q84 0 138.5 -19.5t85.5 -51t43 -70t12 -75.5q0 -69 -25 -116t-84 -79l145 -303h-161l-120 268h-140v-268h-147v714zM336 392q35 0 58 7.5t36.5 21t18.5 32.5t5 42q0 19 -6 36.5t-20.5 31t-40 21t-64.5 7.5h-103v-199h116zM330 917h162l-159 -145h-131z" />
    <glyph glyph-name="racute" unicode="&#x155;" horiz-adv-x="419" 
d="M62 522h136v-73q26 41 63 61.5t78 20.5q20 0 33 -1.5t23 -3.5l-17 -127q-24 6 -59 6q-23 0 -44 -5.5t-38 -20.5q-18 -16 -26.5 -36t-8.5 -41v-302h-140v522zM260 749h159l-150 -155h-129z" />
    <glyph glyph-name="Rcommaaccent" unicode="&#x156;" horiz-adv-x="653" 
d="M73 714h253q84 0 138.5 -19.5t85.5 -51t43 -70t12 -75.5q0 -69 -25 -116t-84 -79l145 -303h-161l-120 268h-140v-268h-147v714zM336 392q35 0 58 7.5t36.5 21t18.5 32.5t5 42q0 19 -6 36.5t-20.5 31t-40 21t-64.5 7.5h-103v-199h116zM270 -66h155l-110 -161h-126z" />
    <glyph glyph-name="rcommaaccent" unicode="&#x157;" horiz-adv-x="419" 
d="M62 522h136v-73q26 41 63 61.5t78 20.5q20 0 33 -1.5t23 -3.5l-17 -127q-24 6 -59 6q-23 0 -44 -5.5t-38 -20.5q-18 -16 -26.5 -36t-8.5 -41v-302h-140v522zM65 -66h148l-105 -155h-121z" />
    <glyph glyph-name="Rcaron" unicode="&#x158;" horiz-adv-x="653" 
d="M73 714h253q84 0 138.5 -19.5t85.5 -51t43 -70t12 -75.5q0 -69 -25 -116t-84 -79l145 -303h-161l-120 268h-140v-268h-147v714zM336 392q35 0 58 7.5t36.5 21t18.5 32.5t5 42q0 19 -6 36.5t-20.5 31t-40 21t-64.5 7.5h-103v-199h116zM113 921h120l72 -73l71 73h120
l-121 -145h-141z" />
    <glyph glyph-name="rcaron" unicode="&#x159;" horiz-adv-x="419" 
d="M62 522h136v-73q26 41 63 61.5t78 20.5q20 0 33 -1.5t23 -3.5l-17 -127q-24 6 -59 6q-23 0 -44 -5.5t-38 -20.5q-18 -16 -26.5 -36t-8.5 -41v-302h-140v522zM289 594h-141l-120 155h120l71 -83l70 83h120z" />
    <glyph glyph-name="Sacute" unicode="&#x15a;" horiz-adv-x="645" 
d="M179 233q5 -66 42.5 -96t110.5 -30q35 0 59 7.5t39 20t21.5 29.5t6.5 37q0 28 -21 52.5t-77 35.5l-93 17q-55 10 -97 26t-70.5 41.5t-43.5 62.5t-15 88t20.5 90t57 65t87.5 39.5t112 13.5q78 0 130 -18t84 -47.5t47.5 -68.5t20.5 -81l-141 -18q-11 59 -42.5 85t-95.5 26
q-38 0 -62.5 -6.5t-39.5 -17t-21 -24.5t-6 -29q0 -40 22.5 -60t76.5 -31l98 -19q116 -23 170 -74.5t54 -148.5q0 -47 -17.5 -86.5t-52 -69t-86.5 -46t-122 -16.5q-146 0 -223.5 62.5t-83.5 188.5h151zM343 917h162l-159 -145h-131z" />
    <glyph glyph-name="sacute" unicode="&#x15b;" horiz-adv-x="537" 
d="M163 166q7 -46 37 -60t72 -14q50 0 71.5 12.5t21.5 40.5q0 20 -13.5 35t-51.5 21l-72 12q-95 15 -141.5 51.5t-46.5 110.5q0 38 16.5 68t46.5 51t71.5 32.5t91.5 11.5q62 0 104 -12.5t68.5 -33.5t40 -50t19.5 -62l-125 -16q-9 36 -31.5 53t-72.5 17q-28 0 -46.5 -4.5
t-29 -11.5t-15 -16t-4.5 -17q0 -25 15.5 -36.5t60.5 -19.5l66 -11q55 -9 91 -23t57.5 -34.5t30 -48.5t8.5 -65q0 -74 -56 -118.5t-173 -44.5q-47 0 -89.5 8.5t-76 29.5t-55 56t-24.5 88h134zM298 749h159l-150 -155h-129z" />
    <glyph glyph-name="Scircumflex" unicode="&#x15c;" horiz-adv-x="645" 
d="M179 233q5 -66 42.5 -96t110.5 -30q35 0 59 7.5t39 20t21.5 29.5t6.5 37q0 28 -21 52.5t-77 35.5l-93 17q-55 10 -97 26t-70.5 41.5t-43.5 62.5t-15 88t20.5 90t57 65t87.5 39.5t112 13.5q78 0 130 -18t84 -47.5t47.5 -68.5t20.5 -81l-141 -18q-11 59 -42.5 85t-95.5 26
q-38 0 -62.5 -6.5t-39.5 -17t-21 -24.5t-6 -29q0 -40 22.5 -60t76.5 -31l98 -19q116 -23 170 -74.5t54 -148.5q0 -47 -17.5 -86.5t-52 -69t-86.5 -46t-122 -16.5q-146 0 -223.5 62.5t-83.5 188.5h151zM251 917h141l121 -145h-120l-72 72l-71 -72h-120z" />
    <glyph glyph-name="scircumflex" unicode="&#x15d;" horiz-adv-x="537" 
d="M163 166q7 -46 37 -60t72 -14q50 0 71.5 12.5t21.5 40.5q0 20 -13.5 35t-51.5 21l-72 12q-95 15 -141.5 51.5t-46.5 110.5q0 38 16.5 68t46.5 51t71.5 32.5t91.5 11.5q62 0 104 -12.5t68.5 -33.5t40 -50t19.5 -62l-125 -16q-9 36 -31.5 53t-72.5 17q-28 0 -46.5 -4.5
t-29 -11.5t-15 -16t-4.5 -17q0 -25 15.5 -36.5t60.5 -19.5l66 -11q55 -9 91 -23t57.5 -34.5t30 -48.5t8.5 -65q0 -74 -56 -118.5t-173 -44.5q-47 0 -89.5 8.5t-76 29.5t-55 56t-24.5 88h134zM198 749h141l120 -155h-120l-71 83l-70 -83h-120z" />
    <glyph glyph-name="Scedilla" unicode="&#x15e;" horiz-adv-x="645" 
d="M212 -147q27 -5 44 -6t30 -1q25 0 35.5 8t10.5 22t-12.5 21t-45.5 7h-37l32 82q-230 26 -241 247h151q5 -66 42.5 -96t110.5 -30q35 0 59 7.5t39 20t21.5 29.5t6.5 37q0 28 -21 52.5t-77 35.5l-93 17q-55 10 -97 26t-70.5 41.5t-43.5 62.5t-15 88t20.5 90t57 65
t87.5 39.5t112 13.5q78 0 130 -18t84 -47.5t47.5 -68.5t20.5 -81l-141 -18q-11 59 -42.5 85t-95.5 26q-38 0 -62.5 -6.5t-39.5 -17t-21 -24.5t-6 -29q0 -40 22.5 -60t76.5 -31l98 -19q116 -23 170 -74.5t54 -148.5q0 -46 -16.5 -85t-49.5 -68t-83 -46.5t-117 -18.5l-12 -33
q29 -3 47.5 -11.5t29.5 -20t15 -25t4 -28.5q0 -47 -39 -67t-105 -20q-14 0 -31.5 1t-43.5 5v70z" />
    <glyph glyph-name="scedilla" unicode="&#x15f;" horiz-adv-x="537" 
d="M163 -142q26 -4 42.5 -5t29.5 -1q44 0 44 28q0 14 -12 21t-44 7h-36l31 79q-38 4 -71 16t-58.5 33t-41 53t-18.5 77h134q7 -46 37 -60t72 -14q50 0 71.5 12.5t21.5 40.5q0 20 -13.5 35t-51.5 21l-72 12q-95 15 -141.5 51.5t-46.5 110.5q0 38 16.5 68t46.5 51t71.5 32.5
t91.5 11.5q62 0 104 -12.5t68.5 -33.5t40 -50t19.5 -62l-125 -16q-9 36 -31.5 53t-72.5 17q-28 0 -46.5 -4.5t-29 -11.5t-15 -16t-4.5 -17q0 -25 15.5 -36.5t60.5 -19.5l66 -11q55 -9 91 -23t57.5 -34.5t30 -48.5t8.5 -65q0 -71 -51.5 -114.5t-157.5 -47.5l-11 -32
q27 -4 45 -12t28 -19.5t14 -25t4 -27.5q0 -46 -37.5 -66t-100.5 -20q-14 0 -31.5 1t-41.5 5v69z" />
    <glyph glyph-name="Scaron" unicode="&#x160;" horiz-adv-x="645" 
d="M179 233q5 -66 42.5 -96t110.5 -30q35 0 59 7.5t39 20t21.5 29.5t6.5 37q0 28 -21 52.5t-77 35.5l-93 17q-55 10 -97 26t-70.5 41.5t-43.5 62.5t-15 88t20.5 90t57 65t87.5 39.5t112 13.5q78 0 130 -18t84 -47.5t47.5 -68.5t20.5 -81l-141 -18q-11 59 -42.5 85t-95.5 26
q-38 0 -62.5 -6.5t-39.5 -17t-21 -24.5t-6 -29q0 -40 22.5 -60t76.5 -31l98 -19q116 -23 170 -74.5t54 -148.5q0 -47 -17.5 -86.5t-52 -69t-86.5 -46t-122 -16.5q-146 0 -223.5 62.5t-83.5 188.5h151zM132 921h120l72 -73l71 73h120l-121 -145h-141z" />
    <glyph glyph-name="scaron" unicode="&#x161;" horiz-adv-x="537" 
d="M163 166q7 -46 37 -60t72 -14q50 0 71.5 12.5t21.5 40.5q0 20 -13.5 35t-51.5 21l-72 12q-95 15 -141.5 51.5t-46.5 110.5q0 38 16.5 68t46.5 51t71.5 32.5t91.5 11.5q62 0 104 -12.5t68.5 -33.5t40 -50t19.5 -62l-125 -16q-9 36 -31.5 53t-72.5 17q-28 0 -46.5 -4.5
t-29 -11.5t-15 -16t-4.5 -17q0 -25 15.5 -36.5t60.5 -19.5l66 -11q55 -9 91 -23t57.5 -34.5t30 -48.5t8.5 -65q0 -74 -56 -118.5t-173 -44.5q-47 0 -89.5 8.5t-76 29.5t-55 56t-24.5 88h134zM339 594h-141l-120 155h120l71 -83l70 83h120z" />
    <glyph glyph-name="uni0162" unicode="&#x162;" horiz-adv-x="620" 
d="M235 585h-215v129h580v-129h-215v-585h-150v585zM236 -66h155l-110 -161h-126z" />
    <glyph glyph-name="uni0163" unicode="&#x163;" horiz-adv-x="379" 
d="M94 413h-82v109h82v139h140v-139h120v-109h-120v-241q0 -41 17 -55.5t44 -14.5q14 0 28.5 1.5t28.5 5.5l20 -103q-29 -9 -56.5 -12.5t-52.5 -3.5q-86 0 -127.5 41t-41.5 138v244zM165 -66h148l-105 -155h-121z" />
    <glyph glyph-name="Tcaron" unicode="&#x164;" horiz-adv-x="620" 
d="M235 585h-215v129h580v-129h-215v-585h-150v585zM118 921h120l72 -73l71 73h120l-121 -145h-141z" />
    <glyph glyph-name="tcaron" unicode="&#x165;" horiz-adv-x="379" 
d="M308 750h118l-54 -170h-92zM94 413h-82v109h82v139h140v-139h120v-109h-120v-241q0 -41 17 -55.5t44 -14.5q14 0 28.5 1.5t28.5 5.5l20 -103q-29 -9 -56.5 -12.5t-52.5 -3.5q-86 0 -127.5 41t-41.5 138v244z" />
    <glyph glyph-name="Tbar" unicode="&#x166;" horiz-adv-x="620" 
d="M235 277h-136v123h136v185h-215v129h580v-129h-215v-185h136v-123h-136v-277h-150v277z" />
    <glyph glyph-name="tbar" unicode="&#x167;" horiz-adv-x="379" 
d="M12 325h82v88h-82v109h82v139h140v-139h120v-109h-120v-88h120v-109h-120v-44q0 -41 17 -55.5t44 -14.5q14 0 28.5 1.5t28.5 5.5l20 -103q-29 -9 -56.5 -12.5t-52.5 -3.5q-86 0 -127.5 41t-41.5 138v47h-82v109z" />
    <glyph glyph-name="Utilde" unicode="&#x168;" horiz-adv-x="693" 
d="M59 714h149v-425q0 -91 32 -135t107 -44t106.5 44t31.5 135v425h149v-425q0 -81 -20 -139t-57 -95.5t-90.5 -55t-120.5 -17.5q-68 0 -121.5 18t-90.5 55.5t-56 96.5t-19 140v422zM149 773q0 75 33.5 108.5t90.5 33.5q21 0 38.5 -7t33 -15l30 -15t28.5 -7q19 0 29.5 8
t10.5 32h99q0 -75 -33 -108t-90 -33q-21 0 -39 7t-33 15.5t-29 15.5t-28 7q-20 0 -31 -8.5t-11 -33.5h-99z" />
    <glyph glyph-name="utilde" unicode="&#x169;" horiz-adv-x="587" 
d="M57 522h140v-326q0 -56 20 -75.5t55 -19.5q27 0 44.5 8t33.5 23q16 14 25.5 33.5t9.5 42.5v314h140v-522h-136v72q-32 -46 -72.5 -67t-86.5 -21q-89 0 -131 46.5t-42 146.5v345zM102 602q0 75 32 108.5t87 33.5q19 0 37 -7t33.5 -15l30 -15t28.5 -7q18 0 28.5 8t10.5 32
h94q0 -75 -32 -108t-86 -33q-20 0 -37.5 7t-33.5 15.5l-30 15.5t-27 7q-19 0 -30 -8.5t-11 -33.5h-94z" />
    <glyph glyph-name="Umacron" unicode="&#x16a;" horiz-adv-x="693" 
d="M59 714h149v-425q0 -91 32 -135t107 -44t106.5 44t31.5 135v425h149v-425q0 -81 -20 -139t-57 -95.5t-90.5 -55t-120.5 -17.5q-68 0 -121.5 18t-90.5 55.5t-56 96.5t-19 140v422zM191 901h310v-111h-310v111z" />
    <glyph glyph-name="umacron" unicode="&#x16b;" horiz-adv-x="587" 
d="M57 522h140v-326q0 -56 20 -75.5t55 -19.5q27 0 44.5 8t33.5 23q16 14 25.5 33.5t9.5 42.5v314h140v-522h-136v72q-32 -46 -72.5 -67t-86.5 -21q-89 0 -131 46.5t-42 146.5v345zM147 719h292v-107h-292v107z" />
    <glyph glyph-name="Ubreve" unicode="&#x16c;" horiz-adv-x="693" 
d="M59 714h149v-425q0 -91 32 -135t107 -44t106.5 44t31.5 135v425h149v-425q0 -81 -20 -139t-57 -95.5t-90.5 -55t-120.5 -17.5q-68 0 -121.5 18t-90.5 55.5t-56 96.5t-19 140v422zM287 927q0 -38 18 -53.5t41 -15.5t40.5 15.5t17.5 53.5h103q0 -78 -44 -116.5t-117 -38.5
q-74 0 -117.5 38.5t-43.5 116.5h102z" />
    <glyph glyph-name="ubreve" unicode="&#x16d;" horiz-adv-x="587" 
d="M57 522h140v-326q0 -56 20 -75.5t55 -19.5q27 0 44.5 8t33.5 23q16 14 25.5 33.5t9.5 42.5v314h140v-522h-136v72q-32 -46 -72.5 -67t-86.5 -21q-89 0 -131 46.5t-42 146.5v345zM236 746q0 -38 17 -53t40 -15q22 0 39 15t17 53h100q0 -78 -42.5 -116.5t-113.5 -38.5
q-72 0 -113.5 38.5t-41.5 116.5h98z" />
    <glyph glyph-name="Uring" unicode="&#x16e;" horiz-adv-x="693" 
d="M59 714h149v-425q0 -91 32 -135t107 -44t106.5 44t31.5 135v425h149v-425q0 -81 -20 -139t-57 -95.5t-90.5 -55t-120.5 -17.5q-68 0 -121.5 18t-90.5 55.5t-56 96.5t-19 140v422zM225 856q0 30 9.5 52.5t26 37t38.5 22t46 7.5t46 -7.5t38.5 -22t26.5 -37t10 -52.5
t-10 -52t-26.5 -36.5t-38.5 -21.5t-46 -7t-46 7t-38.5 21.5t-26 36.5t-9.5 52zM345 809q46 0 46 47q0 26 -12 37.5t-34 11.5q-21 0 -33 -11.5t-12 -37.5q0 -25 12 -36t33 -11z" />
    <glyph glyph-name="uring" unicode="&#x16f;" horiz-adv-x="587" 
d="M57 522h140v-326q0 -56 20 -75.5t55 -19.5q27 0 44.5 8t33.5 23q16 14 25.5 33.5t9.5 42.5v314h140v-522h-136v72q-32 -46 -72.5 -67t-86.5 -21q-89 0 -131 46.5t-42 146.5v345zM177 701q0 28 9.5 49.5t25 35.5t36.5 21t44 7t44 -7t37 -21t25.5 -35.5t9.5 -49.5
q0 -29 -9.5 -50t-25.5 -34.5t-37 -20.5t-44 -7t-44 7t-36.5 20.5t-25 34.5t-9.5 50zM292 655q20 0 32 11.5t12 34.5q0 24 -12 35t-32 11t-31.5 -11t-11.5 -35q0 -23 11.5 -34.5t31.5 -11.5z" />
    <glyph glyph-name="Uhungarumlaut" unicode="&#x170;" horiz-adv-x="693" 
d="M59 714h149v-425q0 -91 32 -135t107 -44t106.5 44t31.5 135v425h149v-425q0 -81 -20 -139t-57 -95.5t-90.5 -55t-120.5 -17.5q-68 0 -121.5 18t-90.5 55.5t-56 96.5t-19 140v422zM488 917h154l-156 -145h-123zM276 917h154l-156 -145h-123z" />
    <glyph glyph-name="uhungarumlaut" unicode="&#x171;" horiz-adv-x="587" 
d="M57 522h140v-326q0 -56 20 -75.5t55 -19.5q27 0 44.5 8t33.5 23q16 14 25.5 33.5t9.5 42.5v314h140v-522h-136v72q-32 -46 -72.5 -67t-86.5 -21q-89 0 -131 46.5t-42 146.5v345zM224 749h144l-133 -155h-114zM421 749h144l-133 -155h-114z" />
    <glyph glyph-name="Uogonek" unicode="&#x172;" horiz-adv-x="693" 
d="M59 714h149v-425q0 -91 32 -135t107 -44t106.5 44t31.5 135v425h149v-425q0 -121 -43.5 -191.5t-122.5 -97.5q-32 -18 -53 -38.5t-21 -42.5q0 -20 11.5 -26.5t24.5 -6.5q10 0 17 0.5t18 2.5v-87q-15 -2 -30 -2.5t-38 -0.5q-35 0 -58.5 7.5t-37.5 19.5t-19.5 28t-5.5 33
q0 28 14.5 51t41.5 44q-131 4 -202 77.5t-71 232.5v422z" />
    <glyph glyph-name="uogonek" unicode="&#x173;" horiz-adv-x="587" 
d="M57 522h140v-326q0 -56 20 -75.5t55 -19.5q27 0 44.5 8t33.5 23q16 14 25.5 33.5t9.5 42.5v314h140v-522q-30 -17 -50 -36.5t-20 -41.5q0 -20 11 -26t23 -6q10 0 17 0.5t16 1.5v-84q-14 -2 -28.5 -2.5t-35.5 -0.5q-34 0 -56 7t-35 19t-18.5 27.5t-5.5 32.5q0 32 19.5 58
t56.5 51h-30v72q-32 -46 -72.5 -67t-86.5 -21q-89 0 -131 46.5t-42 146.5v345z" />
    <glyph glyph-name="Wcircumflex" unicode="&#x174;" horiz-adv-x="968" 
d="M10 714h168l115 -496l117 492h158l122 -492l108 496h160l-194 -714h-145l-133 528l-129 -528h-141zM413 917h141l121 -145h-120l-72 72l-71 -72h-120z" />
    <glyph glyph-name="wcircumflex" unicode="&#x175;" horiz-adv-x="773" 
d="M6 522h152l73 -346l100 342h122l95 -342l73 346h146l-152 -522h-136l-93 344l-94 -344h-134zM315 749h141l120 -155h-120l-71 83l-70 -83h-120z" />
    <glyph glyph-name="Ycircumflex" unicode="&#x176;" horiz-adv-x="657" 
d="M257 291l-247 423h166l154 -289l159 289h158l-241 -423v-291h-149v291zM257 917h141l121 -145h-120l-72 72l-71 -72h-120z" />
    <glyph glyph-name="ycircumflex" unicode="&#x177;" horiz-adv-x="567" 
d="M76 -74q29 -8 59 -8q28 0 45 13.5t29 47.5l16 44l-217 499h162l122 -343l114 343h153l-211 -537q-18 -45 -34 -78.5t-36.5 -56t-49 -33.5t-70.5 -11q-26 0 -51.5 3.5t-53.5 12.5zM213 749h141l120 -155h-120l-71 83l-70 -83h-120z" />
    <glyph glyph-name="Ydieresis" unicode="&#x178;" horiz-adv-x="657" 
d="M257 291l-247 423h166l154 -289l159 289h158l-241 -423v-291h-149v291zM157 911h134v-129h-134v129zM365 911h134v-129h-134v129z" />
    <glyph glyph-name="Zacute" unicode="&#x179;" horiz-adv-x="587" 
d="M23 109l357 477h-350v128h528v-110l-356 -476h372l-15 -128h-536v109zM306 917h162l-159 -145h-131z" />
    <glyph glyph-name="zacute" unicode="&#x17a;" horiz-adv-x="500" 
d="M37 95l254 318h-249v109h427v-95l-253 -318h265l-13 -109h-431v95zM292 749h159l-150 -155h-129z" />
    <glyph glyph-name="Zdotaccent" unicode="&#x17b;" horiz-adv-x="587" 
d="M23 109l357 477h-350v128h528v-110l-356 -476h372l-15 -128h-536v109zM223 914h140v-135h-140v135z" />
    <glyph glyph-name="zdotaccent" unicode="&#x17c;" horiz-adv-x="500" 
d="M37 95l254 318h-249v109h427v-95l-253 -318h265l-13 -109h-431v95zM196 734h132v-127h-132v127z" />
    <glyph glyph-name="Zcaron" unicode="&#x17d;" horiz-adv-x="587" 
d="M23 109l357 477h-350v128h528v-110l-356 -476h372l-15 -128h-536v109zM96 921h120l72 -73l71 73h120l-121 -145h-141z" />
    <glyph glyph-name="zcaron" unicode="&#x17e;" horiz-adv-x="500" 
d="M37 95l254 318h-249v109h427v-95l-253 -318h265l-13 -109h-431v95zM332 594h-141l-120 155h120l71 -83l70 83h120z" />
    <glyph glyph-name="longs" unicode="&#x17f;" horiz-adv-x="273" 
d="M63 539q0 48 14 83t38.5 57t57.5 32.5t72 10.5q26 0 53 -3t56 -12l-19 -102q-30 8 -61 8q-28 0 -49.5 -15.5t-21.5 -55.5v-542h-140v539z" />
    <glyph glyph-name="florin" unicode="&#x192;" 
d="M-1 -48q17 -8 32.5 -10.5t32.5 -2.5q31 0 48 16t25 53l75 383h-79l16 114h84l9 42q17 79 65 120.5t138 41.5q30 0 59.5 -6t55.5 -17l-37 -104q-17 7 -32 10.5t-34 3.5q-34 0 -53.5 -15.5t-27.5 -53.5l-5 -22h121l-16 -114h-127l-79 -404q-16 -79 -61.5 -120.5
t-133.5 -41.5q-30 0 -58.5 5t-53.5 16z" />
    <glyph glyph-name="Scommaaccent" unicode="&#x218;" horiz-adv-x="645" 
d="M179 233q5 -66 42.5 -96t110.5 -30q35 0 59 7.5t39 20t21.5 29.5t6.5 37q0 28 -21 52.5t-77 35.5l-93 17q-55 10 -97 26t-70.5 41.5t-43.5 62.5t-15 88t20.5 90t57 65t87.5 39.5t112 13.5q78 0 130 -18t84 -47.5t47.5 -68.5t20.5 -81l-141 -18q-11 59 -42.5 85t-95.5 26
q-38 0 -62.5 -6.5t-39.5 -17t-21 -24.5t-6 -29q0 -40 22.5 -60t76.5 -31l98 -19q116 -23 170 -74.5t54 -148.5q0 -47 -17.5 -86.5t-52 -69t-86.5 -46t-122 -16.5q-146 0 -223.5 62.5t-83.5 188.5h151zM258 -66h155l-110 -161h-126z" />
    <glyph glyph-name="scommaaccent" unicode="&#x219;" horiz-adv-x="537" 
d="M163 166q7 -46 37 -60t72 -14q50 0 71.5 12.5t21.5 40.5q0 20 -13.5 35t-51.5 21l-72 12q-95 15 -141.5 51.5t-46.5 110.5q0 38 16.5 68t46.5 51t71.5 32.5t91.5 11.5q62 0 104 -12.5t68.5 -33.5t40 -50t19.5 -62l-125 -16q-9 36 -31.5 53t-72.5 17q-28 0 -46.5 -4.5
t-29 -11.5t-15 -16t-4.5 -17q0 -25 15.5 -36.5t60.5 -19.5l66 -11q55 -9 91 -23t57.5 -34.5t30 -48.5t8.5 -65q0 -74 -56 -118.5t-173 -44.5q-47 0 -89.5 8.5t-76 29.5t-55 56t-24.5 88h134zM207 -66h148l-105 -155h-121z" />
    <glyph glyph-name="uni021A" unicode="&#x21a;" horiz-adv-x="620" 
d="M235 585h-215v129h580v-129h-215v-585h-150v585zM236 -66h155l-110 -161h-126z" />
    <glyph glyph-name="uni021B" unicode="&#x21b;" horiz-adv-x="379" 
d="M94 413h-82v109h82v139h140v-139h120v-109h-120v-241q0 -41 17 -55.5t44 -14.5q14 0 28.5 1.5t28.5 5.5l20 -103q-29 -9 -56.5 -12.5t-52.5 -3.5q-86 0 -127.5 41t-41.5 138v244zM164 -66h148l-105 -155h-121z" />
    <glyph glyph-name="dotlessj" unicode="&#x237;" horiz-adv-x="266" 
d="M-56 -63q32 -8 59 -8t43.5 12.5t16.5 53.5v527h140v-524q0 -96 -43.5 -139.5t-128.5 -43.5q-25 0 -51.5 4t-55.5 13z" />
    <glyph glyph-name="apostrophe" unicode="&#x2bc;" horiz-adv-x="414" 
d="M63 714h136l-62 -254h-107z" />
    <glyph glyph-name="circumflex" unicode="&#x2c6;" horiz-adv-x="414" 
d="M136 749h141l120 -155h-120l-71 83l-70 -83h-120z" />
    <glyph glyph-name="caron" unicode="&#x2c7;" horiz-adv-x="414" 
d="M277 594h-141l-120 155h120l71 -83l70 83h120z" />
    <glyph glyph-name="uni02C9" unicode="&#x2c9;" horiz-adv-x="414" 
d="M61 719h292v-107h-292v107z" />
    <glyph glyph-name="breve" unicode="&#x2d8;" horiz-adv-x="414" 
d="M150 746q0 -38 17 -53t40 -15q22 0 39 15t17 53h100q0 -78 -42.5 -116.5t-113.5 -38.5q-72 0 -113.5 38.5t-41.5 116.5h98z" />
    <glyph glyph-name="dotaccent" unicode="&#x2d9;" horiz-adv-x="414" 
d="M141 734h132v-127h-132v127z" />
    <glyph glyph-name="ring" unicode="&#x2da;" horiz-adv-x="414" 
d="M91 701q0 28 9.5 49.5t25 35.5t36.5 21t44 7t44 -7t37 -21t25.5 -35.5t9.5 -49.5q0 -29 -9.5 -50t-25.5 -34.5t-37 -20.5t-44 -7t-44 7t-36.5 20.5t-25 34.5t-9.5 50zM206 655q20 0 32 11.5t12 34.5q0 24 -12 35t-32 11t-31.5 -11t-11.5 -35q0 -23 11.5 -34.5t31.5 -11.5
z" />
    <glyph glyph-name="ogonek" unicode="&#x2db;" horiz-adv-x="414" 
d="M295 -192q-14 -2 -28.5 -2.5t-35.5 -0.5q-34 0 -56 7t-35 19t-18.5 27.5t-5.5 32.5q0 32 19.5 58t56.5 51h106q-30 -17 -50 -36.5t-20 -41.5q0 -20 11 -26t23 -6q10 0 17 0.5t16 1.5v-84z" />
    <glyph glyph-name="tilde" unicode="&#x2dc;" horiz-adv-x="414" 
d="M16 602q0 75 32 108.5t87 33.5q19 0 37 -7t33.5 -15l30 -15t28.5 -7q18 0 28.5 8t10.5 32h94q0 -75 -32 -108t-86 -33q-20 0 -37.5 7t-33.5 15.5l-30 15.5t-27 7q-19 0 -30 -8.5t-11 -33.5h-94z" />
    <glyph glyph-name="hungarumlaut" unicode="&#x2dd;" horiz-adv-x="414" 
d="M88 749h144l-133 -155h-114zM285 749h144l-133 -155h-114z" />
    <glyph glyph-name="tonos" unicode="&#x384;" horiz-adv-x="414" 
d="M167 764h139l-100 -170h-109z" />
    <glyph glyph-name="dieresistonos" unicode="&#x385;" horiz-adv-x="414" 
d="M-29 723h110v-105h-110v105zM313 723h110v-105h-110v105zM167 764h129l-82 -170h-99z" />
    <glyph glyph-name="Alphatonos" unicode="&#x386;" horiz-adv-x="709" 
d="M289 714h142l268 -714h-160l-57 165h-250l-57 -165h-154zM443 288l-87 256l-86 -256h173zM67 714h139l-87 -154h-109z" />
    <glyph glyph-name="Epsilontonos" unicode="&#x388;" horiz-adv-x="800" 
d="M269 714h487v-127h-338v-156h318v-128h-318v-176h359l-15 -127h-493v714zM67 714h139l-87 -154h-109z" />
    <glyph glyph-name="Etatonos" unicode="&#x389;" horiz-adv-x="923" 
d="M269 714h149v-276h283v276h149v-714h-149v300h-283v-300h-149v714zM67 714h139l-87 -154h-109z" />
    <glyph glyph-name="Iotatonos" unicode="&#x38a;" horiz-adv-x="491" 
d="M269 714h149v-714h-149v714zM67 714h139l-87 -154h-109z" />
    <glyph glyph-name="Omicrontonos" unicode="&#x38c;" horiz-adv-x="916" 
d="M527 -18q-80 0 -143 26t-107 75t-67.5 118t-23.5 156t23.5 156t68 118t107.5 75t142 26q80 0 143 -26t106.5 -75t66.5 -118t23 -156t-22.5 -156t-66 -118t-106.5 -75t-144 -26zM526 110q94 0 140 64t46 183q0 118 -46 182.5t-140 64.5t-140 -64.5t-46 -182.5
q0 -119 46 -183t140 -64zM67 714h139l-87 -154h-109z" />
    <glyph glyph-name="Upsilontonos" unicode="&#x38e;" horiz-adv-x="883" 
d="M483 291l-247 423h166l154 -289l159 289h158l-241 -423v-291h-149v291zM67 714h139l-87 -154h-109z" />
    <glyph glyph-name="Omegatonos" unicode="&#x38f;" horiz-adv-x="863" 
d="M161 120h122q-47 55 -72 117.5t-25 148.5q0 85 23 149.5t65 108t100 66t128 22.5t127.5 -22t98.5 -64.5t63.5 -106.5t22.5 -148q0 -46 -6.5 -83.5t-19.5 -69.5t-31.5 -61t-42.5 -57h124l-15 -120h-262v113q30 21 50 50.5t31.5 65t16.5 76t5 83.5q0 109 -39 167t-123 58
q-88 0 -128 -58t-40 -167q0 -88 22.5 -159t81.5 -116v-113h-277v120zM67 714h139l-87 -154h-109z" />
    <glyph glyph-name="iotadieresistonos" unicode="&#x390;" horiz-adv-x="318" 
d="M65 522h140v-357q0 -29 10 -46t38 -17q14 0 26 2t22 5l21 -103q-16 -5 -46.5 -10.5t-65.5 -5.5q-76 0 -110.5 41.5t-34.5 116.5v374zM-58 723h110v-105h-110v105zM284 723h110v-105h-110v105zM138 764h129l-82 -170h-99z" />
    <glyph glyph-name="Alpha" unicode="&#x391;" horiz-adv-x="698" 
d="M278 714h142l268 -714h-160l-57 165h-250l-57 -165h-154zM432 288l-87 256l-86 -256h173z" />
    <glyph glyph-name="Beta" unicode="&#x392;" horiz-adv-x="647" 
d="M73 714h257q79 0 130.5 -15t81.5 -41t41.5 -61t11.5 -76q0 -42 -18 -79t-68 -63q32 -17 52.5 -35.5t32 -39.5t16 -43t4.5 -44q0 -45 -13.5 -85t-45 -69t-82.5 -46t-126 -17h-274v714zM347 431q59 0 81 22t22 63q0 44 -28.5 62.5t-96.5 18.5h-108v-166h130zM342 117
q37 0 61.5 7t39.5 20.5t21 31.5t6 41q0 46 -25 70t-88 24h-140v-194h125z" />
    <glyph glyph-name="Gamma" unicode="&#x393;" horiz-adv-x="541" 
d="M73 714h456v-129h-307v-585h-149v714z" />
    <glyph glyph-name="uni0394" unicode="&#x394;" horiz-adv-x="686" 
d="M10 0l263 714h142l261 -714h-666zM484 127l-144 423l-144 -423h288z" />
    <glyph glyph-name="Epsilon" unicode="&#x395;" horiz-adv-x="604" 
d="M73 714h487v-127h-338v-156h318v-128h-318v-176h359l-15 -127h-493v714z" />
    <glyph glyph-name="Zeta" unicode="&#x396;" horiz-adv-x="587" 
d="M23 109l357 477h-350v128h528v-110l-356 -476h372l-15 -128h-536v109z" />
    <glyph glyph-name="Eta" unicode="&#x397;" horiz-adv-x="727" 
d="M73 714h149v-276h283v276h149v-714h-149v300h-283v-300h-149v714z" />
    <glyph glyph-name="Theta" unicode="&#x398;" horiz-adv-x="780" 
d="M270 438h240v-139h-240v139zM391 -18q-80 0 -143 26t-107 75t-67.5 118t-23.5 156t23.5 156t68 118t107.5 75t142 26q80 0 143 -26t106.5 -75t66.5 -118t23 -156t-22.5 -156t-66 -118t-106.5 -75t-144 -26zM390 110q94 0 140 63.5t46 183.5q0 118 -46 182.5t-140 64.5
t-140 -64.5t-46 -182.5q0 -120 46 -183.5t140 -63.5z" />
    <glyph glyph-name="Iota" unicode="&#x399;" horiz-adv-x="295" 
d="M73 714h149v-714h-149v714z" />
    <glyph glyph-name="Kappa" unicode="&#x39a;" horiz-adv-x="675" 
d="M73 714h150v-286l263 286h163l-237 -268l263 -446h-166l-201 349l-85 -87v-262h-150v714z" />
    <glyph glyph-name="Lambda" unicode="&#x39b;" horiz-adv-x="697" 
d="M687 0h-166l-174 513l-177 -513h-160l268 714h142z" />
    <glyph glyph-name="Mu" unicode="&#x39c;" horiz-adv-x="860" 
d="M73 714h179l178 -533l183 533h174v-714h-137v476l-163 -476h-116l-164 475v-475h-134v714z" />
    <glyph glyph-name="Nu" unicode="&#x39d;" horiz-adv-x="719" 
d="M73 714h134l294 -468v468h145v-714h-133l-295 464v-464h-145v714z" />
    <glyph glyph-name="Xi" unicode="&#x39e;" horiz-adv-x="580" 
d="M65 435h450v-136h-450v136zM45 714h490v-135h-490v135zM549 135l-16 -135h-493v135h509z" />
    <glyph glyph-name="Omicron" unicode="&#x39f;" horiz-adv-x="780" 
d="M391 -18q-80 0 -143 26t-107 75t-67.5 118t-23.5 156t23.5 156t68 118t107.5 75t142 26q80 0 143 -26t106.5 -75t66.5 -118t23 -156t-22.5 -156t-66 -118t-106.5 -75t-144 -26zM390 110q94 0 140 64t46 183q0 118 -46 182.5t-140 64.5t-140 -64.5t-46 -182.5
q0 -119 46 -183t140 -64z" />
    <glyph glyph-name="Pi" unicode="&#x3a0;" horiz-adv-x="710" 
d="M488 585h-266v-585h-149v714h564v-714h-149v585z" />
    <glyph glyph-name="Rho" unicode="&#x3a1;" horiz-adv-x="640" 
d="M73 714h255q82 0 135.5 -18.5t85 -49t44 -71t12.5 -84.5q0 -47 -12.5 -90t-44 -75.5t-84 -51.5t-132.5 -19h-112v-255h-147v714zM327 379q39 0 64.5 8t40.5 22t20.5 34.5t5.5 44.5q0 25 -6 44t-21 32t-40.5 20t-64.5 7h-106v-212h107z" />
    <glyph glyph-name="Sigma" unicode="&#x3a3;" horiz-adv-x="587" 
d="M23 109l225 248l-218 247v110h528v-128h-339l192 -223l-215 -235h378l-15 -128h-536v109z" />
    <glyph glyph-name="Tau" unicode="&#x3a4;" horiz-adv-x="620" 
d="M235 585h-215v129h580v-129h-215v-585h-150v585z" />
    <glyph glyph-name="Upsilon" unicode="&#x3a5;" horiz-adv-x="657" 
d="M257 291l-247 423h166l154 -289l159 289h158l-241 -423v-291h-149v291z" />
    <glyph glyph-name="Phi" unicode="&#x3a6;" horiz-adv-x="871" 
d="M364 88q-71 6 -130 27t-101 57.5t-65 89.5t-23 124q0 76 24 131.5t67 93t101 58t127 26.5v78h143v-77q67 -6 125.5 -26t101.5 -57t67.5 -92t24.5 -132q0 -73 -25.5 -126.5t-69 -90t-101.5 -56.5t-123 -27v-89h-143v88zM677 389q0 85 -41.5 130.5t-128.5 56.5v-369
q88 12 129 58t41 124zM195 391q0 -87 44 -130t125 -54v369q-85 -11 -127 -55.5t-42 -129.5z" />
    <glyph glyph-name="Chi" unicode="&#x3a7;" horiz-adv-x="684" 
d="M255 376l-232 338h170l147 -228l150 228h160l-228 -342l256 -372h-170l-173 260l-166 -260h-163z" />
    <glyph glyph-name="Psi" unicode="&#x3a8;" horiz-adv-x="849" 
d="M59 714h147v-227q0 -82 34.5 -130t110.5 -55v412h149v-411q72 7 107.5 55t35.5 129v227h147v-217q0 -148 -77.5 -228t-212.5 -91v-178h-149v177q-64 5 -117.5 25.5t-92.5 59.5t-60.5 98t-21.5 140v214z" />
    <glyph glyph-name="Omega" unicode="&#x3a9;" horiz-adv-x="737" 
d="M30 120h122q-47 55 -72 117.5t-25 148.5q0 85 23 149.5t65 108t100 66t128 22.5t127.5 -22t98.5 -64.5t63.5 -106.5t22.5 -148q0 -46 -6.5 -83.5t-19.5 -69.5t-31.5 -61t-42.5 -57h124l-15 -120h-262v113q30 21 50 50.5t31.5 65t16.5 76t5 83.5q0 109 -39 167t-123 58
q-88 0 -128 -58t-40 -167q0 -88 22.5 -159t81.5 -116v-113h-277v120z" />
    <glyph glyph-name="Iotadieresis" unicode="&#x3aa;" horiz-adv-x="295" 
d="M73 714h149v-714h-149v714zM-17 925h130v-125h-130v125zM185 925h130v-125h-130v125z" />
    <glyph glyph-name="Upsilondieresis" unicode="&#x3ab;" horiz-adv-x="657" 
d="M257 291l-247 423h166l154 -289l159 289h158l-241 -423v-291h-149v291zM162 925h130v-125h-130v125zM364 925h130v-125h-130v125z" />
    <glyph glyph-name="alphatonos" unicode="&#x3ac;" horiz-adv-x="706" 
d="M553 259l30 -101q9 -30 21 -46t36 -16q18 0 42 9l24 -100q-53 -21 -94 -21q-21 0 -40 3.5t-35.5 14t-30 29.5t-23.5 50l-17 51q-12 -25 -27.5 -51.5t-38 -48t-53 -35t-72.5 -13.5q-58 0 -101.5 20.5t-72 57t-43 86t-14.5 107.5q0 61 14.5 112.5t45 89.5t78 59.5
t113.5 21.5q37 0 65 -9t49.5 -28t38.5 -48t32 -69l49 138h140zM286 96q20 0 36.5 6.5t32.5 24.5t32.5 49.5t36.5 80.5q-27 89 -55 129t-76 40q-29 0 -49 -13.5t-32 -37t-17.5 -54.5t-5.5 -66q0 -30 6 -59t18 -51t30 -35.5t43 -13.5zM309 764h139l-100 -170h-109z" />
    <glyph glyph-name="epsilontonos" unicode="&#x3ad;" horiz-adv-x="558" 
d="M63 390q0 72 62.5 110t167.5 38q43 0 80.5 -8.5t67 -27t50 -49t28.5 -74.5l-127 -22q-9 38 -31.5 56t-68.5 18q-50 0 -72 -16.5t-22 -42.5q0 -56 75 -56h98v-105h-97q-44 0 -66.5 -13t-22.5 -44t23.5 -46.5t77.5 -15.5q56 0 81 18.5t27 58.5h134q0 -48 -17.5 -82.5
t-49.5 -57.5t-77 -34t-99 -11q-111 0 -175.5 42.5t-64.5 125.5q0 28 8 48.5t21.5 35.5t30 25t34.5 15q-76 33 -76 114zM294 764h139l-100 -170h-109z" />
    <glyph glyph-name="etatonos" unicode="&#x3ae;" 
d="M62 522h136v-72q31 46 73.5 67t88.5 21q89 0 132 -46.5t43 -146.5v-539h-140v520q0 55 -21 75t-56 20q-27 0 -46.5 -8t-36.5 -23q-14 -14 -23.5 -33.5t-9.5 -42.5v-314h-140v522zM342 764h139l-100 -170h-109z" />
    <glyph glyph-name="iotatonos" unicode="&#x3af;" horiz-adv-x="318" 
d="M65 522h140v-357q0 -29 10 -46t38 -17q14 0 26 2t22 5l21 -103q-16 -5 -46.5 -10.5t-65.5 -5.5q-76 0 -110.5 41.5t-34.5 116.5v374zM156 764h139l-100 -170h-109z" />
    <glyph glyph-name="upsilondieresistonos" unicode="&#x3b0;" horiz-adv-x="566" 
d="M283 -16q-55 0 -98.5 13t-73.5 42t-45.5 75.5t-15.5 112.5v295h140v-295q0 -64 22.5 -95t70.5 -31t70.5 31t22.5 95v295h140v-295q0 -66 -15.5 -112.5t-45.5 -75.5t-73.5 -42t-98.5 -13zM59 723h110v-105h-110v105zM401 723h110v-105h-110v105zM255 764h129l-82 -170h-99
z" />
    <glyph glyph-name="alpha" unicode="&#x3b1;" horiz-adv-x="706" 
d="M553 259l30 -101q9 -30 21 -46t36 -16q18 0 42 9l24 -100q-53 -21 -94 -21q-21 0 -40 3.5t-35.5 14t-30 29.5t-23.5 50l-17 51q-12 -25 -27.5 -51.5t-38 -48t-53 -35t-72.5 -13.5q-58 0 -101.5 20.5t-72 57t-43 86t-14.5 107.5q0 61 14.5 112.5t45 89.5t78 59.5
t113.5 21.5q37 0 65 -9t49.5 -28t38.5 -48t32 -69l49 138h140zM286 96q20 0 36.5 6.5t32.5 24.5t32.5 49.5t36.5 80.5q-27 89 -55 129t-76 40q-29 0 -49 -13.5t-32 -37t-17.5 -54.5t-5.5 -66q0 -30 6 -59t18 -51t30 -35.5t43 -13.5z" />
    <glyph glyph-name="beta" unicode="&#x3b2;" horiz-adv-x="612" 
d="M62 501q0 55 17 96t48 69t74.5 42t97.5 14q57 0 98.5 -14t68.5 -38.5t40 -57t13 -69.5q0 -51 -21 -87t-60 -59q69 -23 101 -72t32 -120q0 -61 -19 -103t-50 -67.5t-69.5 -37t-78.5 -11.5q-47 0 -88.5 16.5t-70.5 53.5v-250h-133v695zM195 247q0 -49 12.5 -79t32 -46.5
t43 -22t44.5 -5.5q47 0 77.5 26.5t30.5 91.5q0 57 -35 83t-110 26h-27v107h24q51 0 74 25t23 74q0 42 -21.5 64.5t-64.5 22.5q-55 0 -79 -34t-24 -99v-234z" />
    <glyph glyph-name="gamma" unicode="&#x3b3;" horiz-adv-x="567" 
d="M212 27l-204 495h162l115 -338l119 338h155l-207 -497v-219h-140v221z" />
    <glyph glyph-name="delta" unicode="&#x3b4;" horiz-adv-x="595" 
d="M40 223q0 72 39 131t114 91l-8 5q-40 25 -57 56.5t-17 66.5q0 31 12.5 58t38 47t64 32t90.5 12q106 0 161.5 -44.5t64.5 -123.5l-128 -13q-8 42 -34 59t-64 17q-42 0 -58 -13t-16 -34q0 -14 11.5 -24.5t31.5 -21.5l113 -63q83 -47 120 -103t37 -131q0 -49 -16 -93
t-49 -77.5t-82 -53t-115 -19.5q-50 0 -95.5 14.5t-80.5 44.5t-56 75t-21 105zM286 391q-57 -23 -79 -68.5t-22 -99.5q0 -36 9.5 -60t25 -39t35.5 -21.5t41 -6.5q54 0 84 34.5t30 90.5q0 25 -4 46t-14 39t-28 34t-45 32z" />
    <glyph glyph-name="epsilon" unicode="&#x3b5;" horiz-adv-x="558" 
d="M63 390q0 72 62.5 110t167.5 38q43 0 80.5 -8.5t67 -27t50 -49t28.5 -74.5l-127 -22q-9 38 -31.5 56t-68.5 18q-50 0 -72 -16.5t-22 -42.5q0 -56 75 -56h98v-105h-97q-44 0 -66.5 -13t-22.5 -44t23.5 -46.5t77.5 -15.5q56 0 81 18.5t27 58.5h134q0 -48 -17.5 -82.5
t-49.5 -57.5t-77 -34t-99 -11q-111 0 -175.5 42.5t-64.5 125.5q0 28 8 48.5t21.5 35.5t30 25t34.5 15q-76 33 -76 114z" />
    <glyph glyph-name="zeta" unicode="&#x3b6;" horiz-adv-x="499" 
d="M40 238q0 94 64 185t181 181h-219v110h415v-92q-297 -210 -297 -382q0 -50 25.5 -76.5t87.5 -45.5l69 -21q39 -12 66 -25.5t44.5 -31.5t25 -41.5t7.5 -54.5q0 -22 -7.5 -43t-20 -40.5t-28 -36t-31.5 -29.5l-82 70q19 19 29 33.5t10 31.5q0 22 -19 33.5t-55 22.5l-84 25
q-52 15 -87 37.5t-56 51t-29.5 63.5t-8.5 75z" />
    <glyph glyph-name="eta" unicode="&#x3b7;" 
d="M62 522h136v-72q31 46 73.5 67t88.5 21q89 0 132 -46.5t43 -146.5v-539h-140v520q0 55 -21 75t-56 20q-27 0 -46.5 -8t-36.5 -23q-14 -14 -23.5 -33.5t-9.5 -42.5v-314h-140v522z" />
    <glyph glyph-name="theta" unicode="&#x3b8;" horiz-adv-x="603" 
d="M301 -16q-125 0 -193 89.5t-68 275.5q0 187 69 280t196 93q128 0 193 -92t65 -281q0 -186 -69 -275.5t-193 -89.5zM303 610q-33 0 -55.5 -14.5t-36.5 -41t-21.5 -63.5t-9.5 -83h242q-2 46 -9 83t-21 63.5t-36 41t-53 14.5zM304 96q30 0 51.5 14t35.5 40t21.5 63t9.5 83
h-242q3 -45 11.5 -82t23.5 -63t37 -40.5t52 -14.5z" />
    <glyph glyph-name="iota" unicode="&#x3b9;" horiz-adv-x="318" 
d="M65 522h140v-357q0 -29 10 -46t38 -17q14 0 26 2t22 5l21 -103q-16 -5 -46.5 -10.5t-65.5 -5.5q-76 0 -110.5 41.5t-34.5 116.5v374z" />
    <glyph glyph-name="kappa" unicode="&#x3ba;" horiz-adv-x="580" 
d="M62 522h140v-204l203 204h160l-187 -193l202 -329h-151l-148 248l-79 -76v-172h-140v522z" />
    <glyph glyph-name="lambda" unicode="&#x3bb;" horiz-adv-x="567" 
d="M559 0h-160l-115 363l-122 -363h-154l217 516l-15 38q-11 30 -29 42.5t-41 12.5q-12 0 -25 -2.5t-28 -7.5l-29 103q20 9 46 15.5t55 6.5q61 0 104 -26.5t70 -97.5z" />
    <glyph glyph-name="uni03BC" unicode="&#x3bc;" 
d="M62 522h140v-326q0 -56 20 -75.5t55 -19.5q27 0 44.5 8t33.5 23q16 14 25.5 33.5t9.5 42.5v314h140v-522h-136v72q-23 -40 -53.5 -62t-71.5 -22q-18 0 -35.5 4.5t-31.5 20.5v-207h-140v716z" />
    <glyph glyph-name="nu" unicode="&#x3bd;" horiz-adv-x="567" 
d="M8 522h162l117 -363l117 363h155l-206 -522h-140z" />
    <glyph glyph-name="xi" unicode="&#x3be;" horiz-adv-x="537" 
d="M384 97q80 -18 111.5 -54t31.5 -99q0 -22 -7.5 -43t-20 -40.5t-28 -36t-31.5 -29.5l-82 70q19 19 29 33.5t10 31.5q0 22 -19 34.5t-55 21.5l-87 21q-60 14 -97.5 34.5t-58.5 47t-28.5 58t-7.5 67.5q0 54 24.5 96t82.5 70q-46 26 -68 65.5t-22 92.5q0 41 14 76.5
t43.5 61.5t75.5 41t110 15q107 0 162.5 -42.5t64.5 -128.5l-126 -17q-9 44 -33.5 63t-69.5 19q-32 0 -52.5 -8t-32.5 -21.5t-16.5 -31t-4.5 -36.5q0 -18 4 -35.5t14 -31t26 -22t40 -8.5h130v-109h-127q-56 0 -77.5 -25t-21.5 -71q0 -50 33 -74.5t89 -37.5z" />
    <glyph glyph-name="omicron" unicode="&#x3bf;" horiz-adv-x="610" 
d="M305 -16q-127 0 -194 71.5t-67 206.5q0 64 18 115.5t52 87t82.5 54.5t108.5 19q124 0 192.5 -73t68.5 -203q0 -65 -18 -116.5t-52 -87.5t-82.5 -55t-108.5 -19zM305 96q60 0 88 42.5t28 123.5t-28 122.5t-88 41.5t-88 -41.5t-28 -122.5t27.5 -123.5t88.5 -42.5z" />
    <glyph glyph-name="pi" unicode="&#x3c0;" horiz-adv-x="642" 
d="M383 410h-142v-410h-140v410h-89v112h605v-112h-96v-266q0 -19 8.5 -33.5t34.5 -14.5q8 0 19 1.5t18 3.5l16 -101q-18 -7 -46 -11.5t-56 -4.5q-73 0 -102.5 41.5t-29.5 119.5v265z" />
    <glyph glyph-name="rho" unicode="&#x3c1;" horiz-adv-x="619" 
d="M197 260q0 -51 8 -83.5t28 -50.5q20 -19 40.5 -24t41.5 -5q23 0 44 9t36.5 29t24.5 51t9 75q0 46 -9 77.5t-24.5 51t-36.5 28t-44 8.5q-52 0 -85 -39t-33 -123v-4zM575 261q0 -62 -15.5 -113t-45 -87.5t-71.5 -56.5t-95 -20q-39 0 -77.5 14t-72.5 56v-248h-140v466
q0 67 19 117t53.5 83t83 49.5t107.5 16.5q62 0 109.5 -19.5t79.5 -55.5t48.5 -87t16.5 -115z" />
    <glyph glyph-name="sigma1" unicode="&#x3c2;" horiz-adv-x="550" 
d="M372 97q39 -12 66 -25.5t44.5 -31.5t25 -41.5t7.5 -54.5q0 -22 -7.5 -43t-20 -40.5t-28 -36t-31.5 -29.5l-82 70q19 19 29 33.5t10 31.5q0 22 -19 33.5t-55 22.5l-77 23q-55 16 -91.5 40t-58.5 55t-31 70t-9 86q0 53 14.5 103t45.5 89t80 62.5t117 23.5q94 0 153 -44
t72 -147l-138 -18q-8 51 -28.5 74t-62.5 23q-30 0 -50.5 -13t-33 -35.5t-18.5 -51.5t-6 -61q0 -40 10 -66t27.5 -42.5t40 -26t48.5 -16.5z" />
    <glyph glyph-name="sigma" unicode="&#x3c3;" horiz-adv-x="615" 
d="M300 -16q-62 0 -110 19t-80.5 54t-49 84.5t-16.5 109.5q0 57 17.5 106t53 86t90 58t128.5 21h252v-112h-117q23 -20 39 -43.5t26.5 -48t15 -48.5t4.5 -45q0 -50 -14.5 -93.5t-45.5 -76.5t-79 -52t-114 -19zM300 96q33 0 55.5 12t36.5 32t20 46t6 55q0 50 -13 93.5
t-46 75.5h-31q-65 0 -102 -37.5t-37 -118.5q0 -32 5.5 -60.5t18 -50t34 -34.5t53.5 -13z" />
    <glyph glyph-name="tau" unicode="&#x3c4;" horiz-adv-x="522" 
d="M12 522h485v-112h-188v-231q0 -40 16.5 -59.5t58.5 -19.5q23 0 46.5 3t38.5 8l20 -103q-9 -3 -24 -6.5t-33 -6.5t-37.5 -5t-37.5 -2q-100 0 -144 43.5t-44 129.5v249h-157v112z" />
    <glyph glyph-name="upsilon" unicode="&#x3c5;" horiz-adv-x="566" 
d="M283 -16q-55 0 -98.5 13t-73.5 42t-45.5 75.5t-15.5 112.5v295h140v-295q0 -64 22.5 -95t70.5 -31t70.5 31t22.5 95v295h140v-295q0 -66 -15.5 -112.5t-45.5 -75.5t-73.5 -42t-98.5 -13z" />
    <glyph glyph-name="phi" unicode="&#x3c6;" horiz-adv-x="796" 
d="M398 538q91 0 158 -21.5t110.5 -59t64.5 -88t21 -108.5q0 -56 -17.5 -103.5t-52.5 -83.5t-89 -58t-126 -28v-182h-138v182q-72 6 -126 28t-89 58t-52.5 83.5t-17.5 103.5q0 58 21 108.5t64.5 88t110.5 59t158 21.5zM186 261q0 -77 40.5 -118.5t102.5 -45.5v329
q-62 -5 -102.5 -48t-40.5 -117zM610 261q0 74 -40.5 117t-102.5 48v-329q31 2 57 13.5t45 32t30 50t11 68.5z" />
    <glyph glyph-name="chi" unicode="&#x3c7;" horiz-adv-x="577" 
d="M312 315l97 207h147l-179 -335l106 -218q15 -32 30 -46t41 -14q11 0 24 2.5t27 9.5l32 -102l-27.5 -11t-26 -8t-29.5 -4.5t-38 -1.5q-54 0 -89.5 29t-57.5 78l-76 168l-139 -263h-147l219 396l-77 161q-15 32 -28.5 46t-39.5 14q-11 0 -23 -2.5t-26 -9.5l-32 102l27 11
t25 8t29 4.5t38 1.5q54 0 88.5 -28.5t55.5 -78.5z" />
    <glyph glyph-name="psi" unicode="&#x3c8;" horiz-adv-x="798" 
d="M468 98q28 3 53 13.5t43.5 31.5t29.5 55.5t11 85.5v238h138v-243q0 -75 -21.5 -128.5t-59 -88t-87.5 -52t-107 -20.5v-184h-138v184q-59 3 -109.5 20t-87 51t-57.5 87.5t-21 130.5v243h138v-238q0 -51 11 -85.5t29.5 -55.5t43.5 -31.5t53 -13.5v424h138v-424z" />
    <glyph glyph-name="omega" unicode="&#x3c9;" horiz-adv-x="814" 
d="M407 84q-14 -26 -30 -44.5t-35.5 -31t-44 -18.5t-57.5 -6q-57 0 -95 20.5t-60.5 57t-31.5 85.5t-9 106q0 37 8.5 75.5t23.5 76t35 72t42 64.5l113 -58q-32 -45 -54.5 -107.5t-22.5 -127.5q0 -75 19.5 -113.5t57.5 -38.5q32 0 51.5 32t19.5 99v144h140v-144
q0 -67 19.5 -99t51.5 -32q38 0 57.5 38.5t19.5 113.5q0 65 -22.5 127.5t-54.5 107.5l113 58q22 -30 42 -64.5t35 -72t23.5 -76t8.5 -75.5q0 -57 -9 -106t-31.5 -85.5t-60.5 -57t-95 -20.5q-65 0 -102 24.5t-65 75.5z" />
    <glyph glyph-name="iotadieresis" unicode="&#x3ca;" horiz-adv-x="318" 
d="M65 522h140v-357q0 -29 10 -46t38 -17q14 0 26 2t22 5l21 -103q-16 -5 -46.5 -10.5t-65.5 -5.5q-76 0 -110.5 41.5t-34.5 116.5v374zM-6 733h130v-125h-130v125zM196 733h130v-125h-130v125z" />
    <glyph glyph-name="upsilondieresis" unicode="&#x3cb;" horiz-adv-x="566" 
d="M283 -16q-55 0 -98.5 13t-73.5 42t-45.5 75.5t-15.5 112.5v295h140v-295q0 -64 22.5 -95t70.5 -31t70.5 31t22.5 95v295h140v-295q0 -66 -15.5 -112.5t-45.5 -75.5t-73.5 -42t-98.5 -13zM122 733h130v-125h-130v125zM324 733h130v-125h-130v125z" />
    <glyph glyph-name="omicrontonos" unicode="&#x3cc;" horiz-adv-x="616" 
d="M308 -16q-126 0 -195 72t-69 206q0 64 18.5 115.5t53 87t83.5 54.5t109 19q61 0 110 -19t83.5 -54.5t52.5 -87t18 -115.5q0 -65 -18.5 -116.5t-53 -87.5t-83.5 -55t-109 -19zM308 96q60 0 89.5 43t29.5 123t-29.5 122t-89.5 42t-89.5 -42t-29.5 -122q0 -81 29 -123.5
t90 -42.5zM321 764h139l-100 -170h-109z" />
    <glyph glyph-name="upsilontonos" unicode="&#x3cd;" horiz-adv-x="566" 
d="M283 -16q-55 0 -98.5 13t-73.5 42t-45.5 75.5t-15.5 112.5v295h140v-295q0 -64 22.5 -95t70.5 -31t70.5 31t22.5 95v295h140v-295q0 -66 -15.5 -112.5t-45.5 -75.5t-73.5 -42t-98.5 -13zM293 764h139l-100 -170h-109z" />
    <glyph glyph-name="omegatonos" unicode="&#x3ce;" horiz-adv-x="814" 
d="M407 84q-14 -26 -30 -44.5t-35.5 -31t-44 -18.5t-57.5 -6q-57 0 -95 20.5t-60.5 57t-31.5 85.5t-9 106q0 37 8.5 75.5t23.5 76t35 72t42 64.5l113 -58q-32 -45 -54.5 -107.5t-22.5 -127.5q0 -75 19.5 -113.5t57.5 -38.5q32 0 51.5 32t19.5 99v144h140v-144
q0 -67 19.5 -99t51.5 -32q38 0 57.5 38.5t19.5 113.5q0 65 -22.5 127.5t-54.5 107.5l113 58q22 -30 42 -64.5t35 -72t23.5 -76t8.5 -75.5q0 -57 -9 -106t-31.5 -85.5t-60.5 -57t-95 -20.5q-65 0 -102 24.5t-65 75.5zM420 764h139l-100 -170h-109z" />
    <glyph glyph-name="uni0400" unicode="&#x400;" horiz-adv-x="604" 
d="M73 714h487v-127h-338v-156h318v-128h-318v-176h359l-15 -127h-493v714zM299 917l128 -145h-131l-159 145h162z" />
    <glyph glyph-name="afii10023" unicode="&#x401;" horiz-adv-x="604" 
d="M73 714h487v-127h-338v-156h318v-128h-318v-176h359l-15 -127h-493v714zM147 911h134v-129h-134v129zM355 911h134v-129h-134v129z" />
    <glyph glyph-name="afii10051" unicode="&#x402;" horiz-adv-x="825" 
d="M369 424q38 10 77 15.5t74 5.5q75 0 127 -15.5t85 -44.5t48 -70t15 -93q0 -109 -73.5 -165.5t-216.5 -56.5h-40v125h31q146 0 146 94q0 26 -7.5 45.5t-24.5 32t-45.5 19t-71.5 6.5q-37 0 -70 -6t-54 -14v-302h-149v585h-200v129h599v-129h-250v-161z" />
    <glyph glyph-name="afii10052" unicode="&#x403;" horiz-adv-x="541" 
d="M73 714h456v-129h-307v-585h-149v714zM335 917h162l-159 -145h-131z" />
    <glyph glyph-name="afii10053" unicode="&#x404;" horiz-adv-x="725" 
d="M686 220q-20 -117 -94 -177.5t-208 -60.5q-163 0 -248.5 99t-85.5 286q0 95 27.5 164t74 113.5t107.5 66t129 21.5q111 0 183.5 -50t98.5 -161l-149 -21q-14 51 -44.5 77.5t-93.5 26.5q-33 0 -62 -9.5t-52 -30.5t-39 -54t-23 -79h284v-128h-285q11 -100 58 -146.5
t119 -46.5q35 0 59.5 8.5t41 23t26 34.5t15.5 44h161z" />
    <glyph glyph-name="afii10054" unicode="&#x405;" horiz-adv-x="645" 
d="M179 233q5 -66 42.5 -96t110.5 -30q35 0 59 7.5t39 20t21.5 29.5t6.5 37q0 28 -21 52.5t-77 35.5l-93 17q-55 10 -97 26t-70.5 41.5t-43.5 62.5t-15 88t20.5 90t57 65t87.5 39.5t112 13.5q78 0 130 -18t84 -47.5t47.5 -68.5t20.5 -81l-141 -18q-11 59 -42.5 85t-95.5 26
q-38 0 -62.5 -6.5t-39.5 -17t-21 -24.5t-6 -29q0 -40 22.5 -60t76.5 -31l98 -19q116 -23 170 -74.5t54 -148.5q0 -47 -17.5 -86.5t-52 -69t-86.5 -46t-122 -16.5q-146 0 -223.5 62.5t-83.5 188.5h151z" />
    <glyph glyph-name="afii10055" unicode="&#x406;" horiz-adv-x="295" 
d="M73 714h149v-714h-149v714z" />
    <glyph glyph-name="afii10056" unicode="&#x407;" horiz-adv-x="295" 
d="M73 714h149v-714h-149v714zM-23 911h134v-129h-134v129zM185 911h134v-129h-134v129z" />
    <glyph glyph-name="afii10057" unicode="&#x408;" horiz-adv-x="636" 
d="M179 246q3 -32 10 -57.5t21.5 -43t37 -26.5t56.5 -9q62 0 90 37.5t28 106.5v460h149v-469q0 -65 -19 -114.5t-53.5 -82.5t-83.5 -49.5t-109 -16.5q-132 0 -201 64t-75 200h149z" />
    <glyph glyph-name="afii10058" unicode="&#x409;" horiz-adv-x="1069" 
d="M668 469h93q80 0 133.5 -19t85.5 -51t45.5 -74t13.5 -88q0 -48 -13.5 -91t-46 -75.5t-87 -51.5t-136.5 -19h-237v589h-142l-27 -215q-11 -84 -29 -154t-51.5 -121t-85.5 -79t-129 -28h-36v127h16q41 0 70.5 18t50 56.5t34.5 99.5t24 147l32 274h422v-245zM668 345v-222
h86q78 0 108 28t30 81q0 27 -6.5 48t-22.5 35.5t-42.5 22t-65.5 7.5h-87z" />
    <glyph glyph-name="afii10059" unicode="&#x40a;" horiz-adv-x="1040" 
d="M490 320h-268v-320h-149v714h149v-265h268v265h149v-265h93q77 0 130 -17.5t86 -47.5t47.5 -70.5t14.5 -86.5q0 -48 -14.5 -89.5t-48 -72t-87.5 -48t-133 -17.5h-237v320zM639 320v-197h86q78 0 108 24t30 75q0 25 -6.5 43.5t-22.5 30.5t-42.5 18t-65.5 6h-87z" />
    <glyph glyph-name="afii10060" unicode="&#x40b;" horiz-adv-x="825" 
d="M369 411q22 9 61.5 17.5t81.5 8.5q141 0 202 -58.5t61 -168.5v-210h-149v175q0 77 -29 110.5t-105 33.5q-30 0 -66 -7t-57 -17v-295h-149v585h-200v129h599v-129h-250v-174z" />
    <glyph glyph-name="afii10061" unicode="&#x40c;" horiz-adv-x="681" 
d="M222 422h25q38 0 67.5 18.5t54.5 69.5l49 102q28 58 68 80t91 22q47 0 80 -10l-18 -119l-10 2t-10.5 1.5t-12.5 0.5q-23 0 -43 -11.5t-37 -47.5l-34 -74q-14 -31 -36 -52.5t-46 -32.5q27 -13 47.5 -36t42.5 -56l181 -279h-173l-162 253q-9 14 -17.5 23.5t-18.5 15
t-23 7.5t-32 2h-33v-301h-149v714h149v-292zM395 917h162l-159 -145h-131z" />
    <glyph glyph-name="uni040D" unicode="&#x40d;" horiz-adv-x="713" 
d="M640 0h-145v469l-289 -469h-133v714h145v-474l288 474h134v-714zM329 917l128 -145h-131l-159 145h162z" />
    <glyph glyph-name="afii10062" unicode="&#x40e;" horiz-adv-x="625" 
d="M54 113q11 -5 32 -9.5t40 -4.5q38 0 70.5 17.5t51.5 62.5l13 31l-261 504h164l168 -360l141 360h152l-241 -549q-20 -46 -43 -80t-53.5 -57t-69.5 -34.5t-90 -11.5q-32 0 -60.5 6t-42.5 13zM248 929q2 -38 22 -53t52 -15q31 0 51 15t22 53h100q0 -78 -46.5 -116.5
t-126.5 -38.5q-84 0 -128 38.5t-44 116.5h98z" />
    <glyph glyph-name="afii10145" unicode="&#x40f;" horiz-adv-x="710" 
d="M222 129h266v585h149v-714h-217v-173h-130v173h-217v714h149v-585z" />
    <glyph glyph-name="afii10017" unicode="&#x410;" horiz-adv-x="698" 
d="M278 714h142l268 -714h-160l-57 165h-250l-57 -165h-154zM432 288l-87 256l-86 -256h173z" />
    <glyph glyph-name="afii10018" unicode="&#x411;" horiz-adv-x="637" 
d="M73 714h446v-129h-297v-126h113q80 0 132.5 -19t83.5 -51t43.5 -74t12.5 -88q0 -45 -12.5 -86t-44 -72.5t-85 -50t-135.5 -18.5h-257v714zM222 335v-212h106q39 0 64.5 7t40.5 20t21 32t6 44q0 24 -5.5 44.5t-20.5 34.5t-40.5 22t-64.5 8h-107z" />
    <glyph glyph-name="afii10019" unicode="&#x412;" horiz-adv-x="647" 
d="M73 714h257q79 0 130.5 -15t81.5 -41t41.5 -61t11.5 -76q0 -42 -18 -79t-68 -63q32 -17 52.5 -35.5t32 -39.5t16 -43t4.5 -44q0 -45 -13.5 -85t-45 -69t-82.5 -46t-126 -17h-274v714zM347 431q59 0 81 22t22 63q0 44 -28.5 62.5t-96.5 18.5h-108v-166h130zM342 117
q37 0 61.5 7t39.5 20.5t21 31.5t6 41q0 46 -25 70t-88 24h-140v-194h125z" />
    <glyph glyph-name="afii10020" unicode="&#x413;" horiz-adv-x="541" 
d="M73 714h456v-129h-307v-585h-149v714z" />
    <glyph glyph-name="afii10021" unicode="&#x414;" horiz-adv-x="763" 
d="M92 129q30 42 51.5 98t36 115t23 114.5t12.5 95.5l16 162h430v-585h82v-302h-130v173h-471v-173h-130v302h80zM350 500q-4 -37 -10 -84.5t-17.5 -98t-28 -100t-41.5 -88.5h261v460h-155z" />
    <glyph glyph-name="afii10022" unicode="&#x415;" horiz-adv-x="604" 
d="M73 714h487v-127h-338v-156h318v-128h-318v-176h359l-15 -127h-493v714z" />
    <glyph glyph-name="afii10024" unicode="&#x416;" horiz-adv-x="1059" 
d="M454 302h-30q-23 0 -46 -10t-41 -39l-162 -253h-167l192 296q20 30 38.5 48t41.5 27q-32 11 -52 33.5t-33 51.5l-34 74q-17 36 -35 47.5t-41 11.5q-7 0 -12.5 -0.5t-10.5 -1.5l-10 -2l-18 119q23 6 44.5 8t42.5 2t41 -3.5t38 -12.5t34 -25.5t28 -43.5l56 -119
q24 -51 54 -70t68 -19h14v293h149v-293h14q38 0 67.5 19t54.5 70l49 102q28 58 68 80t91 22q47 0 80 -10l-18 -119l-10 2t-10.5 1.5t-12.5 0.5q-23 0 -43 -11.5t-37 -47.5l-34 -74q-14 -31 -36 -52.5t-46 -32.5q27 -13 47.5 -36t42.5 -56l181 -279h-173l-162 253
q-9 14 -17.5 23.5t-18.5 15t-23 8t-32 2.5h-22v-302h-149v302z" />
    <glyph glyph-name="afii10025" unicode="&#x417;" horiz-adv-x="647" 
d="M173 220q3 -33 12 -55.5t26.5 -36.5t44 -20t65.5 -6q140 0 140 103q0 50 -38.5 76.5t-119.5 26.5h-70v119h78q66 0 101.5 25.5t35.5 71.5q0 42 -28.5 65.5t-96.5 23.5t-99.5 -25.5t-42.5 -77.5l-136 18q17 103 87 153.5t191 50.5q70 0 120.5 -15.5t82.5 -41.5t47.5 -61
t15.5 -74q0 -51 -24 -93.5t-72 -68.5q60 -24 86 -70.5t26 -97.5t-18 -93t-54 -72t-89.5 -46.5t-125.5 -16.5q-144 0 -215.5 64.5t-72.5 173.5h143z" />
    <glyph glyph-name="afii10026" unicode="&#x418;" horiz-adv-x="713" 
d="M640 0h-145v469l-289 -469h-133v714h145v-474l288 474h134v-714z" />
    <glyph glyph-name="afii10027" unicode="&#x419;" horiz-adv-x="713" 
d="M640 0h-145v469l-289 -469h-133v714h145v-474l288 474h134v-714zM280 929q2 -38 22 -53t52 -15q31 0 51 15t22 53h100q0 -78 -46.5 -116.5t-126.5 -38.5q-84 0 -128 38.5t-44 116.5h98z" />
    <glyph glyph-name="afii10028" unicode="&#x41a;" horiz-adv-x="681" 
d="M222 422h25q38 0 67.5 18.5t54.5 69.5l49 102q28 58 68 80t91 22q47 0 80 -10l-18 -119l-10 2t-10.5 1.5t-12.5 0.5q-23 0 -43 -11.5t-37 -47.5l-34 -74q-14 -31 -36 -52.5t-46 -32.5q27 -13 47.5 -36t42.5 -56l181 -279h-173l-162 253q-9 14 -17.5 23.5t-18.5 15
t-23 7.5t-32 2h-33v-301h-149v714h149v-292z" />
    <glyph glyph-name="afii10029" unicode="&#x41b;" horiz-adv-x="757" 
d="M535 589h-162l-26 -215q-11 -84 -29 -154t-51.5 -121t-85.5 -79t-129 -28h-36v127h16q41 0 70.5 18t50 56.5t34.5 99.5t24 147l32 274h441v-714h-149v589z" />
    <glyph glyph-name="afii10030" unicode="&#x41c;" horiz-adv-x="860" 
d="M73 714h179l178 -533l183 533h174v-714h-137v476l-163 -476h-116l-164 475v-475h-134v714z" />
    <glyph glyph-name="afii10031" unicode="&#x41d;" horiz-adv-x="727" 
d="M73 714h149v-276h283v276h149v-714h-149v300h-283v-300h-149v714z" />
    <glyph glyph-name="afii10032" unicode="&#x41e;" horiz-adv-x="780" 
d="M391 -18q-80 0 -143 26t-107 75t-67.5 118t-23.5 156t23.5 156t68 118t107.5 75t142 26q80 0 143 -26t106.5 -75t66.5 -118t23 -156t-22.5 -156t-66 -118t-106.5 -75t-144 -26zM390 110q94 0 140 64t46 183q0 118 -46 182.5t-140 64.5t-140 -64.5t-46 -182.5
q0 -119 46 -183t140 -64z" />
    <glyph glyph-name="afii10033" unicode="&#x41f;" horiz-adv-x="710" 
d="M488 585h-266v-585h-149v714h564v-714h-149v585z" />
    <glyph glyph-name="afii10034" unicode="&#x420;" horiz-adv-x="640" 
d="M73 714h255q82 0 135.5 -18.5t85 -49t44 -71t12.5 -84.5q0 -47 -12.5 -90t-44 -75.5t-84 -51.5t-132.5 -19h-112v-255h-147v714zM327 379q39 0 64.5 8t40.5 22t20.5 34.5t5.5 44.5q0 25 -6 44t-21 32t-40.5 20t-64.5 7h-106v-212h107z" />
    <glyph glyph-name="afii10035" unicode="&#x421;" horiz-adv-x="713" 
d="M683 247q-5 -57 -26.5 -105.5t-59 -84t-92 -55.5t-126.5 -20q-81 0 -142.5 27t-103 76t-62.5 118.5t-21 153.5q0 87 23 156t66 118t104 75t138 26q68 0 118.5 -17t85 -49t55.5 -77t31 -101l-148 -19q-11 63 -42.5 99t-99.5 36q-86 0 -130.5 -64.5t-44.5 -182.5
q0 -119 47.5 -183t127.5 -64q69 0 101.5 35.5t40.5 101.5h160z" />
    <glyph glyph-name="afii10036" unicode="&#x422;" horiz-adv-x="620" 
d="M235 585h-215v129h580v-129h-215v-585h-150v585z" />
    <glyph glyph-name="afii10037" unicode="&#x423;" horiz-adv-x="625" 
d="M54 113q11 -5 32 -9.5t40 -4.5q38 0 70.5 17.5t51.5 62.5l13 31l-261 504h164l168 -360l141 360h152l-241 -549q-20 -46 -43 -80t-53.5 -57t-69.5 -34.5t-90 -11.5q-32 0 -60.5 6t-42.5 13z" />
    <glyph glyph-name="afii10038" unicode="&#x424;" horiz-adv-x="861" 
d="M359 88q-71 6 -130 27t-101 57.5t-65 89.5t-23 124q0 76 24 131.5t67 93t101 58t127 26.5v78h143v-77q67 -6 125.5 -26t101.5 -57t67.5 -92t24.5 -132q0 -73 -25.5 -126.5t-69 -90t-101.5 -56.5t-123 -27v-89h-143v88zM672 389q0 85 -41.5 130.5t-128.5 56.5v-369
q88 12 129 58t41 124zM190 391q0 -87 44 -130t125 -54v369q-85 -11 -127 -55.5t-42 -129.5z" />
    <glyph glyph-name="afii10039" unicode="&#x425;" horiz-adv-x="684" 
d="M255 376l-232 338h170l147 -228l150 228h160l-228 -342l256 -372h-170l-173 260l-166 -260h-163z" />
    <glyph glyph-name="afii10040" unicode="&#x426;" horiz-adv-x="733" 
d="M73 0v714h149v-585h260v585h149v-585h82v-302h-130v173h-510z" />
    <glyph glyph-name="afii10041" unicode="&#x427;" horiz-adv-x="678" 
d="M456 289q-32 -13 -74 -21.5t-87 -8.5t-89 10t-78.5 35.5t-56 68t-21.5 108.5v233h149v-193q0 -77 29 -110.5t105 -33.5q30 0 66 7t57 17v313h149v-714h-149v289z" />
    <glyph glyph-name="afii10042" unicode="&#x428;" horiz-adv-x="1019" 
d="M584 129h213v585h149v-714h-873v714h149v-585h213v585h149v-585z" />
    <glyph glyph-name="afii10043" unicode="&#x429;" horiz-adv-x="1048" 
d="M73 0v714h149v-585h213v585h149v-585h213v585h149v-585h82v-302h-130v173h-825z" />
    <glyph glyph-name="afii10044" unicode="&#x42a;" horiz-adv-x="740" 
d="M327 345v-222h98q78 0 108 28t30 81q0 27 -6.5 48t-22.5 35.5t-42.5 22t-65.5 7.5h-99zM10 714h317v-245h105q80 0 133.5 -19t85.5 -51t45.5 -74t13.5 -88q0 -48 -13.5 -91t-46 -75.5t-87 -51.5t-136.5 -19h-249v585h-168v129z" />
    <glyph glyph-name="afii10045" unicode="&#x42b;" horiz-adv-x="929" 
d="M73 714h149v-245h99q80 0 133.5 -19t85.5 -51t45.5 -74t13.5 -88q0 -48 -13.5 -91t-46 -75.5t-87 -51.5t-136.5 -19h-243v714zM222 345v-222h92q78 0 108 28t30 81q0 27 -6.5 48t-22.5 35.5t-42.5 22t-65.5 7.5h-93zM707 714h149v-714h-149v714z" />
    <glyph glyph-name="afii10046" unicode="&#x42c;" horiz-adv-x="643" 
d="M73 714h149v-245h113q80 0 133.5 -19t85.5 -51t45.5 -74t13.5 -88q0 -48 -13.5 -91t-46 -75.5t-87 -51.5t-136.5 -19h-257v714zM222 345v-222h106q78 0 108 28t30 81q0 27 -6.5 48t-22.5 35.5t-42.5 22t-65.5 7.5h-107z" />
    <glyph glyph-name="afii10047" unicode="&#x42d;" horiz-adv-x="710" 
d="M503 431q-7 52 -23 86t-38 53t-47.5 26.5t-50.5 7.5q-24 0 -48 -2.5t-45 -13t-38.5 -31t-29.5 -56.5l-145 20q29 103 102.5 157t197.5 54q70 0 129 -22.5t102 -68t67 -114t24 -160.5q0 -187 -84 -286t-245 -99q-72 0 -126.5 17t-91.5 48.5t-57.5 75t-25.5 97.5h151
q8 -47 42.5 -78.5t101.5 -31.5q89 0 130 44t49 149h-276v128h275z" />
    <glyph glyph-name="afii10048" unicode="&#x42e;" horiz-adv-x="1096" 
d="M714 -18q-151 0 -234 86t-95 236h-163v-304h-149v714h149v-285h165q9 70 35 126.5t68 95.5t98.5 60t125.5 21q78 0 139.5 -26t104.5 -75t65.5 -118t22.5 -156t-22 -156t-64.5 -118t-104.5 -75t-141 -26zM715 604q-91 0 -134.5 -63.5t-43.5 -183.5q0 -118 42.5 -182.5
t133.5 -64.5t135 63.5t44 183.5q0 118 -43 182.5t-134 64.5z" />
    <glyph glyph-name="afii10049" unicode="&#x42f;" horiz-adv-x="685" 
d="M612 0h-149v268h-64q-24 0 -41.5 -4t-30.5 -12.5t-22.5 -21.5t-18.5 -31l-103 -199h-171l113 209q25 46 48 64.5t45 27.5q-70 18 -105 66.5t-35 124.5q0 39 12.5 78.5t44 71.5t86 52t138.5 20h253v-714zM463 392v199h-102q-39 0 -64.5 -7.5t-40.5 -20t-21 -30t-6 -38.5
q0 -22 5 -40.5t18.5 -32.5t36.5 -22t58 -8h116z" />
    <glyph glyph-name="afii10065" unicode="&#x430;" horiz-adv-x="561" 
d="M372 66q-31 -35 -69.5 -57t-99.5 -22q-35 0 -66.5 9.5t-55 29t-37.5 49t-14 70.5q0 54 24 88t63 54t87.5 28t98.5 10l67 3v26q0 48 -26.5 66.5t-62.5 18.5q-83 0 -95 -63l-128 12q14 82 71.5 118.5t156.5 36.5q60 0 102 -14.5t67.5 -42t37 -66t11.5 -86.5v-334h-132v66z
M369 237l-62 -3q-44 -2 -71 -9t-41.5 -18.5t-19.5 -26t-5 -30.5q0 -26 18 -42t50 -16q54 0 88 25q19 14 31 36.5t12 54.5v29z" />
    <glyph glyph-name="afii10066" unicode="&#x431;" horiz-adv-x="626" 
d="M328 385q-17 0 -37 -3t-40 -17q-29 -20 -39 -53t-10 -68q0 -69 28.5 -108.5t88.5 -39.5q51 0 85 35t34 106q0 43 -9 71.5t-24 45.5t-35 24t-42 7zM522 617l-101 -19q-58 -11 -101.5 -27.5t-66.5 -36.5q-26 -23 -42 -52t-25 -71q29 45 75 65.5t100 20.5q46 0 86.5 -15.5
t70.5 -47t47 -78.5t17 -110q0 -56 -18 -104t-52 -83t-83 -55t-110 -20q-136 0 -200.5 81.5t-64.5 235.5q0 107 28.5 184t83.5 129q22 21 53.5 37.5t67.5 29.5t73.5 22t73.5 15l72 13z" />
    <glyph glyph-name="afii10067" unicode="&#x432;" horiz-adv-x="568" 
d="M60 528h252q58 0 98 -10.5t65 -29t36 -44t11 -55.5q0 -43 -18 -70t-54 -44q38 -15 63 -43.5t25 -75.5q0 -31 -9 -59t-34.5 -49.5t-70 -34.5t-114.5 -13h-250v528zM308 313q42 0 58.5 15t16.5 38q0 29 -15.5 42t-59.5 13h-113v-108h113zM315 108q48 0 65.5 13t17.5 42
q0 25 -17.5 41.5t-67.5 16.5h-118v-113h120z" />
    <glyph glyph-name="afii10068" unicode="&#x433;" horiz-adv-x="447" 
d="M433 528v-117h-233v-411h-140v528h373z" />
    <glyph glyph-name="afii10069" unicode="&#x434;" horiz-adv-x="624" 
d="M549 528v-412h65v-256h-120v140h-354v-140h-120v256h55q32 27 53 106t32 200l9 106h380zM282 337q-8 -81 -26 -139.5t-35 -81.5h189v302h-120z" />
    <glyph glyph-name="afii10070" unicode="&#x435;" horiz-adv-x="589" 
d="M540 163q-14 -88 -70.5 -133.5t-164.5 -45.5q-130 0 -195.5 74t-65.5 206q0 66 19 118t53.5 87.5t82.5 54.5t106 19q120 0 180.5 -69.5t60.5 -186.5v-56h-362q2 -63 32 -100.5t90 -37.5q83 0 98 70h136zM411 323q0 54 -26 84.5t-83 30.5q-28 0 -49 -9t-35.5 -25
t-22.5 -36.5t-9 -44.5h225z" />
    <glyph glyph-name="afii10072" unicode="&#x436;" horiz-adv-x="842" 
d="M487 0h-132v217h-25q-29 0 -45 -15t-35 -46l-96 -156h-149l129 199q21 33 42.5 49t44.5 22q-28 8 -44 26.5t-27 41.5l-21 46q-11 23 -22.5 30t-31.5 7q-18 0 -33 -4l-12 103q17 4 29.5 6t24.5 2q34 0 59 -5.5t44 -20t34.5 -40.5t32.5 -66q20 -49 39 -66.5t48 -17.5h14
v216h132v-216h14q30 0 47.5 17.5t37.5 66.5q17 40 32 66t33 40.5t41.5 20t58.5 5.5q24 0 59 -8l-12 -103q-15 4 -33 4q-20 0 -31.5 -7t-22.5 -30l-21 -46q-11 -23 -25.5 -41t-40.5 -26q23 -6 43.5 -22.5t42.5 -49.5l127 -199h-149l-98 156l-18 26.5t-16.5 19t-18.5 11.5
t-25 4h-25v-217z" />
    <glyph glyph-name="afii10073" unicode="&#x437;" horiz-adv-x="554" 
d="M274 543q117 0 173 -42t56 -108q0 -40 -22.5 -71.5t-58.5 -43.5q18 -5 35 -14.5t30.5 -24t22 -35t8.5 -48.5q0 -77 -61 -123.5t-185 -46.5q-117 0 -180 45.5t-66 142.5h135q5 -42 32.5 -60t85.5 -18q55 0 76 17t21 46q0 31 -20 46t-64 15h-108v94h112q33 0 50.5 15.5
t17.5 44.5q0 26 -21.5 42.5t-68.5 16.5q-54 0 -77 -18.5t-34 -56.5l-129 22q9 37 26 67t45.5 51.5t70 33t98.5 11.5z" />
    <glyph glyph-name="afii10074" unicode="&#x438;" horiz-adv-x="583" 
d="M523 0h-127v327l-217 -327h-119v528h126v-329l218 329h119v-528z" />
    <glyph glyph-name="afii10075" unicode="&#x439;" horiz-adv-x="583" 
d="M523 0h-127v327l-217 -327h-119v528h126v-329l218 329h119v-528zM223 746q2 -38 22 -53t52 -15q31 0 51 15t22 53h100q0 -78 -46.5 -116.5t-126.5 -38.5q-84 0 -128 38.5t-44 116.5h98z" />
    <glyph glyph-name="afii10076" unicode="&#x43a;" horiz-adv-x="559" 
d="M60 0v528h140v-216h24q30 0 48.5 17.5t38.5 66.5q17 40 33.5 66t36.5 40.5t45 20t60 5.5q22 0 57 -8l-12 -103q-15 4 -33 4q-20 0 -31.5 -7t-22.5 -30l-21 -46q-11 -25 -25 -42.5t-43 -27.5q20 -8 39 -23t39 -46l126 -199h-154l-98 156l-18 26.5t-16.5 19t-18.5 11.5
t-25 4h-29v-217h-140z" />
    <glyph glyph-name="afii10077" unicode="&#x43b;" horiz-adv-x="597" 
d="M397 412h-121l-16 -140q-9 -75 -26.5 -127.5t-46 -85.5t-68 -48.5t-91.5 -15.5h-28v114h13q22 0 39.5 8.5t31.5 29.5t24.5 57t16.5 91l27 233h385v-528h-140v412z" />
    <glyph glyph-name="afii10078" unicode="&#x43c;" horiz-adv-x="726" 
d="M60 528h152l155 -380l159 380h140v-528h-126v301l-127 -301h-101l-126 305v-305h-126v528z" />
    <glyph glyph-name="afii10079" unicode="&#x43d;" horiz-adv-x="608" 
d="M60 528h140v-198h208v198h140v-528h-140v214h-208v-214h-140v528z" />
    <glyph glyph-name="afii10080" unicode="&#x43e;" horiz-adv-x="616" 
d="M308 -16q-127 0 -195.5 73.5t-68.5 208.5q0 64 18.5 115.5t53 87.5t83.5 55t109 19q61 0 110 -19t83.5 -55t52.5 -87.5t18 -115.5q0 -65 -18.5 -117t-53 -89t-83.5 -56.5t-109 -19.5zM308 96q60 0 89.5 44.5t29.5 125.5t-29.5 123t-89.5 42t-89.5 -42t-29.5 -123
t29 -125.5t90 -44.5z" />
    <glyph glyph-name="afii10081" unicode="&#x43f;" horiz-adv-x="596" 
d="M536 528v-528h-140v412h-196v-412h-140v528h476z" />
    <glyph glyph-name="afii10082" unicode="&#x440;" horiz-adv-x="621" 
d="M60 528h136v-70q14 24 38 42q20 16 51 29.5t75 13.5q63 0 104.5 -23.5t66.5 -62.5t35.5 -89.5t10.5 -104.5t-13.5 -104t-41.5 -89t-71 -62.5t-101 -23.5q-41 0 -69 10.5t-46 24.5q-21 15 -35 35v-248h-140v722zM320 429q-29 0 -49 -8t-34 -22q-21 -20 -29.5 -49t-8.5 -75
v-16q0 -90 30.5 -126t87.5 -36q30 0 51.5 13t35.5 35t20.5 52t6.5 65q0 79 -27 123t-84 44z" />
    <glyph glyph-name="afii10083" unicode="&#x441;" horiz-adv-x="569" 
d="M531 189q-8 -94 -64.5 -149.5t-169.5 -55.5q-66 0 -114 20.5t-78.5 57t-45.5 88t-15 113.5t17.5 113.5t50.5 88.5t81 57.5t110 20.5q53 0 92.5 -13.5t66.5 -38t42 -58t20 -73.5l-141 -19q-5 40 -23 65t-62 25q-32 0 -53 -14t-33.5 -37t-17.5 -53t-5 -62q0 -33 5 -63.5
t17 -54t33 -37.5t53 -14q42 0 65 24t27 69h142z" />
    <glyph glyph-name="afii10084" unicode="&#x442;" horiz-adv-x="520" 
d="M191 412h-171v116h480v-116h-169v-412h-140v412z" />
    <glyph glyph-name="afii10085" unicode="&#x443;" horiz-adv-x="567" 
d="M76 -74q30 -8 59 -8q28 0 45 13.5t29 47.5l16 44l-217 505h162l122 -349l114 349h153l-211 -543q-18 -45 -34 -78.5t-36.5 -56t-49 -33.5t-70.5 -11q-26 0 -51.5 3.5t-53.5 12.5z" />
    <glyph glyph-name="afii10086" unicode="&#x444;" horiz-adv-x="747" 
d="M305 0q-135 17 -204 80t-69 179q0 106 69.5 174.5t203.5 86.5v175h136v-175q69 -7 120.5 -29t85.5 -56t51 -78.5t17 -97.5q0 -57 -20.5 -101.5t-57 -77t-87 -52.5t-109.5 -28v-170h-136v170zM172 263q0 -68 33 -103.5t100 -43.5v287q-60 -5 -96.5 -43.5t-36.5 -96.5z
M575 262q0 66 -37.5 100.5t-96.5 42.5v-288q60 6 97 41t37 104z" />
    <glyph glyph-name="afii10087" unicode="&#x445;" horiz-adv-x="551" 
d="M199 271l-173 257h165l91 -149l102 149h146l-171 -249l184 -279h-162l-108 173l-113 -173h-152z" />
    <glyph glyph-name="afii10088" unicode="&#x446;" horiz-adv-x="598" 
d="M60 0v528h140v-412h183v412h140v-412h65v-256h-120v140h-408z" />
    <glyph glyph-name="afii10089" unicode="&#x447;" horiz-adv-x="563" 
d="M363 194q-21 -4 -49 -7t-51 -3q-61 0 -103.5 13.5t-69 39t-38.5 61.5t-12 81v149h140v-122q0 -64 27 -86.5t84 -22.5q19 0 39.5 2.5t32.5 7.5v221h140v-528h-140v194z" />
    <glyph glyph-name="afii10090" unicode="&#x448;" horiz-adv-x="840" 
d="M780 0h-720v528h140v-412h150v412h140v-412h150v412h140v-528z" />
    <glyph glyph-name="afii10091" unicode="&#x449;" horiz-adv-x="855" 
d="M780 116h65v-256h-120v140h-665v528h140v-412h150v412h140v-412h150v412h140v-412z" />
    <glyph glyph-name="afii10092" unicode="&#x44a;" horiz-adv-x="612" 
d="M0 528h253v-169h124q53 0 92 -13.5t64 -37t37 -56t12 -70.5q0 -83 -53.5 -132.5t-163.5 -49.5h-252v412h-113v116zM253 114h109q76 0 76 65q0 31 -17 49t-62 18h-106v-132z" />
    <glyph glyph-name="afii10093" unicode="&#x44b;" horiz-adv-x="794" 
d="M200 528v-169h124q53 0 92 -13.5t64 -37t37 -56t12 -70.5q0 -83 -53.5 -132.5t-163.5 -49.5h-252v528h140zM595 528h139v-528h-139v528zM200 114h109q76 0 76 65q0 31 -17 49t-62 18h-106v-132z" />
    <glyph glyph-name="afii10094" unicode="&#x44c;" horiz-adv-x="568" 
d="M200 528v-169h133q53 0 92 -13.5t64 -37t37 -56t12 -70.5q0 -83 -53.5 -132.5t-163.5 -49.5h-261v528h140zM200 114h118q76 0 76 65q0 31 -17 49t-62 18h-115v-132z" />
    <glyph glyph-name="afii10095" unicode="&#x44d;" horiz-adv-x="580" 
d="M195 314h196q-3 56 -30.5 88t-79.5 32q-41 0 -70 -19.5t-37 -55.5l-129 19q7 34 25 64t48 52.5t72 35.5t97 13q114 0 181.5 -70.5t67.5 -208.5q0 -66 -18 -118t-51 -88t-79.5 -55t-104.5 -19q-105 0 -169.5 44.5t-75.5 140.5h134q9 -38 35.5 -57t77.5 -19t77.5 31.5
t30.5 91.5h-198v98z" />
    <glyph glyph-name="afii10096" unicode="&#x44e;" horiz-adv-x="854" 
d="M200 528v-207h108q14 104 78 163t170 59q60 0 107.5 -19.5t80 -55.5t49.5 -87.5t17 -115.5q0 -65 -17.5 -117t-50.5 -88.5t-80 -56t-106 -19.5q-113 0 -176 60.5t-74 173.5h-106v-218h-140v528h140zM556 96q59 0 84 44t25 125t-25 123.5t-84 42.5q-58 0 -85 -42.5
t-27 -123.5t26.5 -125t85.5 -44z" />
    <glyph glyph-name="afii10097" unicode="&#x44f;" horiz-adv-x="570" 
d="M10 0l92 158q15 26 31 39.5t34 19.5q-18 5 -36.5 14.5t-33.5 26t-24.5 41.5t-9.5 62q0 34 12.5 64.5t39 53t68 36t100.5 13.5h227v-528h-140v185h-40q-34 0 -53.5 -12.5t-33.5 -37.5l-75 -135h-158zM370 298v118h-91q-38 0 -56.5 -14t-18.5 -40q0 -30 17.5 -47t51.5 -17
h97z" />
    <glyph glyph-name="uni0450" unicode="&#x450;" horiz-adv-x="589" 
d="M540 163q-14 -88 -70.5 -133.5t-164.5 -45.5q-130 0 -195.5 74t-65.5 206q0 66 19 118t53.5 87.5t82.5 54.5t106 19q120 0 180.5 -69.5t60.5 -186.5v-56h-362q2 -63 32 -100.5t90 -37.5q83 0 98 70h136zM411 323q0 54 -26 84.5t-83 30.5q-28 0 -49 -9t-35.5 -25
t-22.5 -36.5t-9 -44.5h225zM128 749h159l120 -155h-129z" />
    <glyph glyph-name="afii10071" unicode="&#x451;" horiz-adv-x="589" 
d="M540 163q-14 -88 -70.5 -133.5t-164.5 -45.5q-130 0 -195.5 74t-65.5 206q0 66 19 118t53.5 87.5t82.5 54.5t106 19q120 0 180.5 -69.5t60.5 -186.5v-56h-362q2 -63 32 -100.5t90 -37.5q83 0 98 70h136zM411 323q0 54 -26 84.5t-83 30.5q-28 0 -49 -9t-35.5 -25
t-22.5 -36.5t-9 -44.5h225zM138 733h130v-125h-130v125zM340 733h130v-125h-130v125z" />
    <glyph glyph-name="afii10099" unicode="&#x452;" horiz-adv-x="626" 
d="M565 -2q0 -97 -42.5 -140t-125.5 -43q-25 0 -50 4t-54 13l20 105q16 -4 29 -6t27 -2q25 0 40.5 12.5t15.5 53.5v290q0 55 -21 75t-56 20q-27 0 -46.5 -8t-36.5 -23q-14 -14 -23.5 -33.5t-9.5 -42.5v-273h-140v552h-92v103h92v59h140v-59h216v-103h-216v-137q31 42 72 62
t86 20q90 0 132.5 -46.5t42.5 -146.5v-306z" />
    <glyph glyph-name="afii10100" unicode="&#x453;" horiz-adv-x="447" 
d="M433 528v-117h-233v-411h-140v528h373zM257 749h159l-150 -155h-129z" />
    <glyph glyph-name="afii10101" unicode="&#x454;" horiz-adv-x="580" 
d="M385 218h-199q4 -59 33.5 -92t87.5 -33q40 0 68 16.5t33 57.5h134q-7 -51 -29.5 -86t-55.5 -56.5t-73.5 -31t-82.5 -9.5q-65 0 -113 19t-80 54.5t-48 86t-16 113.5q0 65 19 117.5t53 90t82 58t107 20.5q95 0 156.5 -38t77.5 -128l-136 -18q-10 40 -33 57.5t-66 17.5
q-51 0 -80.5 -31.5t-37.5 -86.5h199v-98z" />
    <glyph glyph-name="afii10102" unicode="&#x455;" horiz-adv-x="537" 
d="M163 166q7 -46 37 -60t72 -14q51 0 72 12.5t21 40.5q0 20 -13.5 36t-51.5 22l-72 12q-96 15 -142 52.5t-46 112.5q0 37 16.5 67.5t46.5 51.5t71.5 32.5t91.5 11.5q62 0 104 -12.5t68.5 -33.5t40 -50t19.5 -62l-125 -16q-9 36 -31.5 53t-72.5 17q-28 0 -46.5 -4.5
t-29 -11.5t-15 -16t-4.5 -17q0 -25 15.5 -38t60.5 -21l66 -11q55 -9 91 -23t57.5 -34.5t30 -49t8.5 -66.5q0 -74 -56 -118.5t-173 -44.5q-46 0 -89 8.5t-76.5 29.5t-55 56t-24.5 88h134z" />
    <glyph glyph-name="afii10103" unicode="&#x456;" horiz-adv-x="266" 
d="M63 528h140v-528h-140v528zM61 714h144v-126h-144v126z" />
    <glyph glyph-name="afii10104" unicode="&#x457;" horiz-adv-x="266" 
d="M63 528h140v-528h-140v528zM-33 733h130v-125h-130v125zM169 733h130v-125h-130v125z" />
    <glyph glyph-name="afii10105" unicode="&#x458;" horiz-adv-x="266" 
d="M61 714h144v-126h-144v126zM-56 -63q34 -8 59 -8q27 0 43.5 12.5t16.5 53.5v533h140v-530q0 -97 -43.5 -140t-128.5 -43q-25 0 -51.5 4t-55.5 13z" />
    <glyph glyph-name="afii10106" unicode="&#x459;" horiz-adv-x="863" 
d="M375 412h-99l-16 -140q-9 -75 -26.5 -127.5t-46 -85.5t-68 -48.5t-91.5 -15.5h-28v114h13q22 0 39.5 8.5t31.5 29.5t24.5 57t16.5 91l27 233h363v-169h113q53 0 92 -13.5t64 -37t37 -56t12 -70.5q0 -83 -53.5 -132.5t-163.5 -49.5h-241v412zM515 114h98q76 0 76 65
q0 31 -17 49t-62 18h-95v-132z" />
    <glyph glyph-name="afii10107" unicode="&#x45a;" horiz-adv-x="873" 
d="M60 528h140v-186h185v186h140v-186h113q53 0 92 -13t64 -36t37 -53.5t12 -66.5q0 -79 -53.5 -126t-163.5 -47h-241v229h-185v-229h-140v528zM525 114h98q76 0 76 56q0 27 -17 43t-62 16h-95v-115z" />
    <glyph glyph-name="afii10108" unicode="&#x45b;" horiz-adv-x="622" 
d="M0 655h92v59h140v-59h216v-103h-216v-137q31 42 72 62t86 20q90 0 132.5 -46.5t42.5 -146.5v-304h-140v285q0 55 -21 75t-56 20q-27 0 -46.5 -8t-36.5 -23q-14 -14 -23.5 -33.5t-9.5 -42.5v-273h-140v552h-92v103z" />
    <glyph glyph-name="afii10109" unicode="&#x45c;" horiz-adv-x="559" 
d="M60 0v528h140v-216h24q30 0 48.5 17.5t38.5 66.5q17 40 33.5 66t36.5 40.5t45 20t60 5.5q22 0 57 -8l-12 -103q-15 4 -33 4q-20 0 -31.5 -7t-22.5 -30l-21 -46q-11 -25 -25 -42.5t-43 -27.5q20 -8 39 -23t39 -46l126 -199h-154l-98 156l-18 26.5t-16.5 19t-18.5 11.5
t-25 4h-29v-217h-140zM322 749h159l-150 -155h-129z" />
    <glyph glyph-name="uni045D" unicode="&#x45d;" horiz-adv-x="583" 
d="M523 0h-127v327l-217 -327h-119v528h126v-329l218 329h119v-528zM132 749h159l120 -155h-129z" />
    <glyph glyph-name="afii10110" unicode="&#x45e;" horiz-adv-x="567" 
d="M76 -74q30 -8 59 -8q28 0 45 13.5t29 47.5l16 44l-217 505h162l122 -349l114 349h153l-211 -543q-18 -45 -34 -78.5t-36.5 -56t-49 -33.5t-70.5 -11q-26 0 -51.5 3.5t-53.5 12.5zM217 746q2 -38 22 -53t52 -15q31 0 51 15t22 53h100q0 -78 -46.5 -116.5t-126.5 -38.5
q-84 0 -128 38.5t-44 116.5h98z" />
    <glyph glyph-name="afii10193" unicode="&#x45f;" horiz-adv-x="596" 
d="M358 0v-140h-120v140h-178v528h140v-412h196v412h140v-528h-178z" />
    <glyph glyph-name="uni0462" unicode="&#x462;" horiz-adv-x="763" 
d="M193 674v68h149v-68h213v-120h-213v-85h113q80 0 133.5 -19t85.5 -51t45.5 -74t13.5 -88q0 -48 -13.5 -91t-46 -75.5t-87 -51.5t-136.5 -19h-257v554h-173v120h173zM342 345v-222h106q78 0 108 28t30 81q0 27 -6.5 48t-22.5 35.5t-42.5 22t-65.5 7.5h-107z" />
    <glyph glyph-name="uni0463" unicode="&#x463;" horiz-adv-x="619" 
d="M0 528h111v204h140v-204h197v-103h-197v-66h133q53 0 92 -13.5t64 -37t37 -56t12 -70.5q0 -83 -53.5 -132.5t-163.5 -49.5h-261v425h-111v103zM251 114h118q76 0 76 65q0 31 -17 49t-62 18h-115v-132z" />
    <glyph glyph-name="uni0472" unicode="&#x472;" horiz-adv-x="780" 
d="M391 -18q-80 0 -143 26t-107 75t-67.5 118t-23.5 156t23.5 156t68 118t107.5 75t142 26q80 0 143 -26t106.5 -75t66.5 -118t23 -156t-22.5 -156t-66 -118t-106.5 -75t-144 -26zM390 609q-84 0 -130 -49.5t-57 -140.5q20 11 45.5 18.5t55.5 7.5q25 0 48 -8.5t45 -19
t44 -19t45 -8.5q29 0 51 5t40 14q-9 97 -55.5 148.5t-131.5 51.5zM390 105q83 0 129 48.5t57 140.5q-20 -11 -45 -18.5t-55 -7.5q-26 0 -49 8.5t-45 19t-43.5 19t-44.5 8.5q-55 0 -92 -20q10 -96 56.5 -147t131.5 -51z" />
    <glyph glyph-name="uni0473" unicode="&#x473;" horiz-adv-x="616" 
d="M308 -16q-127 0 -195.5 73.5t-68.5 208.5q0 64 18.5 115.5t53 87.5t83.5 55t109 19q61 0 110 -19t83.5 -55t52.5 -87.5t18 -115.5q0 -65 -18.5 -117t-53 -89t-83.5 -56.5t-109 -19.5zM308 434q-104 0 -122 -115q12 6 27 10t32 4q18 0 33.5 -6.5t31 -14t30.5 -14t32 -6.5
q34 0 60 13q-7 63 -37.5 96t-86.5 33zM308 93q52 0 82 30t39 86q-14 -8 -30 -12.5t-35 -4.5q-17 0 -33 6t-31 13.5t-30.5 14t-31.5 6.5q-17 0 -30 -2.5t-24 -7.5q8 -63 38 -96t86 -33z" />
    <glyph glyph-name="uni0474" unicode="&#x474;" horiz-adv-x="793" 
d="M10 714h166l173 -505l113 350q26 79 77.5 126t139.5 47q46 0 81.5 -13t57.5 -28l-47 -116q-11 7 -31 15.5t-46 8.5q-13 0 -25.5 -2.5t-23.5 -10t-21.5 -23t-19.5 -40.5l-185 -523h-141z" />
    <glyph glyph-name="uni0475" unicode="&#x475;" horiz-adv-x="638" 
d="M6 528h162l113 -369l80 249q13 40 32 66t42.5 41.5t50 21.5t53.5 6q41 0 69.5 -12.5t41.5 -23.5l-42 -101q-9 7 -25 12.5t-33 5.5q-28 0 -43 -15.5t-29 -53.5l-130 -355h-140z" />
    <glyph glyph-name="uni048A" unicode="&#x48a;" horiz-adv-x="758" 
d="M640 129h98q0 -32 -2.5 -70t-16.5 -79t-45.5 -84.5t-88.5 -86.5l-86 83q28 21 55.5 48t41.5 60h-101v469l-289 -469h-133v714h145v-474l288 474h134v-585zM280 929q2 -38 22 -53t52 -15q31 0 51 15t22 53h100q0 -78 -46.5 -116.5t-126.5 -38.5q-84 0 -128 38.5t-44 116.5
h98z" />
    <glyph glyph-name="uni048B" unicode="&#x48b;" horiz-adv-x="598" 
d="M396 0v327l-217 -327h-119v528h126v-329l218 329h119v-412h65q0 -34 -2.5 -67.5t-15 -67.5t-39 -68.5t-74.5 -69.5l-76 76q50 39 73 81h-58zM223 746q2 -38 22 -53t52 -15q31 0 51 15t22 53h100q0 -78 -46.5 -116.5t-126.5 -38.5q-84 0 -128 38.5t-44 116.5h98z" />
    <glyph glyph-name="uni048C" unicode="&#x48c;" horiz-adv-x="673" 
d="M103 533h-93v120h93v61h149v-61h156v-120h-156v-64h113q80 0 133.5 -19t85.5 -51t45.5 -74t13.5 -88q0 -48 -13.5 -91t-46 -75.5t-87 -51.5t-136.5 -19h-257v533zM252 345v-222h106q78 0 108 28t30 81q0 27 -6.5 48t-22.5 35.5t-42.5 22t-65.5 7.5h-107z" />
    <glyph glyph-name="uni048D" unicode="&#x48d;" horiz-adv-x="609" 
d="M0 501h101v42h140v-42h172v-103h-172v-43h133q53 0 92 -13t64 -36.5t37 -55.5t12 -70q0 -83 -53.5 -131.5t-163.5 -48.5h-261v398h-101v103zM241 114h118q76 0 76 63q0 31 -17 48t-62 17h-115v-128z" />
    <glyph glyph-name="uni048E" unicode="&#x48e;" horiz-adv-x="670" 
d="M73 714h285q82 0 135.5 -18.5t85 -49t44 -71t12.5 -84.5q0 -63 -23.5 -117t-84.5 -86l47 -73l-92 -57l-63 100q-27 -3 -57 -3h-142v-255h-147v714zM296 452l91 57l67 -106q19 14 26.5 36t7.5 49q0 25 -6 44t-21 32t-40.5 20t-64.5 7h-136v-212h122z" />
    <glyph glyph-name="uni048F" unicode="&#x48f;" horiz-adv-x="621" 
d="M60 528h136v-70q14 24 38 42q20 16 51 29.5t75 13.5q63 0 104.5 -23.5t66.5 -62.5t35.5 -89.5t10.5 -104.5q0 -69 -22.5 -131.5t-69.5 -101.5l55 -86l-84 -52l-61 96q-11 -2 -22 -3t-23 -1q-41 0 -69 10.5t-46 24.5q-21 15 -35 35v-248h-140v722zM320 429q-29 0 -49 -8
t-34 -22q-21 -20 -29.5 -49t-8.5 -75v-23q0 -90 30.5 -126t87.5 -36h13l-60 96l83 52l58 -91q11 21 15.5 50t4.5 65q0 79 -27 123t-84 44z" />
    <glyph glyph-name="afii10050" unicode="&#x490;" horiz-adv-x="535" 
d="M73 714h326v99h130v-228h-307v-585h-149v714z" />
    <glyph glyph-name="afii10098" unicode="&#x491;" horiz-adv-x="447" 
d="M433 411h-233v-411h-140v528h253v78h120v-195z" />
    <glyph glyph-name="uni0492" unicode="&#x492;" horiz-adv-x="565" 
d="M103 297h-93v120h93v297h456v-129h-307v-168h190v-120h-190v-297h-149v297z" />
    <glyph glyph-name="uni0493" unicode="&#x493;" horiz-adv-x="458" 
d="M444 528v-117h-233v-118h147v-103h-147v-190h-140v190h-71v103h71v235h373z" />
    <glyph glyph-name="uni0494" unicode="&#x494;" horiz-adv-x="677" 
d="M222 423q26 8 62 14.5t76 6.5q78 0 133 -22.5t89 -62t49.5 -94.5t15.5 -120q0 -67 -20 -123t-60 -96.5t-100.5 -63t-141.5 -22.5h-45v127h51q37 0 67 9.5t51.5 31t33.5 55.5t12 83q0 86 -38.5 131t-124.5 45q-28 0 -56 -5t-54 -14v-303h-149v721h468v-129h-319v-169z" />
    <glyph glyph-name="uni0495" unicode="&#x495;" horiz-adv-x="572" 
d="M60 0v528h401v-116h-261v-117q20 5 44.5 8t61.5 3q55 0 98.5 -14.5t74 -45t47 -78t16.5 -112.5q0 -52 -16 -98.5t-50.5 -82t-88.5 -56.5t-129 -21h-34v113h31q28 0 54 6.5t45.5 22.5t31.5 44t12 70q0 77 -31 108t-92 31q-26 0 -43.5 -3.5t-31.5 -8.5v-181h-140z" />
    <glyph glyph-name="uni0496" unicode="&#x496;" horiz-adv-x="1058" 
d="M454 302h-30q-23 0 -46 -10t-41 -39l-162 -253h-167l192 296q20 30 38.5 48t41.5 27q-32 11 -52 33.5t-33 51.5l-34 74q-17 36 -35 47.5t-41 11.5q-7 0 -12.5 -0.5t-10.5 -1.5l-10 -2l-18 119q23 6 44.5 8t42.5 2t41 -3.5t38 -12.5t34 -25.5t28 -43.5l56 -119
q24 -51 54 -70t68 -19h14v293h149v-293h14q38 0 67.5 19t54.5 70l49 102q28 58 68 80t91 22q47 0 80 -10l-18 -119l-10 2t-10.5 1.5t-12.5 0.5q-23 0 -43 -11.5t-37 -47.5l-34 -74q-14 -31 -36 -52.5t-46 -32.5q27 -13 47.5 -36t42.5 -56l97 -150h71v-302h-130v173h-30
l-162 253q-9 14 -17.5 23.5t-18.5 15t-23 8t-32 2.5h-22v-302h-149v302z" />
    <glyph glyph-name="uni0497" unicode="&#x497;" horiz-adv-x="832" 
d="M487 0h-132v217h-25q-29 0 -45 -15t-35 -46l-96 -156h-149l129 199q21 33 42.5 49t44.5 22q-28 8 -44 26.5t-27 41.5l-21 46q-11 23 -22.5 30t-31.5 7q-18 0 -33 -4l-12 103q17 4 29.5 6t24.5 2q34 0 59 -5.5t44 -20t34.5 -40.5t32.5 -66q20 -49 39 -66.5t48 -17.5h14
v216h132v-216h14q30 0 47.5 17.5t37.5 66.5q17 40 32 66t33 40.5t41.5 20t58.5 5.5q24 0 59 -8l-12 -103q-15 4 -33 4q-20 0 -31.5 -7t-22.5 -30l-21 -46q-11 -23 -25.5 -41t-40.5 -26q23 -6 43.5 -22.5t42.5 -49.5l53 -83h59v-256h-120v140h-14l-98 156l-18 26.5t-16.5 19
t-18.5 11.5t-25 4h-25v-217z" />
    <glyph glyph-name="uni0498" unicode="&#x498;" horiz-adv-x="647" 
d="M237 -147q27 -5 44 -6t30 -1q25 0 35.5 8t10.5 22t-12.5 21t-45.5 7h-37l30 79q-132 6 -196.5 69t-65.5 168h143q3 -33 12 -55.5t26.5 -36.5t44 -20t65.5 -6q140 0 140 103q0 50 -38.5 76.5t-119.5 26.5h-70v119h78q66 0 101.5 25.5t35.5 71.5q0 42 -28.5 65.5
t-96.5 23.5t-99.5 -25.5t-42.5 -77.5l-136 18q17 103 87 153.5t191 50.5q70 0 120.5 -15.5t82.5 -41.5t47.5 -61t15.5 -74q0 -51 -24 -93.5t-72 -68.5q60 -24 86 -70.5t26 -97.5q0 -92 -58.5 -153t-173.5 -72l-13 -36q29 -3 47.5 -11.5t29.5 -20t15 -25.5t4 -28
q0 -48 -39 -67.5t-105 -19.5q-14 0 -31.5 1t-43.5 5v70z" />
    <glyph glyph-name="uni0499" unicode="&#x499;" horiz-adv-x="554" 
d="M184 -142q26 -4 42.5 -5t29.5 -1q44 0 44 28q0 14 -12 21t-44 7h-36l31 79q-101 6 -156 51t-57 136h135q5 -42 32.5 -60t85.5 -18q55 0 76 17t21 46q0 31 -20 46t-64 15h-108v94h112q33 0 50.5 15.5t17.5 44.5q0 26 -21.5 42.5t-68.5 16.5q-54 0 -77 -18.5t-34 -56.5
l-129 22q9 37 26 67t45.5 51.5t70 33t98.5 11.5q117 0 173 -42t56 -108q0 -40 -22.5 -71.5t-58.5 -43.5q18 -5 35 -14.5t30.5 -24t22 -35t8.5 -48.5q0 -70 -50 -114.5t-152 -53.5l-12 -35q27 -4 45 -12.5t28 -19.5t14 -24.5t4 -27.5q0 -46 -37.5 -66t-100.5 -20
q-14 0 -31.5 1t-41.5 5v69z" />
    <glyph glyph-name="uni049A" unicode="&#x49a;" horiz-adv-x="688" 
d="M508 0l-162 253q-9 14 -17.5 23.5t-18.5 15t-23 7.5t-32 2h-33v-301h-149v714h149v-292h25q38 0 67.5 18.5t54.5 69.5l49 102q28 58 68 80t91 22q47 0 80 -10l-18 -119l-10 2t-10.5 1.5t-12.5 0.5q-23 0 -43 -11.5t-37 -47.5l-34 -74q-14 -31 -36 -52.5t-46 -32.5
q27 -13 47.5 -36t42.5 -56l97 -150h71v-302h-130v173h-30z" />
    <glyph glyph-name="uni049B" unicode="&#x49b;" horiz-adv-x="555" 
d="M60 0v528h140v-216h24q30 0 48.5 17.5t38.5 66.5q17 40 33.5 66t36.5 40.5t45 20t60 5.5q22 0 57 -8l-12 -103q-15 4 -33 4q-20 0 -31.5 -7t-22.5 -30l-21 -46q-11 -25 -25 -42.5t-43 -27.5q20 -8 39 -23t39 -46l52 -83h60v-256h-120v140h-20l-98 156l-18 26.5t-16.5 19
t-18.5 11.5t-25 4h-29v-217h-140z" />
    <glyph glyph-name="uni049C" unicode="&#x49c;" horiz-adv-x="718" 
d="M220 418h44v135h96v-114q30 21 52 71l46 102q26 59 65.5 80.5t90.5 21.5q47 0 80 -10l-18 -119l-10 2t-10.5 1.5t-12.5 0.5q-23 0 -41.5 -11.5t-35.5 -47.5l-34 -74q-14 -31 -36 -52.5t-46 -32.5q27 -13 48 -36t42 -56l178 -279h-173l-161 253q-12 18 -24 30v-109h-96
v131h-44v-305h-147v714h147v-296z" />
    <glyph glyph-name="uni049D" unicode="&#x49d;" horiz-adv-x="596" 
d="M60 0v528h140v-218h34v111h80v-94q19 19 39 69q17 40 32.5 66t34.5 40.5t43.5 20t59.5 5.5q22 0 57 -8l-12 -103q-15 4 -33 4q-20 0 -31.5 -7t-22.5 -30l-21 -46q-11 -25 -25 -42.5t-43 -27.5q20 -8 39 -23t39 -46l126 -199h-152l-95 156l-19 28.5t-16 19.5v-92h-80v108
h-34v-220h-140z" />
    <glyph glyph-name="uni049E" unicode="&#x49e;" horiz-adv-x="705" 
d="M239 632h99v-119h-99v-91h32q38 0 67.5 18.5t54.5 69.5l49 102q28 58 68 80t91 22q47 0 80 -10l-18 -119l-10 2t-10.5 1.5t-12.5 0.5q-23 0 -43 -11.5t-37 -47.5l-34 -74q-14 -31 -36 -52.5t-46 -32.5q27 -13 47.5 -36t42.5 -56l181 -279h-173l-162 253q-9 14 -17.5 23.5
t-18.5 15t-23 7.5t-32 2h-40v-301h-149v513h-80v119h80v82h149v-82z" />
    <glyph glyph-name="uni049F" unicode="&#x49f;" 
d="M8 472h78v56h140v-56h73v-102h-73v-58h31q30 0 48.5 17.5t38.5 66.5q17 40 33.5 66t36.5 40.5t45 20t60 5.5q22 0 57 -8l-12 -103q-15 4 -33 4q-20 0 -31.5 -7t-22.5 -30l-21 -46q-11 -25 -25 -42.5t-43 -27.5q20 -8 39 -23t39 -46l126 -199h-154l-98 156l-18 26.5
t-16.5 19t-18.5 11.5t-25 4h-36v-217h-140v370h-78v102z" />
    <glyph glyph-name="uni04A0" unicode="&#x4a0;" horiz-adv-x="786" 
d="M327 422h25q38 0 67.5 18.5t54.5 69.5l49 102q28 58 68 80t91 22q47 0 80 -10l-18 -119l-10 2t-10.5 1.5t-12.5 0.5q-23 0 -43 -11.5t-37 -47.5l-34 -74q-14 -31 -36 -52.5t-46 -32.5q27 -13 47.5 -36t42.5 -56l181 -279h-173l-162 253q-9 14 -17.5 23.5t-18.5 15
t-23 7.5t-32 2h-33v-301h-149v585h-158v129h307v-292z" />
    <glyph glyph-name="uni04A1" unicode="&#x4a1;" horiz-adv-x="612" 
d="M113 0v412h-113v116h253v-216h24q30 0 48.5 17.5t38.5 66.5q17 40 33.5 66t36.5 40.5t45 20t60 5.5q22 0 57 -8l-12 -103q-15 4 -33 4q-20 0 -31.5 -7t-22.5 -30l-21 -46q-11 -25 -25 -42.5t-43 -27.5q20 -8 39 -23t39 -46l126 -199h-154l-98 156l-18 26.5t-16.5 19
t-18.5 11.5t-25 4h-29v-217h-140z" />
    <glyph glyph-name="uni04A2" unicode="&#x4a2;" horiz-adv-x="756" 
d="M654 129h82v-302h-130v173h-101v300h-283v-300h-149v714h149v-276h283v276h149v-585z" />
    <glyph glyph-name="uni04A3" unicode="&#x4a3;" horiz-adv-x="623" 
d="M60 528h140v-198h208v198h140v-412h65v-256h-120v140h-85v214h-208v-214h-140v528z" />
    <glyph glyph-name="uni04A4" unicode="&#x4a4;" horiz-adv-x="832" 
d="M73 714h149v-276h283v276h307v-129h-158v-585h-149v300h-283v-300h-149v714z" />
    <glyph glyph-name="uni04A5" unicode="&#x4a5;" horiz-adv-x="661" 
d="M548 0h-140v214h-208v-214h-140v528h140v-198h208v198h253v-116h-113v-412z" />
    <glyph glyph-name="uni04A6" unicode="&#x4a6;" horiz-adv-x="1082" 
d="M627 0h-149v585h-256v-585h-149v714h554v-291q26 8 62 14.5t76 6.5q78 0 133 -22.5t89 -62t49.5 -94.5t15.5 -120q0 -67 -20 -123t-60 -96.5t-100.5 -63t-141.5 -22.5h-45v127h51q37 0 67 9.5t51.5 31t33.5 55.5t12 83q0 86 -38.5 131t-124.5 45q-28 0 -56 -5t-54 -14
v-303z" />
    <glyph glyph-name="uni04A7" unicode="&#x4a7;" horiz-adv-x="898" 
d="M526 0h-140v412h-186v-412h-140v528h466v-233q20 5 44.5 8t61.5 3q55 0 98.5 -14.5t74 -45t47 -78t16.5 -112.5q0 -52 -16 -98.5t-50.5 -82t-88.5 -56.5t-129 -21h-34v113h31q28 0 54 6.5t45.5 22.5t31.5 44t12 70q0 77 -31 108t-92 31q-26 0 -43.5 -3.5t-31.5 -8.5v-181
z" />
    <glyph glyph-name="uni04A8" unicode="&#x4a8;" horiz-adv-x="844" 
d="M824 -2q-34 -11 -61.5 -13.5t-51.5 -2.5q-42 0 -85 8t-75 21q-34 -13 -71.5 -21t-82.5 -8q-66 0 -128 17.5t-111 61t-78.5 115.5t-29.5 182q0 100 27.5 171t74 116t107 66t125.5 21q51 0 91 -8.5t77 -26.5l-40 -111q-33 12 -65 18.5t-64 6.5q-36 0 -69.5 -14.5
t-58.5 -44.5t-40 -75.5t-15 -107.5q0 -84 18 -136.5t46 -82t63 -40t68 -10.5q11 0 21 1t20 3q-38 45 -57 95.5t-19 102.5q0 47 12.5 88.5t38 72t65.5 48t95 17.5q54 0 93 -18t64.5 -48.5t37.5 -70t12 -81.5q0 -55 -22.5 -109t-64.5 -100q12 -2 24 -2.5t19 -0.5q18 0 36.5 3
t32.5 8zM495 303q0 -56 16.5 -101t52.5 -71q24 14 39.5 34t24 43t11.5 47.5t3 48.5q0 56 -19 84.5t-54 28.5q-34 0 -54 -29.5t-20 -84.5z" />
    <glyph glyph-name="uni04A9" unicode="&#x4a9;" horiz-adv-x="644" 
d="M176 264q0 -51 9 -86t26.5 -56.5t41.5 -31t54 -9.5h12t12 1q-17 20 -27.5 38t-16 35.5t-7 34.5t-1.5 34q0 39 12 69t32.5 50t48 30t59.5 10q31 0 58 -9.5t47 -28.5t31.5 -46.5t11.5 -63.5q0 -46 -16 -83t-47 -72q5 -1 13 -1h13q20 0 35 3.5t32 9.5l25 -89
q-24 -11 -48 -16t-53 -5q-32 0 -67 7.5t-59 19.5q-21 -11 -50 -18t-55 -7q-59 0 -107 16.5t-81.5 50.5t-51.5 86t-18 123q0 134 69.5 208.5t197.5 74.5q27 0 56.5 -5.5t61.5 -20.5l-33 -97q-23 11 -47.5 14t-42.5 3q-59 0 -94.5 -40.5t-35.5 -132.5zM383 220
q0 -26 10.5 -55.5t35.5 -50.5q24 21 35 51.5t11 61.5q0 29 -10 47.5t-35 18.5q-26 0 -36.5 -20.5t-10.5 -52.5z" />
    <glyph glyph-name="uni04AA" unicode="&#x4aa;" horiz-adv-x="713" 
d="M270 -147q27 -5 44 -6t30 -1q25 0 35.5 8t10.5 22t-12.5 21t-45.5 7h-37l32 81q-68 8 -120 38.5t-87 78.5t-52.5 113t-17.5 142q0 87 23 156t66 118t104 75t138 26q68 0 118.5 -17t85 -49t55.5 -77t31 -101l-148 -19q-11 63 -42.5 99t-99.5 36q-86 0 -130.5 -64.5
t-44.5 -182.5q0 -119 47.5 -183t127.5 -64q69 0 101.5 35.5t40.5 101.5h160q-5 -54 -25 -101t-54.5 -82t-84 -56t-114.5 -25l-12 -34q29 -3 47.5 -11.5t29.5 -20t15 -25t4 -28.5q0 -47 -39 -67t-105 -20q-14 0 -31.5 1t-43.5 5v70z" />
    <glyph glyph-name="uni04AB" unicode="&#x4ab;" horiz-adv-x="569" 
d="M194 -142q26 -4 42.5 -5t29.5 -1q44 0 44 28q0 14 -12 21t-44 7h-36l31 80q-53 7 -92 29.5t-64 58.5t-37 83.5t-12 103.5q0 62 17.5 113.5t50.5 88.5t81 57.5t110 20.5q53 0 92.5 -13.5t66.5 -38t42 -58t20 -73.5l-141 -19q-5 40 -23 65t-62 25q-32 0 -53 -14t-33.5 -37
t-17.5 -53t-5 -62q0 -33 5 -63.5t17 -54t33 -37.5t53 -14q42 0 65 24t27 69h142q-8 -88 -57.5 -142.5t-148.5 -61.5l-11 -32q27 -4 45 -12.5t28 -19.5t14 -24.5t4 -27.5q0 -46 -37.5 -66t-100.5 -20q-14 0 -31.5 1t-41.5 5v69z" />
    <glyph glyph-name="uni04AC" unicode="&#x4ac;" horiz-adv-x="620" 
d="M337 0h-102v585h-215v129h580v-129h-215v-456h82v-302h-130v173z" />
    <glyph glyph-name="uni04AD" unicode="&#x4ad;" horiz-adv-x="510" 
d="M186 0v412h-171v116h480v-116h-169v-296h65v-256h-120v140h-85z" />
    <glyph glyph-name="uni04AE" unicode="&#x4ae;" horiz-adv-x="657" 
d="M257 291l-247 423h166l154 -289l159 289h158l-241 -423v-291h-149v291z" />
    <glyph glyph-name="uni04AF" unicode="&#x4af;" horiz-adv-x="568" 
d="M6 528h162l116 -359l123 359h155l-209 -494v-228h-140v226z" />
    <glyph glyph-name="uni04B0" unicode="&#x4b0;" horiz-adv-x="657" 
d="M546 312v-120h-140v-192h-149v192h-143v120h130l-234 402h166l154 -289l159 289h158l-229 -402h128z" />
    <glyph glyph-name="uni04B1" unicode="&#x4b1;" horiz-adv-x="568" 
d="M95 0v113h84l-173 415h162l116 -359l123 359h155l-176 -415h83v-113h-116v-194h-140v194h-118z" />
    <glyph glyph-name="uni04B2" unicode="&#x4b2;" horiz-adv-x="680" 
d="M530 0h-22l-173 260l-166 -260h-163l249 376l-232 338h170l147 -228l150 228h160l-228 -342l167 -243h71v-302h-130v173z" />
    <glyph glyph-name="uni04B3" unicode="&#x4b3;" horiz-adv-x="540" 
d="M377 0l-106 170l-111 -170h-152l189 268l-175 260h165l93 -155l104 155h146l-173 -252l106 -160h60v-256h-120v140h-26z" />
    <glyph glyph-name="uni04B4" unicode="&#x4b4;" horiz-adv-x="855" 
d="M195 0v585h-175v129h497v-129h-173v-456h260v585h149v-585h82v-302h-130v173h-510z" />
    <glyph glyph-name="uni04B5" unicode="&#x4b5;" horiz-adv-x="654" 
d="M116 0v412h-101v116h350v-116h-109v-296h183v412h140v-412h65v-256h-120v140h-408z" />
    <glyph glyph-name="uni04B6" unicode="&#x4b6;" horiz-adv-x="707" 
d="M456 289q-32 -13 -74 -21.5t-87 -8.5t-89 10t-78.5 35.5t-56 68t-21.5 108.5v233h149v-193q0 -77 29 -110.5t105 -33.5q30 0 66 7t57 17v313h149v-585h82v-302h-130v173h-101v289z" />
    <glyph glyph-name="uni04B7" unicode="&#x4b7;" horiz-adv-x="578" 
d="M363 0v194q-21 -4 -49 -7t-51 -3q-61 0 -103.5 13.5t-69 39t-38.5 61.5t-12 81v149h140v-122q0 -64 27 -86.5t84 -22.5q19 0 39.5 2.5t32.5 7.5v221h140v-412h65v-256h-120v140h-85z" />
    <glyph glyph-name="uni04B8" unicode="&#x4b8;" horiz-adv-x="698" 
d="M50 714h149v-196q0 -59 15.5 -92t60.5 -45v130h120v-134q23 4 45 9t36 12v316h149v-714h-149v292q-17 -7 -37.5 -12.5t-43.5 -9.5v-129h-120v122q-42 3 -82.5 15t-72 37.5t-51 67t-19.5 101.5v230z" />
    <glyph glyph-name="uni04B9" unicode="&#x4b9;" horiz-adv-x="583" 
d="M338 400v-106l25 4t20 5v225h140v-528h-140v200l-45 -6v-107h-105v104q-104 9 -148.5 60.5t-44.5 133.5v143h140v-126q0 -45 10.5 -68.5t42.5 -33.5v100h105z" />
    <glyph glyph-name="uni04BA" unicode="&#x4ba;" horiz-adv-x="678" 
d="M222 438q22 9 61.5 17.5t81.5 8.5q141 0 202 -58.5t61 -168.5v-237h-149v202q0 77 -29 110.5t-105 33.5q-30 0 -66 -7t-57 -17v-322h-149v714h149v-276z" />
    <glyph glyph-name="uni04BB" unicode="&#x4bb;" 
d="M62 714h140v-253q31 42 72 62t86 20q89 0 132 -46.5t43 -146.5v-350h-140v331q0 55 -21 75t-56 20q-27 0 -46.5 -8t-36.5 -23q-14 -14 -23.5 -33.5t-9.5 -42.5v-319h-140v714z" />
    <glyph glyph-name="uni04BC" unicode="&#x4bc;" horiz-adv-x="896" 
d="M840 215q-15 -107 -95 -170t-217 -63q-84 0 -144.5 26.5t-100.5 70.5t-61 102t-26 121q-98 0 -144.5 44t-46.5 119q0 32 10.5 64t29.5 61l102 -32q-10 -17 -16.5 -36.5t-6.5 -41.5q0 -26 17.5 -44t57.5 -19q8 62 31.5 119t64.5 100.5t99.5 69.5t137.5 26q80 0 139 -27.5
t98 -76t58 -115t19 -144.5v-66h-502q3 -43 17 -79t38 -62t58 -40.5t78 -14.5t72.5 10.5t45.5 26t24.5 34.5t10.5 37h152zM696 417q-2 41 -12 76t-30.5 61t-51.5 40.5t-74 14.5q-84 0 -127.5 -50.5t-52.5 -141.5h348z" />
    <glyph glyph-name="uni04BD" unicode="&#x4bd;" horiz-adv-x="699" 
d="M650 163q-14 -88 -70.5 -133.5t-164.5 -45.5q-68 0 -115.5 19t-78.5 52t-46.5 78t-19.5 97q-73 0 -114 37t-41 97q0 40 21 87l89 -21q-10 -28 -10 -50t12.5 -38t44.5 -20q8 55 32 96.5t58.5 69.5t77.5 41.5t90 13.5q60 0 105 -18t75.5 -52t45.5 -81.5t15 -105.5v-56h-362
q2 -63 32 -100t90 -37q83 0 98 70h136zM521 322q0 54 -26 85t-83 31q-28 0 -49 -9.5t-35.5 -25t-22.5 -36.5t-9 -45h225z" />
    <glyph glyph-name="uni04BE" unicode="&#x4be;" horiz-adv-x="896" 
d="M840 215q-14 -93 -75.5 -153t-167.5 -75v-160h-130v159q-68 9 -117 38.5t-82 72t-50.5 95.5t-21.5 110q-98 0 -144.5 44t-46.5 119q0 32 10.5 64t29.5 61l102 -32q-10 -17 -16.5 -36.5t-6.5 -41.5q0 -26 17.5 -44t57.5 -19q8 62 31.5 119t64.5 100.5t99.5 69.5t137.5 26
q80 0 139 -27.5t98 -76t58 -115t19 -144.5v-66h-502q3 -43 17 -79t38 -62t58 -40.5t78 -14.5t72.5 10.5t45.5 26t24.5 34.5t10.5 37h152zM696 417q-2 41 -12 76t-30.5 61t-51.5 40.5t-74 14.5q-84 0 -127.5 -50.5t-52.5 -141.5h348z" />
    <glyph glyph-name="uni04BF" unicode="&#x4bf;" horiz-adv-x="699" 
d="M650 163q-12 -74 -53 -117.5t-116 -56.5v-129h-120v128q-53 7 -90 28.5t-61.5 53.5t-37.5 73t-17 87q-73 0 -114 37t-41 97q0 40 21 87l89 -21q-10 -28 -10 -50t12.5 -38t44.5 -20q8 55 32 96.5t58.5 69.5t77.5 41.5t90 13.5q60 0 105 -18t75.5 -52t45.5 -81.5t15 -105.5
v-56h-362q2 -63 32 -100t90 -37q83 0 98 70h136zM521 322q0 54 -26 85t-83 31q-28 0 -49 -9.5t-35.5 -25t-22.5 -36.5t-9 -45h225z" />
    <glyph glyph-name="uni04C0" unicode="&#x4c0;" horiz-adv-x="295" 
d="M73 714h149v-714h-149v714z" />
    <glyph glyph-name="uni04C1" unicode="&#x4c1;" horiz-adv-x="1059" 
d="M454 302h-30q-23 0 -46 -10t-41 -39l-162 -253h-167l192 296q20 30 38.5 48t41.5 27q-32 11 -52 33.5t-33 51.5l-34 74q-17 36 -35 47.5t-41 11.5q-7 0 -12.5 -0.5t-10.5 -1.5l-10 -2l-18 119q23 6 44.5 8t42.5 2t41 -3.5t38 -12.5t34 -25.5t28 -43.5l56 -119
q24 -51 54 -70t68 -19h14v293h149v-293h14q38 0 67.5 19t54.5 70l49 102q28 58 68 80t91 22q47 0 80 -10l-18 -119l-10 2t-10.5 1.5t-12.5 0.5q-23 0 -43 -11.5t-37 -47.5l-34 -74q-14 -31 -36 -52.5t-46 -32.5q27 -13 47.5 -36t42.5 -56l181 -279h-173l-162 253
q-9 14 -17.5 23.5t-18.5 15t-23 8t-32 2.5h-22v-302h-149v302zM456 929q2 -38 22 -53t52 -15q31 0 51 15t22 53h100q0 -78 -46.5 -116.5t-126.5 -38.5q-84 0 -128 38.5t-44 116.5h98z" />
    <glyph glyph-name="uni04C2" unicode="&#x4c2;" horiz-adv-x="842" 
d="M487 0h-132v217h-25q-29 0 -45 -15t-35 -46l-96 -156h-149l129 199q21 33 42.5 49t44.5 22q-28 8 -44 26.5t-27 41.5l-21 46q-11 23 -22.5 30t-31.5 7q-18 0 -33 -4l-12 103q17 4 29.5 6t24.5 2q34 0 59 -5.5t44 -20t34.5 -40.5t32.5 -66q20 -49 39 -66.5t48 -17.5h14
v216h132v-216h14q30 0 47.5 17.5t37.5 66.5q17 40 32 66t33 40.5t41.5 20t58.5 5.5q24 0 59 -8l-12 -103q-15 4 -33 4q-20 0 -31.5 -7t-22.5 -30l-21 -46q-11 -23 -25.5 -41t-40.5 -26q23 -6 43.5 -22.5t42.5 -49.5l127 -199h-149l-98 156l-18 26.5t-16.5 19t-18.5 11.5
t-25 4h-25v-217zM350 746q2 -38 22 -53t52 -15q31 0 51 15t22 53h100q0 -78 -46.5 -116.5t-126.5 -38.5q-84 0 -128 38.5t-44 116.5h98z" />
    <glyph glyph-name="uni04C3" unicode="&#x4c3;" horiz-adv-x="693" 
d="M248 420q37 0 67.5 19.5t53.5 70.5l41 87q31 66 73.5 91.5t99.5 25.5q18 0 31.5 -1.5t23.5 -3.5q11 -3 19 -5l-18 -119l-10 2t-10.5 1.5t-12.5 0.5q-23 0 -43 -11.5t-37 -47.5l-32 -72q-8 -17 -19 -29.5t-23 -20.5q102 -21 156.5 -92.5t54.5 -189.5q0 -63 -20 -115.5
t-60 -90.5t-99.5 -59t-138.5 -21h-49v129h41q41 0 73.5 8t55 26.5t34 49t11.5 74.5q0 86 -43 131t-140 45h-106v-303h-149v714h149v-294h26z" />
    <glyph glyph-name="uni04C4" unicode="&#x4c4;" horiz-adv-x="587" 
d="M220 312q26 0 44 17t32 46l28 61q23 50 61 71t94 21q14 0 25 -1t19 -3q9 -2 16 -4l-12 -103l-10 2t-10.5 1.5t-12.5 0.5q-42 0 -59 -39l-21 -44q-13 -27 -37 -40q38 -8 71 -23t57 -42t38 -66.5t14 -96.5q0 -61 -16.5 -111t-52 -86t-90.5 -55.5t-131 -19.5h-32v113h31
q29 0 55.5 7t47 24.5t32.5 48t12 77.5q0 42 -11 70.5t-31.5 46t-49.5 25t-66 7.5h-55v-217h-140v528h140v-216h20z" />
    <glyph glyph-name="uni04C5" unicode="&#x4c5;" horiz-adv-x="788" 
d="M535 0v589h-162l-26 -215q-11 -84 -29 -154t-51.5 -121t-85.5 -79t-129 -28h-36v127h16q41 0 70.5 18t50 56.5t34.5 99.5t24 147l32 274h441v-585h84q0 -32 -2.5 -70t-16.5 -79t-45.5 -84.5t-88.5 -86.5l-86 83q28 21 55.5 48t41.5 60h-91z" />
    <glyph glyph-name="uni04C6" unicode="&#x4c6;" horiz-adv-x="612" 
d="M397 0v412h-121l-16 -140q-9 -75 -26.5 -127.5t-46 -85.5t-68 -48.5t-91.5 -15.5h-28v114h13q22 0 39.5 8.5t31.5 29.5t24.5 57t16.5 91l27 233h385v-412h65q0 -34 -2.5 -67.5t-15 -67.5t-39 -68.5t-74.5 -69.5l-76 76q50 39 73 81h-71z" />
    <glyph glyph-name="uni04C7" unicode="&#x4c7;" horiz-adv-x="727" 
d="M654 -11q0 -102 -47.5 -148t-137.5 -46q-55 0 -115 19l22 113q16 -4 32.5 -6.5t31.5 -2.5q14 0 26 2.5t20.5 10t13.5 21.5t5 36v312h-283v-300h-149v714h149v-276h283v276h149v-725z" />
    <glyph glyph-name="uni04C8" unicode="&#x4c8;" horiz-adv-x="608" 
d="M548 -22q0 -97 -43.5 -140t-128.5 -43q-25 0 -51.5 4t-55.5 13l20 105q34 -8 59 -8q27 0 43.5 12.5t16.5 53.5v239h-208v-214h-140v528h140v-198h208v198h140v-550z" />
    <glyph glyph-name="uni04C9" unicode="&#x4c9;" horiz-adv-x="758" 
d="M73 714h149v-276h283v276h149v-585h84q0 -32 -2.5 -70t-16.5 -79t-45.5 -84.5t-88.5 -86.5l-86 83q28 21 55.5 48t41.5 60h-91v300h-283v-300h-149v714z" />
    <glyph glyph-name="uni04CA" unicode="&#x4ca;" horiz-adv-x="623" 
d="M60 528h140v-198h208v198h140v-412h65q0 -34 -2.5 -67.5t-15 -67.5t-39 -68.5t-74.5 -69.5l-76 76q50 39 73 81h-71v214h-208v-214h-140v528z" />
    <glyph glyph-name="uni04CB" unicode="&#x4cb;" horiz-adv-x="678" 
d="M504 -173h-130v302h82v167q-22 -9 -61.5 -17.5t-81.5 -8.5q-141 0 -202 58.5t-61 168.5v217h149v-182q0 -77 29 -110.5t105 -33.5q30 0 66 7t57 17v302h149v-714h-101v-173z" />
    <glyph glyph-name="uni04CC" unicode="&#x4cc;" horiz-adv-x="563" 
d="M418 -140h-120v256h65v91q-21 -4 -49 -7t-51 -3q-61 0 -103.5 13.5t-69 39t-38.5 61.5t-12 81v136h140v-109q0 -64 27 -86.5t84 -22.5q19 0 39.5 2.5t32.5 7.5v208h140v-528h-85v-140z" />
    <glyph glyph-name="uni04CD" unicode="&#x4cd;" horiz-adv-x="891" 
d="M787 129h84q0 -32 -2.5 -70t-16.5 -79t-45.5 -84.5t-88.5 -86.5l-86 83q28 21 55.5 48t41.5 60h-79v476l-163 -476h-116l-164 475v-475h-134v714h179l178 -533l183 533h174v-585z" />
    <glyph glyph-name="uni04CE" unicode="&#x4ce;" horiz-adv-x="741" 
d="M540 0v301l-127 -301h-101l-126 305v-305h-126v528h152l155 -380l159 380h140v-412h65q0 -34 -2.5 -67.5t-15 -67.5t-39 -68.5t-74.5 -69.5l-76 76q50 39 73 81h-57z" />
    <glyph glyph-name="uni04CF" unicode="&#x4cf;" horiz-adv-x="295" 
d="M73 714h149v-714h-149v714z" />
    <glyph glyph-name="uni04D0" unicode="&#x4d0;" horiz-adv-x="698" 
d="M278 714h142l268 -714h-160l-57 165h-250l-57 -165h-154zM432 288l-87 256l-86 -256h173zM270 929q2 -38 22 -53t52 -15q31 0 51 15t22 53h100q0 -78 -46.5 -116.5t-126.5 -38.5q-84 0 -128 38.5t-44 116.5h98z" />
    <glyph glyph-name="uni04D1" unicode="&#x4d1;" horiz-adv-x="561" 
d="M372 66q-31 -35 -69.5 -57t-99.5 -22q-35 0 -66.5 9.5t-55 29t-37.5 49t-14 70.5q0 54 24 88t63 54t87.5 28t98.5 10l67 3v26q0 48 -26.5 66.5t-62.5 18.5q-83 0 -95 -63l-128 12q14 82 71.5 118.5t156.5 36.5q60 0 102 -14.5t67.5 -42t37 -66t11.5 -86.5v-334h-132v66z
M369 237l-62 -3q-44 -2 -71 -9t-41.5 -18.5t-19.5 -26t-5 -30.5q0 -26 18 -42t50 -16q54 0 88 25q19 14 31 36.5t12 54.5v29zM210 746q2 -38 22 -53t52 -15q31 0 51 15t22 53h100q0 -78 -46.5 -116.5t-126.5 -38.5q-84 0 -128 38.5t-44 116.5h98z" />
    <glyph glyph-name="uni04D2" unicode="&#x4d2;" horiz-adv-x="698" 
d="M278 714h142l268 -714h-160l-57 165h-250l-57 -165h-154zM432 288l-87 256l-86 -256h173zM174 911h134v-129h-134v129zM382 911h134v-129h-134v129z" />
    <glyph glyph-name="uni04D3" unicode="&#x4d3;" horiz-adv-x="561" 
d="M372 66q-31 -35 -69.5 -57t-99.5 -22q-35 0 -66.5 9.5t-55 29t-37.5 49t-14 70.5q0 54 24 88t63 54t87.5 28t98.5 10l67 3v26q0 48 -26.5 66.5t-62.5 18.5q-83 0 -95 -63l-128 12q14 82 71.5 118.5t156.5 36.5q60 0 102 -14.5t67.5 -42t37 -66t11.5 -86.5v-334h-132v66z
M369 237l-62 -3q-44 -2 -71 -9t-41.5 -18.5t-19.5 -26t-5 -30.5q0 -26 18 -42t50 -16q54 0 88 25q19 14 31 36.5t12 54.5v29zM114 733h130v-125h-130v125zM316 733h130v-125h-130v125z" />
    <glyph glyph-name="uni04D4" unicode="&#x4d4;" horiz-adv-x="1052" 
d="M415 714h593v-127h-317v-156h298v-128h-298v-176h338l-15 -127h-467v214h-262l-118 -214h-167zM547 337v250h-56l-138 -250h194z" />
    <glyph glyph-name="uni04D5" unicode="&#x4d5;" horiz-adv-x="897" 
d="M58 387q14 82 71 118.5t154 36.5q57 0 97 -18t69 -64q36 48 77.5 65t89.5 17q118 0 178 -69t60 -190v-56h-356q2 -63 31.5 -98.5t87.5 -35.5q80 0 95 70h136q-14 -88 -70 -133.5t-162 -45.5q-60 0 -113.5 22t-84.5 79q-30 -42 -76 -70t-122 -28q-42 0 -77 9t-60 28
t-39 48.5t-14 70.5q0 54 23.5 88t61.5 53.5t86 27t96 9.5l67 3v26q0 27 -7 44t-19 26.5t-27.5 13.5t-32.5 4q-80 0 -92 -63zM363 233l-62 -3q-43 -2 -69 -9t-39.5 -17.5t-18 -25t-4.5 -30.5q0 -26 17.5 -41t47.5 -15q27 0 47.5 6.5t37.5 18.5q19 14 31 35.5t12 53.5v27z
M719 319q0 118 -106 118q-54 0 -82 -33t-31 -85h219z" />
    <glyph glyph-name="uni04D6" unicode="&#x4d6;" horiz-adv-x="604" 
d="M73 714h487v-127h-338v-156h318v-128h-318v-176h359l-15 -127h-493v714zM262 929q2 -38 22 -53t52 -15q31 0 51 15t22 53h100q0 -78 -46.5 -116.5t-126.5 -38.5q-84 0 -128 38.5t-44 116.5h98z" />
    <glyph glyph-name="uni04D7" unicode="&#x4d7;" horiz-adv-x="589" 
d="M540 163q-14 -88 -70.5 -133.5t-164.5 -45.5q-130 0 -195.5 74t-65.5 206q0 66 19 118t53.5 87.5t82.5 54.5t106 19q120 0 180.5 -69.5t60.5 -186.5v-56h-362q2 -63 32 -100.5t90 -37.5q83 0 98 70h136zM411 323q0 54 -26 84.5t-83 30.5q-28 0 -49 -9t-35.5 -25
t-22.5 -36.5t-9 -44.5h225zM232 746q2 -38 22 -53t52 -15q31 0 51 15t22 53h100q0 -78 -46.5 -116.5t-126.5 -38.5q-84 0 -128 38.5t-44 116.5h98z" />
    <glyph glyph-name="uni04D8" unicode="&#x4d8;" horiz-adv-x="751" 
d="M58 516q15 46 40.5 86t63.5 68.5t89 45t117 16.5q93 0 156.5 -31t102.5 -82t56.5 -116.5t17.5 -134.5q0 -72 -18.5 -141t-59 -123.5t-104.5 -88t-155 -33.5q-81 0 -140.5 27.5t-98 76t-57 115t-18.5 144.5v66h502q-3 51 -18.5 88t-40.5 61t-56.5 35.5t-67.5 11.5
q-67 0 -105.5 -28t-64.5 -88zM200 297q1 -41 11.5 -76t31 -61t51.5 -40.5t74 -14.5q84 0 127.5 50.5t52.5 141.5h-348z" />
    <glyph glyph-name="uni04D9" unicode="&#x4d9;" horiz-adv-x="589" 
d="M50 372q16 84 80 127.5t164 43.5q61 0 107.5 -19.5t78.5 -55.5t48.5 -87.5t16.5 -115.5q0 -131 -67.5 -205.5t-191.5 -74.5q-121 0 -182 70t-61 190v53h363q-2 63 -30 99.5t-83 36.5q-42 0 -72.5 -17.5t-40.5 -63.5zM178 206q0 -54 25.5 -85.5t87.5 -31.5q26 0 46.5 9.5
t35 25.5t22.5 37t9 45h-226z" />
    <glyph glyph-name="uni04DA" unicode="&#x4da;" horiz-adv-x="751" 
d="M58 516q15 46 40.5 86t63.5 68.5t89 45t117 16.5q93 0 156.5 -31t102.5 -82t56.5 -116.5t17.5 -134.5q0 -72 -18.5 -141t-59 -123.5t-104.5 -88t-155 -33.5q-81 0 -140.5 27.5t-98 76t-57 115t-18.5 144.5v66h502q-3 51 -18.5 88t-40.5 61t-56.5 35.5t-67.5 11.5
q-67 0 -105.5 -28t-64.5 -88zM200 297q1 -41 11.5 -76t31 -61t51.5 -40.5t74 -14.5q84 0 127.5 50.5t52.5 141.5h-348zM210 911h134v-129h-134v129zM418 911h134v-129h-134v129z" />
    <glyph glyph-name="uni04DB" unicode="&#x4db;" horiz-adv-x="589" 
d="M50 372q16 84 80 127.5t164 43.5q61 0 107.5 -19.5t78.5 -55.5t48.5 -87.5t16.5 -115.5q0 -131 -67.5 -205.5t-191.5 -74.5q-121 0 -182 70t-61 190v53h363q-2 63 -30 99.5t-83 36.5q-42 0 -72.5 -17.5t-40.5 -63.5zM178 206q0 -54 25.5 -85.5t87.5 -31.5q26 0 46.5 9.5
t35 25.5t22.5 37t9 45h-226zM132 733h130v-125h-130v125zM334 733h130v-125h-130v125z" />
    <glyph glyph-name="uni04DC" unicode="&#x4dc;" horiz-adv-x="1059" 
d="M454 302h-30q-23 0 -46 -10t-41 -39l-162 -253h-167l192 296q20 30 38.5 48t41.5 27q-32 11 -52 33.5t-33 51.5l-34 74q-17 36 -35 47.5t-41 11.5q-7 0 -12.5 -0.5t-10.5 -1.5l-10 -2l-18 119q23 6 44.5 8t42.5 2t41 -3.5t38 -12.5t34 -25.5t28 -43.5l56 -119
q24 -51 54 -70t68 -19h14v293h149v-293h14q38 0 67.5 19t54.5 70l49 102q28 58 68 80t91 22q47 0 80 -10l-18 -119l-10 2t-10.5 1.5t-12.5 0.5q-23 0 -43 -11.5t-37 -47.5l-34 -74q-14 -31 -36 -52.5t-46 -32.5q27 -13 47.5 -36t42.5 -56l181 -279h-173l-162 253
q-9 14 -17.5 23.5t-18.5 15t-23 8t-32 2.5h-22v-302h-149v302zM354 911h134v-129h-134v129zM562 911h134v-129h-134v129z" />
    <glyph glyph-name="uni04DD" unicode="&#x4dd;" horiz-adv-x="842" 
d="M487 0h-132v217h-25q-29 0 -45 -15t-35 -46l-96 -156h-149l129 199q21 33 42.5 49t44.5 22q-28 8 -44 26.5t-27 41.5l-21 46q-11 23 -22.5 30t-31.5 7q-18 0 -33 -4l-12 103q17 4 29.5 6t24.5 2q34 0 59 -5.5t44 -20t34.5 -40.5t32.5 -66q20 -49 39 -66.5t48 -17.5h14
v216h132v-216h14q30 0 47.5 17.5t37.5 66.5q17 40 32 66t33 40.5t41.5 20t58.5 5.5q24 0 59 -8l-12 -103q-15 4 -33 4q-20 0 -31.5 -7t-22.5 -30l-21 -46q-11 -23 -25.5 -41t-40.5 -26q23 -6 43.5 -22.5t42.5 -49.5l127 -199h-149l-98 156l-18 26.5t-16.5 19t-18.5 11.5
t-25 4h-25v-217zM254 733h130v-125h-130v125zM456 733h130v-125h-130v125z" />
    <glyph glyph-name="uni04DE" unicode="&#x4de;" horiz-adv-x="647" 
d="M173 220q3 -33 12 -55.5t26.5 -36.5t44 -20t65.5 -6q140 0 140 103q0 50 -38.5 76.5t-119.5 26.5h-70v119h78q66 0 101.5 25.5t35.5 71.5q0 42 -28.5 65.5t-96.5 23.5t-99.5 -25.5t-42.5 -77.5l-136 18q17 103 87 153.5t191 50.5q70 0 120.5 -15.5t82.5 -41.5t47.5 -61
t15.5 -74q0 -51 -24 -93.5t-72 -68.5q60 -24 86 -70.5t26 -97.5t-18 -93t-54 -72t-89.5 -46.5t-125.5 -16.5q-144 0 -215.5 64.5t-72.5 173.5h143zM157 911h134v-129h-134v129zM365 911h134v-129h-134v129z" />
    <glyph glyph-name="uni04DF" unicode="&#x4df;" horiz-adv-x="554" 
d="M274 543q117 0 173 -42t56 -108q0 -40 -22.5 -71.5t-58.5 -43.5q18 -5 35 -14.5t30.5 -24t22 -35t8.5 -48.5q0 -77 -61 -123.5t-185 -46.5q-117 0 -180 45.5t-66 142.5h135q5 -42 32.5 -60t85.5 -18q55 0 76 17t21 46q0 31 -20 46t-64 15h-108v94h112q33 0 50.5 15.5
t17.5 44.5q0 26 -21.5 42.5t-68.5 16.5q-54 0 -77 -18.5t-34 -56.5l-129 22q9 37 26 67t45.5 51.5t70 33t98.5 11.5zM107 733h130v-125h-130v125zM309 733h130v-125h-130v125z" />
    <glyph glyph-name="uni04E0" unicode="&#x4e0;" horiz-adv-x="613" 
d="M362 585h-298v129h474v-110l-176 -176q104 -9 157.5 -61t53.5 -154q0 -51 -15.5 -93.5t-48 -73t-83.5 -47.5t-123 -17q-71 0 -121 16.5t-82 47.5t-48.5 75t-19.5 99h143q8 -56 35.5 -85.5t95.5 -29.5q123 0 123 108q0 54 -33.5 81.5t-114.5 27.5h-84v97z" />
    <glyph glyph-name="uni04E1" unicode="&#x4e1;" horiz-adv-x="525" 
d="M305 418h-269v110h436v-84l-185 -202h4q47 0 85.5 -15.5t66 -43.5t42.5 -68t15 -89q0 -57 -18 -100t-51 -72t-79.5 -43.5t-103.5 -14.5q-114 0 -173 47t-70 143h135q6 -40 31.5 -60.5t74.5 -20.5q52 0 84 30t32 89q0 62 -38 90t-108 28h-70v99z" />
    <glyph glyph-name="uni04E2" unicode="&#x4e2;" horiz-adv-x="713" 
d="M640 0h-145v469l-289 -469h-133v714h145v-474l288 474h134v-714zM201 901h310v-111h-310v111z" />
    <glyph glyph-name="uni04E3" unicode="&#x4e3;" horiz-adv-x="583" 
d="M523 0h-127v327l-217 -327h-119v528h126v-329l218 329h119v-528zM145 719h292v-107h-292v107z" />
    <glyph glyph-name="uni04E4" unicode="&#x4e4;" horiz-adv-x="713" 
d="M640 0h-145v469l-289 -469h-133v714h145v-474l288 474h134v-714zM192 911h134v-129h-134v129zM400 911h134v-129h-134v129z" />
    <glyph glyph-name="uni04E5" unicode="&#x4e5;" horiz-adv-x="583" 
d="M523 0h-127v327l-217 -327h-119v528h126v-329l218 329h119v-528zM125 733h130v-125h-130v125zM327 733h130v-125h-130v125z" />
    <glyph glyph-name="uni04E6" unicode="&#x4e6;" horiz-adv-x="780" 
d="M391 -18q-80 0 -143 26t-107 75t-67.5 118t-23.5 156t23.5 156t68 118t107.5 75t142 26q80 0 143 -26t106.5 -75t66.5 -118t23 -156t-22.5 -156t-66 -118t-106.5 -75t-144 -26zM390 110q94 0 140 64t46 183q0 118 -46 182.5t-140 64.5t-140 -64.5t-46 -182.5
q0 -119 46 -183t140 -64zM222 911h134v-129h-134v129zM430 911h134v-129h-134v129z" />
    <glyph glyph-name="uni04E7" unicode="&#x4e7;" horiz-adv-x="616" 
d="M308 -16q-127 0 -195.5 73.5t-68.5 208.5q0 64 18.5 115.5t53 87.5t83.5 55t109 19q61 0 110 -19t83.5 -55t52.5 -87.5t18 -115.5q0 -65 -18.5 -117t-53 -89t-83.5 -56.5t-109 -19.5zM308 96q60 0 89.5 44.5t29.5 125.5t-29.5 123t-89.5 42t-89.5 -42t-29.5 -123
t29 -125.5t90 -44.5zM142 733h130v-125h-130v125zM344 733h130v-125h-130v125z" />
    <glyph glyph-name="uni04E8" unicode="&#x4e8;" horiz-adv-x="780" 
d="M391 -18q-80 0 -143 26t-107 75t-67.5 118t-23.5 156t23.5 156t68 118t107.5 75t142 26q80 0 143 -26t106.5 -75t66.5 -118t23 -156t-22.5 -156t-66 -118t-106.5 -75t-144 -26zM390 110q81 0 127 47t58 137h-370q11 -90 57.5 -137t127.5 -47zM390 604q-81 0 -126.5 -46.5
t-58.5 -134.5h369q-12 88 -58 134.5t-126 46.5z" />
    <glyph glyph-name="uni04E9" unicode="&#x4e9;" horiz-adv-x="616" 
d="M308 -16q-127 0 -195.5 73.5t-68.5 208.5q0 64 18.5 115.5t53 87.5t83.5 55t109 19q61 0 110 -19t83.5 -55t52.5 -87.5t18 -115.5q0 -65 -18.5 -117t-53 -89t-83.5 -56.5t-109 -19.5zM308 93q51 0 81 31.5t39 89.5h-240q8 -59 38 -90t82 -31zM308 434q-51 0 -81 -29.5
t-39 -86.5h240q-9 57 -39 86.5t-81 29.5z" />
    <glyph glyph-name="uni04EA" unicode="&#x4ea;" horiz-adv-x="780" 
d="M222 911h134v-129h-134v129zM430 911h134v-129h-134v129zM391 -18q-80 0 -143 26t-107 75t-67.5 118t-23.5 156t23.5 156t68 118t107.5 75t142 26q80 0 143 -26t106.5 -75t66.5 -118t23 -156t-22.5 -156t-66 -118t-106.5 -75t-144 -26zM390 110q81 0 127 47t58 137h-370
q11 -90 57.5 -137t127.5 -47zM390 604q-81 0 -126.5 -46.5t-58.5 -134.5h369q-12 88 -58 134.5t-126 46.5z" />
    <glyph glyph-name="uni04EB" unicode="&#x4eb;" horiz-adv-x="616" 
d="M308 -16q-127 0 -195.5 73.5t-68.5 208.5q0 64 18.5 115.5t53 87.5t83.5 55t109 19q61 0 110 -19t83.5 -55t52.5 -87.5t18 -115.5q0 -65 -18.5 -117t-53 -89t-83.5 -56.5t-109 -19.5zM308 93q51 0 81 31.5t39 89.5h-240q8 -59 38 -90t82 -31zM308 434q-51 0 -81 -29.5
t-39 -86.5h240q-9 57 -39 86.5t-81 29.5zM151 733h130v-125h-130v125zM353 733h130v-125h-130v125z" />
    <glyph glyph-name="uni04EC" unicode="&#x4ec;" horiz-adv-x="710" 
d="M503 431q-7 52 -23 86t-38 53t-47.5 26.5t-50.5 7.5q-24 0 -48 -2.5t-45 -13t-38.5 -31t-29.5 -56.5l-145 20q29 103 102.5 157t197.5 54q70 0 129 -22.5t102 -68t67 -114t24 -160.5q0 -187 -84 -286t-245 -99q-72 0 -126.5 17t-91.5 48.5t-57.5 75t-25.5 97.5h151
q8 -47 42.5 -78.5t101.5 -31.5q89 0 130 44t49 149h-276v128h275zM172 911h134v-129h-134v129zM380 911h134v-129h-134v129z" />
    <glyph glyph-name="uni04ED" unicode="&#x4ed;" horiz-adv-x="580" 
d="M195 314h196q-3 56 -30.5 88t-79.5 32q-41 0 -70 -19.5t-37 -55.5l-129 19q7 34 25 64t48 52.5t72 35.5t97 13q114 0 181.5 -70.5t67.5 -208.5q0 -66 -18 -118t-51 -88t-79.5 -55t-104.5 -19q-105 0 -169.5 44.5t-75.5 140.5h134q9 -38 35.5 -57t77.5 -19t77.5 31.5
t30.5 91.5h-198v98zM122 733h130v-125h-130v125zM324 733h130v-125h-130v125z" />
    <glyph glyph-name="uni04EE" unicode="&#x4ee;" horiz-adv-x="625" 
d="M54 113q11 -5 32 -9.5t40 -4.5q38 0 70.5 17.5t51.5 62.5l13 31l-261 504h164l168 -360l141 360h152l-241 -549q-20 -46 -43 -80t-53.5 -57t-69.5 -34.5t-90 -11.5q-32 0 -60.5 6t-42.5 13zM171 901h310v-111h-310v111z" />
    <glyph glyph-name="uni04EF" unicode="&#x4ef;" horiz-adv-x="567" 
d="M76 -74q30 -8 59 -8q28 0 45 13.5t29 47.5l16 44l-217 505h162l122 -349l114 349h153l-211 -543q-18 -45 -34 -78.5t-36.5 -56t-49 -33.5t-70.5 -11q-26 0 -51.5 3.5t-53.5 12.5zM147 719h292v-107h-292v107z" />
    <glyph glyph-name="uni04F0" unicode="&#x4f0;" horiz-adv-x="625" 
d="M54 113q11 -5 32 -9.5t40 -4.5q38 0 70.5 17.5t51.5 62.5l13 31l-261 504h164l168 -360l141 360h152l-241 -549q-20 -46 -43 -80t-53.5 -57t-69.5 -34.5t-90 -11.5q-32 0 -60.5 6t-42.5 13zM151 911h134v-129h-134v129zM359 911h134v-129h-134v129z" />
    <glyph glyph-name="uni04F1" unicode="&#x4f1;" horiz-adv-x="567" 
d="M76 -74q30 -8 59 -8q28 0 45 13.5t29 47.5l16 44l-217 505h162l122 -349l114 349h153l-211 -543q-18 -45 -34 -78.5t-36.5 -56t-49 -33.5t-70.5 -11q-26 0 -51.5 3.5t-53.5 12.5zM127 733h130v-125h-130v125zM329 733h130v-125h-130v125z" />
    <glyph glyph-name="uni04F2" unicode="&#x4f2;" horiz-adv-x="625" 
d="M54 113q11 -5 32 -9.5t40 -4.5q38 0 70.5 17.5t51.5 62.5l13 31l-261 504h164l168 -360l141 360h152l-241 -549q-20 -46 -43 -80t-53.5 -57t-69.5 -34.5t-90 -11.5q-32 0 -60.5 6t-42.5 13zM464 917h154l-156 -145h-123zM252 917h154l-156 -145h-123z" />
    <glyph glyph-name="uni04F3" unicode="&#x4f3;" horiz-adv-x="567" 
d="M76 -74q30 -8 59 -8q28 0 45 13.5t29 47.5l16 44l-217 505h162l122 -349l114 349h153l-211 -543q-18 -45 -34 -78.5t-36.5 -56t-49 -33.5t-70.5 -11q-26 0 -51.5 3.5t-53.5 12.5zM220 749h144l-133 -155h-114zM417 749h144l-133 -155h-114z" />
    <glyph glyph-name="uni04F4" unicode="&#x4f4;" horiz-adv-x="678" 
d="M456 289q-32 -13 -74 -21.5t-87 -8.5t-89 10t-78.5 35.5t-56 68t-21.5 108.5v233h149v-193q0 -77 29 -110.5t105 -33.5q30 0 66 7t57 17v313h149v-714h-149v289zM155 911h134v-129h-134v129zM363 911h134v-129h-134v129z" />
    <glyph glyph-name="uni04F5" unicode="&#x4f5;" horiz-adv-x="563" 
d="M363 194q-21 -4 -49 -7t-51 -3q-61 0 -103.5 13.5t-69 39t-38.5 61.5t-12 81v149h140v-122q0 -64 27 -86.5t84 -22.5q19 0 39.5 2.5t32.5 7.5v221h140v-528h-140v194zM106 733h130v-125h-130v125zM308 733h130v-125h-130v125z" />
    <glyph glyph-name="uni04F6" unicode="&#x4f6;" horiz-adv-x="535" 
d="M73 0v714h456v-129h-307v-456h82v-302h-130v173h-101z" />
    <glyph glyph-name="uni04F7" unicode="&#x4f7;" horiz-adv-x="439" 
d="M60 0v528h373v-117h-233v-295h65v-256h-120v140h-85z" />
    <glyph glyph-name="uni04F8" unicode="&#x4f8;" horiz-adv-x="929" 
d="M73 714h149v-245h99q80 0 133.5 -19t85.5 -51t45.5 -74t13.5 -88q0 -48 -13.5 -91t-46 -75.5t-87 -51.5t-136.5 -19h-243v714zM222 345v-222h92q78 0 108 28t30 81q0 27 -6.5 48t-22.5 35.5t-42.5 22t-65.5 7.5h-93zM707 714h149v-714h-149v714zM306 911h134v-129h-134
v129zM514 911h134v-129h-134v129z" />
    <glyph glyph-name="uni04F9" unicode="&#x4f9;" horiz-adv-x="794" 
d="M200 528v-169h124q53 0 92 -13.5t64 -37t37 -56t12 -70.5q0 -83 -53.5 -132.5t-163.5 -49.5h-252v528h140zM595 528h139v-528h-139v528zM200 114h109q76 0 76 65q0 31 -17 49t-62 18h-106v-132zM231 733h130v-125h-130v125zM433 733h130v-125h-130v125z" />
    <glyph glyph-name="Wgrave" unicode="&#x1e80;" horiz-adv-x="968" 
d="M10 714h168l115 -496l117 492h158l122 -492l108 496h160l-194 -714h-145l-133 528l-129 -528h-141zM460 917l128 -145h-131l-159 145h162z" />
    <glyph glyph-name="wgrave" unicode="&#x1e81;" horiz-adv-x="773" 
d="M6 522h152l73 -346l100 342h122l95 -342l73 346h146l-152 -522h-136l-93 344l-94 -344h-134zM195 749h159l120 -155h-129z" />
    <glyph glyph-name="Wacute" unicode="&#x1e82;" horiz-adv-x="968" 
d="M10 714h168l115 -496l117 492h158l122 -492l108 496h160l-194 -714h-145l-133 528l-129 -528h-141zM517 917h162l-159 -145h-131z" />
    <glyph glyph-name="wacute" unicode="&#x1e83;" horiz-adv-x="773" 
d="M6 522h152l73 -346l100 342h122l95 -342l73 346h146l-152 -522h-136l-93 344l-94 -344h-134zM429 749h159l-150 -155h-129z" />
    <glyph glyph-name="Wdieresis" unicode="&#x1e84;" horiz-adv-x="968" 
d="M10 714h168l115 -496l117 492h158l122 -492l108 496h160l-194 -714h-145l-133 528l-129 -528h-141zM313 911h134v-129h-134v129zM521 911h134v-129h-134v129z" />
    <glyph glyph-name="wdieresis" unicode="&#x1e85;" horiz-adv-x="773" 
d="M6 522h152l73 -346l100 342h122l95 -342l73 346h146l-152 -522h-136l-93 344l-94 -344h-134zM220 733h130v-125h-130v125zM422 733h130v-125h-130v125z" />
    <glyph glyph-name="Ygrave" unicode="&#x1ef2;" horiz-adv-x="657" 
d="M257 291l-247 423h166l154 -289l159 289h158l-241 -423v-291h-149v291zM286 917l128 -145h-131l-159 145h162z" />
    <glyph glyph-name="ygrave" unicode="&#x1ef3;" horiz-adv-x="567" 
d="M76 -74q29 -8 59 -8q28 0 45 13.5t29 47.5l16 44l-217 499h162l122 -343l114 343h153l-211 -537q-18 -45 -34 -78.5t-36.5 -56t-49 -33.5t-70.5 -11q-26 0 -51.5 3.5t-53.5 12.5zM92 749h159l120 -155h-129z" />
    <glyph glyph-name="endash" unicode="&#x2013;" horiz-adv-x="500" 
d="M0 365h500v-132h-500v132z" />
    <glyph glyph-name="emdash" unicode="&#x2014;" horiz-adv-x="1000" 
d="M0 365h1000v-132h-1000v132z" />
    <glyph glyph-name="afii00208" unicode="&#x2015;" horiz-adv-x="1000" 
d="M0 365h1000v-132h-1000v132z" />
    <glyph glyph-name="quoteleft" unicode="&#x2018;" horiz-adv-x="241" 
d="M104 714h107l-32 -254h-137z" />
    <glyph glyph-name="quoteright" unicode="&#x2019;" horiz-adv-x="241" 
d="M63 714h136l-62 -254h-107z" />
    <glyph glyph-name="quotesinglbase" unicode="&#x201a;" horiz-adv-x="241" 
d="M68 161h136l-62 -255h-107z" />
    <glyph glyph-name="quotedblleft" unicode="&#x201c;" horiz-adv-x="418" 
d="M104 714h99l-32 -254h-129zM289 714h99l-32 -254h-129z" />
    <glyph glyph-name="quotedblright" unicode="&#x201d;" horiz-adv-x="418" 
d="M247 714h129l-62 -254h-99zM63 714h128l-62 -254h-99z" />
    <glyph glyph-name="quotedblbase" unicode="&#x201e;" horiz-adv-x="418" 
d="M252 160h129l-62 -255h-99zM68 160h128l-62 -255h-99z" />
    <glyph glyph-name="dagger" unicode="&#x2020;" horiz-adv-x="479" 
d="M170 407h-155v124h155v183h139v-183h155v-124h-155v-494h-139v494z" />
    <glyph glyph-name="daggerdbl" unicode="&#x2021;" horiz-adv-x="479" 
d="M170 99h-155v124h155v194h-155v124h155v173h139v-173h155v-124h-155v-194h155v-124h-155v-186h-139v186z" />
    <glyph glyph-name="bullet" unicode="&#x2022;" horiz-adv-x="400" 
d="M50 364q0 33 11.5 60.5t31.5 47t47.5 30.5t60.5 11q32 0 59.5 -11t47.5 -30.5t31 -47t11 -60.5q0 -34 -11 -61.5t-31 -47.5t-47.5 -31t-59.5 -11q-33 0 -60.5 11t-47.5 31t-31.5 47.5t-11.5 61.5z" />
    <glyph glyph-name="ellipsis" unicode="&#x2026;" horiz-adv-x="975" 
d="M416 161h143v-161h-143v161zM52 161h143v-161h-143v161zM781 161h143v-161h-143v161z" />
    <glyph glyph-name="perthousand" unicode="&#x2030;" horiz-adv-x="1384" 
d="M215 271q-39 0 -73 12.5t-59 38.5t-39 67.5t-14 98.5t14.5 98.5t39.5 68.5t58.5 40t72.5 13q40 0 74 -13t58.5 -40t38.5 -68.5t14 -98.5t-13.5 -98.5t-38.5 -67.5t-59 -38.5t-74 -12.5zM215 369q33 0 51.5 25.5t18.5 93.5t-18.5 94.5t-51.5 26.5q-32 0 -50.5 -26.5
t-18.5 -94.5t18.5 -93.5t50.5 -25.5zM378 0h-135l348 691h135zM755 -16q-39 0 -73 12.5t-59 38.5t-39 67.5t-14 98.5t14.5 98.5t39.5 68.5t58.5 40t72.5 13q40 0 74 -13t58.5 -40t38.5 -68.5t14 -98.5t-13.5 -98.5t-38.5 -67.5t-59 -38.5t-74 -12.5zM755 82q33 0 51.5 25.5
t18.5 93.5t-18.5 94.5t-51.5 26.5q-32 0 -50.5 -26.5t-18.5 -94.5t18.5 -93.5t50.5 -25.5zM1169 -16q-39 0 -73 12.5t-59 38.5t-39 67.5t-14 98.5t14.5 98.5t39.5 68.5t58.5 40t72.5 13q40 0 74 -13t58.5 -40t38.5 -68.5t14 -98.5t-13.5 -98.5t-38.5 -67.5t-59 -38.5
t-74 -12.5zM1169 82q33 0 51.5 25.5t18.5 93.5t-18.5 94.5t-51.5 26.5q-32 0 -50.5 -26.5t-18.5 -94.5t18.5 -93.5t50.5 -25.5z" />
    <glyph glyph-name="guilsinglleft" unicode="&#x2039;" horiz-adv-x="327" 
d="M35 258l128 224h144l-116 -223l116 -229h-146z" />
    <glyph glyph-name="guilsinglright" unicode="&#x203a;" horiz-adv-x="327" 
d="M136 254l-116 228h147l125 -227l-127 -225h-145z" />
    <glyph glyph-name="fraction" unicode="&#x2044;" horiz-adv-x="113" 
d="M-50 0h-135l348 691h135z" />
    <glyph glyph-name="zerosuperior" unicode="&#x2070;" horiz-adv-x="412" 
d="M206 271q-39 0 -73 12.5t-59 38.5t-39 67.5t-14 98.5t14.5 98.5t39.5 68.5t58.5 40t72.5 13q40 0 74 -13t58.5 -40t38.5 -68.5t14 -98.5t-13.5 -98.5t-38.5 -67.5t-59 -38.5t-74 -12.5zM206 369q33 0 51.5 25.5t18.5 93.5t-18.5 94.5t-51.5 26.5q-32 0 -50.5 -26.5
t-18.5 -94.5t18.5 -93.5t50.5 -25.5z" />
    <glyph glyph-name="foursuperior" unicode="&#x2074;" horiz-adv-x="412" 
d="M35 432l195 259h92v-242h52l-10 -80h-42v-81h-95v81h-192v63zM227 449v124l-92 -124h92z" />
    <glyph glyph-name="fivesuperior" unicode="&#x2075;" horiz-adv-x="412" 
d="M150 406q4 -23 16.5 -36.5t41.5 -13.5q30 0 43.5 16.5t13.5 45.5q0 59 -59 59q-17 0 -31 -5t-28 -18h-80l22 237h244v-84h-160q-2 -17 -3 -34t-3 -36q14 5 33 8t30 3q35 0 60.5 -10t41.5 -27.5t23.5 -41t7.5 -51.5q0 -73 -40 -110t-112 -37q-145 0 -154 135h93z" />
    <glyph glyph-name="sixsuperior" unicode="&#x2076;" horiz-adv-x="412" 
d="M272 576q-2 25 -16 37.5t-36 12.5q-71 0 -78 -108q39 26 90 26q69 0 102.5 -35t33.5 -94q0 -31 -11.5 -57t-32.5 -45.5t-51 -30.5t-67 -11q-50 0 -82 18t-50 46t-25 62t-7 66q0 68 14 114.5t38 75.5t56 42t69 13q73 0 106.5 -32.5t42.5 -89.5zM207 349q26 0 46 14t20 48
q0 29 -15.5 46.5t-45.5 17.5q-26 0 -46.5 -12.5t-20.5 -44.5q0 -26 14.5 -47.5t47.5 -21.5z" />
    <glyph glyph-name="sevensuperior" unicode="&#x2077;" horiz-adv-x="412" 
d="M111 288q28 89 59 168t64 145h-187v90h309v-77q-42 -77 -74 -154t-58 -172h-113z" />
    <glyph glyph-name="eightsuperior" unicode="&#x2078;" horiz-adv-x="412" 
d="M105 496q-26 17 -37.5 41t-11.5 49q0 52 36.5 86.5t113.5 34.5q80 0 115.5 -33.5t35.5 -88.5q0 -24 -12 -47.5t-39 -40.5q29 -15 46.5 -39t17.5 -59q0 -59 -41 -93t-122 -34q-86 0 -125.5 34.5t-39.5 92.5q0 32 18 56.5t45 40.5zM147 582q0 -49 59 -49q55 0 55 50
q0 20 -13 33.5t-42 13.5q-30 0 -44.5 -14t-14.5 -34zM139 400q0 -23 17.5 -37t50.5 -14q32 0 49 14.5t17 38.5q0 22 -16 35.5t-50 13.5q-35 0 -51.5 -14.5t-16.5 -36.5z" />
    <glyph glyph-name="ninesuperior" unicode="&#x2079;" horiz-adv-x="412" 
d="M138 396q4 -26 19.5 -35t37.5 -9q35 0 54 27.5t17 81.5q-20 -14 -41.5 -20.5t-48.5 -6.5q-69 0 -102.5 36.5t-33.5 95.5q0 30 11 56t32 45t51 30t68 11q50 0 82 -20t50 -50t25 -66t7 -68q0 -68 -13 -113t-35.5 -71.5t-53.5 -37.5t-68 -11q-75 0 -112 32t-42 93h96z
M196 504q26 0 46.5 12.5t20.5 44.5q0 26 -14.5 47t-47.5 21q-26 0 -46 -12.5t-20 -46.5q0 -29 15.5 -47.5t45.5 -18.5z" />
    <glyph glyph-name="zeroinferior" unicode="&#x2080;" horiz-adv-x="412" 
d="M206 -16q-39 0 -73 12.5t-59 38.5t-39 67.5t-14 98.5t14.5 98.5t39.5 68.5t58.5 40t72.5 13q40 0 74 -13t58.5 -40t38.5 -68.5t14 -98.5t-13.5 -98.5t-38.5 -67.5t-59 -38.5t-74 -12.5zM206 82q33 0 51.5 25.5t18.5 93.5t-18.5 94.5t-51.5 26.5q-32 0 -50.5 -26.5
t-18.5 -94.5t18.5 -93.5t50.5 -25.5z" />
    <glyph glyph-name="oneinferior" unicode="&#x2081;" horiz-adv-x="412" 
d="M175 302l-93 -50l-40 73l141 79h98v-403h-106v301z" />
    <glyph glyph-name="twoinferior" unicode="&#x2082;" horiz-adv-x="412" 
d="M55 75q13 12 36 29.5t67 55.5l41.5 36.5t29 30t17 29t5.5 32.5q0 20 -11.5 32.5t-34.5 12.5q-26 0 -41.5 -13.5t-22.5 -52.5l-102 13q6 28 17.5 54t31.5 45t50 30.5t73 11.5q72 0 110 -34.5t38 -94.5q0 -20 -4.5 -37.5t-14.5 -34t-24.5 -34t-33.5 -36.5
q-14 -14 -33 -28.5t-39 -31.5h154l-11 -89h-298v74z" />
    <glyph glyph-name="threeinferior" unicode="&#x2083;" horiz-adv-x="412" 
d="M146 134q4 -38 21.5 -54t46.5 -16q28 0 46 11.5t18 43.5q0 24 -17.5 36t-45.5 12h-42v80h43q27 0 41 13.5t14 34.5q0 23 -13.5 34.5t-43.5 11.5q-26 0 -43 -12.5t-23 -47.5l-94 13q11 56 48.5 91.5t114.5 35.5q78 0 114 -33.5t36 -84.5q0 -29 -14.5 -51t-40.5 -39
q32 -13 48 -39t16 -54q0 -61 -37 -98.5t-122 -37.5q-47 0 -78 13.5t-50 34.5t-27.5 48t-9.5 54h94z" />
    <glyph glyph-name="fourinferior" unicode="&#x2084;" horiz-adv-x="412" 
d="M35 145l195 259h92v-242h52l-10 -80h-42v-81h-95v81h-192v63zM227 162v124l-92 -124h92z" />
    <glyph glyph-name="fiveinferior" unicode="&#x2085;" horiz-adv-x="412" 
d="M150 119q4 -23 16.5 -36.5t41.5 -13.5q30 0 43.5 16.5t13.5 45.5q0 59 -59 59q-17 0 -31 -5t-28 -18h-80l22 237h244v-84h-160q-2 -17 -3 -34t-3 -36q14 5 33 8t30 3q35 0 60.5 -10t41.5 -27.5t23.5 -41t7.5 -51.5q0 -73 -40 -110t-112 -37q-145 0 -154 135h93z" />
    <glyph glyph-name="sixinferior" unicode="&#x2086;" horiz-adv-x="412" 
d="M272 289q-2 25 -16 37.5t-36 12.5q-71 0 -78 -108q39 26 90 26q69 0 102.5 -35t33.5 -94q0 -31 -11.5 -57t-32.5 -45.5t-51 -30.5t-67 -11q-50 0 -82 18t-50 46t-25 62t-7 66q0 68 14 114.5t38 75.5t56 42t69 13q73 0 106.5 -32.5t42.5 -89.5zM207 62q26 0 46 14t20 48
q0 29 -15.5 46.5t-45.5 17.5q-26 0 -46.5 -12.5t-20.5 -44.5q0 -26 14.5 -47.5t47.5 -21.5z" />
    <glyph glyph-name="seveninferior" unicode="&#x2087;" horiz-adv-x="412" 
d="M111 1q28 89 59 168t64 145h-187v90h309v-77q-42 -77 -74 -154t-58 -172h-113z" />
    <glyph glyph-name="eightinferior" unicode="&#x2088;" horiz-adv-x="412" 
d="M105 209q-26 17 -37.5 41t-11.5 49q0 52 36.5 86.5t113.5 34.5q80 0 115.5 -33.5t35.5 -88.5q0 -24 -12 -47.5t-39 -40.5q29 -15 46.5 -39t17.5 -59q0 -59 -41 -93t-122 -34q-86 0 -125.5 34.5t-39.5 92.5q0 32 18 56.5t45 40.5zM147 295q0 -49 59 -49q55 0 55 50
q0 20 -13 33.5t-42 13.5q-30 0 -44.5 -14t-14.5 -34zM139 113q0 -23 17.5 -37t50.5 -14q32 0 49 14.5t17 38.5q0 22 -16 35.5t-50 13.5q-35 0 -51.5 -14.5t-16.5 -36.5z" />
    <glyph glyph-name="nineinferior" unicode="&#x2089;" horiz-adv-x="412" 
d="M138 109q4 -26 19.5 -35t37.5 -9q35 0 54 27.5t17 81.5q-20 -14 -41.5 -20.5t-48.5 -6.5q-69 0 -102.5 36.5t-33.5 95.5q0 30 11 56t32 45t51 30t68 11q50 0 82 -20t50 -50t25 -66t7 -68q0 -68 -13 -113t-35.5 -71.5t-53.5 -37.5t-68 -11q-75 0 -112 32t-42 93h96z
M196 217q26 0 46.5 12.5t20.5 44.5q0 26 -14.5 47t-47.5 21q-26 0 -46 -12.5t-20 -46.5q0 -29 15.5 -47.5t45.5 -18.5z" />
    <glyph glyph-name="Euro" unicode="&#x20ac;" 
d="M28 312h51v61h-65l14 91h61q9 51 28.5 96t51 78t76 52.5t103.5 19.5q108 0 160.5 -50.5t65.5 -150.5l-125 -20q-11 54 -33.5 76.5t-72.5 22.5q-48 0 -75.5 -35t-38.5 -89h160l-14 -91h-157v-61h150l-15 -91h-124q11 -53 38 -85.5t74 -32.5q54 0 79.5 26t31.5 80h131
q-8 -112 -67.5 -169.5t-177.5 -57.5q-57 0 -100 17t-73.5 48t-49.5 75t-28 99h-73z" />
    <glyph glyph-name="uni20AE" unicode="&#x20ae;" 
d="M135 227l-43 65l129 82v195h-193v123h524v-123h-193v-114l80 52l43 -65l-123 -79v-76l80 52l43 -65l-123 -79v-195h-138v114l-86 -55l-43 65l129 82v76z" />
    <glyph glyph-name="uni20B4" unicode="&#x20b4;" 
d="M545 182q-2 -103 -65.5 -151.5t-181.5 -48.5q-68 0 -114 16.5t-73.5 44t-39 63t-11.5 73.5q0 15 1 28.5t3 25.5h-46v71h84q21 26 53 44.5t73 32.5h-210v71h347q12 11 18.5 26.5t6.5 38.5q0 38 -25 56t-63 18q-45 0 -67 -23.5t-30 -61.5l-136 20q9 58 35 94t59.5 56t71 27
t70.5 7q104 0 163 -49t59 -143q0 -38 -6 -66h45v-71h-101q-33 -33 -74.5 -50t-83.5 -27h259v-71h-359q-7 -15 -7 -38q0 -41 23.5 -67.5t74.5 -26.5q50 0 74.5 17t26.5 64h146z" />
    <glyph glyph-name="afii61289" unicode="&#x2113;" horiz-adv-x="525" 
d="M32 177q23 19 43.5 34l40.5 31v231q0 66 14.5 114.5t40.5 80t60.5 46.5t75.5 15q40 0 69 -14t48 -38t28.5 -56t9.5 -68q0 -86 -54.5 -167t-150.5 -166v-35q0 -42 21.5 -65.5t55.5 -23.5q28 0 53 13t45 33l59 -70q-41 -50 -90 -70t-102 -20q-44 0 -75.5 11.5t-52.5 31.5
t-33.5 47.5t-18.5 59.5q-1 3 -1 8q-12 -8 -24 -17.5t-25 -17.5zM257 344q48 54 78.5 110.5t30.5 103.5q0 34 -11 53.5t-40 19.5q-10 0 -20.5 -6.5t-18.5 -23t-13.5 -44t-5.5 -69.5v-144z" />
    <glyph glyph-name="afii61352" unicode="&#x2116;" horiz-adv-x="1119" 
d="M73 714h134l294 -468v468h145v-714h-133l-295 464v-464h-145v714zM904 277q-39 0 -73 12.5t-59 38.5t-39 67.5t-14 98.5t14.5 98.5t39.5 68.5t58.5 40t72.5 13q40 0 74 -13t58.5 -40t38.5 -68.5t14 -98.5t-13.5 -98.5t-38.5 -67.5t-59 -38.5t-74 -12.5zM904 375
q33 0 51.5 25.5t18.5 93.5t-18.5 94.5t-51.5 26.5q-32 0 -50.5 -26.5t-18.5 -94.5t18.5 -93.5t50.5 -25.5z" />
    <glyph glyph-name="trademark" unicode="&#x2122;" horiz-adv-x="921" 
d="M142 628h-122v86h343v-86h-124v-314h-97v314zM410 714h117l107 -290l108 290h115v-400h-89v252l-94 -252h-82l-94 251v-251h-88v400z" />
    <glyph glyph-name="uni2126" unicode="&#x2126;" horiz-adv-x="737" 
d="M30 120h122q-47 55 -72 117.5t-25 148.5q0 85 23 149.5t65 108t100 66t128 22.5t127.5 -22t98.5 -64.5t63.5 -106.5t22.5 -148q0 -46 -6.5 -83.5t-19.5 -69.5t-31.5 -61t-42.5 -57h124l-15 -120h-262v113q30 21 50 50.5t31.5 65t16.5 76t5 83.5q0 109 -39 167t-123 58
q-88 0 -128 -58t-40 -167q0 -88 22.5 -159t81.5 -116v-113h-277v120z" />
    <glyph glyph-name="estimated" unicode="&#x212e;" horiz-adv-x="911" 
d="M199 139q0 -13 9 -22q48 -51 111 -79.5t137 -28.5q80 0 146 33t115 87h58q-53 -65 -138 -102.5t-183 -37.5q-84 0 -157.5 28.5t-128.5 77.5t-86.5 115.5t-31.5 141.5t31.5 141.5t86.5 116t128.5 78.5t157.5 29t158.5 -29t129.5 -78.5t87 -116t32 -141.5v-10h-657
q-5 0 -5 -4v-199zM707 362q4 0 4 7v199q0 13 -9 24q-48 48 -111 75.5t-135 27.5t-135.5 -29.5t-111.5 -77.5q-5 -4 -7.5 -10.5t-2.5 -13.5v-195q0 -7 5 -7h503z" />
    <glyph glyph-name="onethird" unicode="&#x2153;" horiz-adv-x="937" 
d="M146 589l-93 -50l-40 73l141 79h98v-403h-106v301zM327 0h-135l348 691h135zM671 134q4 -38 21.5 -54t46.5 -16q28 0 46 11.5t18 43.5q0 24 -17.5 36t-45.5 12h-42v80h43q27 0 41 13.5t14 34.5q0 23 -13.5 34.5t-43.5 11.5q-26 0 -43 -12.5t-23 -47.5l-94 13
q11 56 48.5 91.5t114.5 35.5q78 0 114 -33.5t36 -84.5q0 -29 -14.5 -51t-40.5 -39q32 -13 48 -39t16 -54q0 -61 -37 -98.5t-122 -37.5q-47 0 -78 13.5t-50 34.5t-27.5 48t-9.5 54h94z" />
    </font>
</defs>
</svg>
